999
dxfrw 0.6.3
  0
SECTION
  2
HEADER
  9
$ACADVER
  1
AC1021
  9
$DWGCODEPAGE
  3
ANSI_1252
  9
$INSBASE
 10
0
 20
0
 30
0
  9
$EXTMIN
 10
-7.000000000000028
 20
-10.99999836679137
 30
0
  9
$EXTMAX
 10
107
 20
539.0000016332086
 30
0
  9
$LIMMIN
 10
0
 20
0
  9
$LIMMAX
 10
420
 20
297
  9
$ORTHOMODE
 70
    0
  9
$REGENMODE
 70
    1
  9
$FILLMODE
 70
    1
  9
$QTEXTMODE
 70
    0
  9
$MIRRTEXT
 70
    0
  9
$LTSCALE
 40
1
  9
$ATTMODE
 70
    0
  9
$TEXTSIZE
 40
2.5
  9
$TRACEWID
 40
15.68
  9
$TEXTSTYLE
  7
STANDARD
  9
$CLAYER
  8
physical
  9
$CELTYPE
  6
BYLAYER
  9
$CECOLOR
 62
  256
  9
$CELTSCALE
 40
1
  9
$DISPSILH
 70
    0
  9
$DIMSCALE
 40
1
  9
$DIMASZ
 40
2.5
  9
$DIMEXO
 40
1
  9
$DIMDLI
 40
3.75
  9
$DIMRND
 40
0
  9
$DIMDLE
 40
0
  9
$DIMEXE
 40
1.25
  9
$DIMTP
 40
0
  9
$DIMTM
 40
0
  9
$DIMTXT
 40
5
  9
$DIMCEN
 40
2.5
  9
$DIMTSZ
 40
0
  9
$DIMTOL
 70
    0
  9
$DIMLIM
 70
    0
  9
$DIMTIH
 70
    0
  9
$DIMTOH
 70
    0
  9
$DIMSE1
 70
    0
  9
$DIMSE2
 70
    0
  9
$DIMTAD
 70
    1
  9
$DIMZIN
 70
    8
  9
$DIMBLK
  1

  9
$DIMASO
 70
    1
  9
$DIMSHO
 70
    1
  9
$DIMPOST
  1

  9
$DIMAPOST
  1

  9
$DIMALT
 70
    0
  9
$DIMALTD
 70
    3
  9
$DIMALTF
 40
0.03937
  9
$DIMLFAC
 40
1
  9
$DIMTOFL
 70
    1
  9
$DIMTVP
 40
0
  9
$DIMTIX
 70
    0
  9
$DIMSOXD
 70
    0
  9
$DIMSAH
 70
    0
  9
$DIMBLK1
  1

  9
$DIMBLK2
  1

  9
$DIMSTYLE
  2
STANDARD
  9
$DIMCLRD
 70
  256
  9
$DIMCLRE
 70
  256
  9
$DIMCLRT
 70
  256
  9
$DIMTFAC
 40
1
  9
$DIMGAP
 40
1
  9
$DIMJUST
 70
    0
  9
$DIMSD1
 70
    0
  9
$DIMSD2
 70
    0
  9
$DIMTOLJ
 70
    0
  9
$DIMTZIN
 70
    8
  9
$DIMALTZ
 70
    0
  9
$DIMALTTZ
 70
    0
  9
$DIMUPT
 70
    0
  9
$DIMDEC
 70
    4
  9
$DIMTDEC
 70
    2
  9
$DIMALTU
 70
    2
  9
$DIMALTTD
 70
    3
  9
$DIMTXSTY
  7
standard
  9
$DIMAUNIT
 70
    0
  9
$DIMADEC
 70
    2
  9
$DIMALTRND
 40
0
  9
$DIMAZIN
 70
    0
  9
$DIMDSEP
 70
   44
  9
$DIMATFIT
 70
    3
  9
$DIMFRAC
 70
    0
  9
$DIMLDRBLK
  1
STANDARD
  9
$DIMLUNIT
 70
    2
  9
$DIMLWD
 70
   -1
  9
$DIMLWE
 70
   -1
  9
$DIMTMOVE
 70
    0
  9
$DIMFXL
 40
1
  9
$DIMFXLON
 70
    0
  9
$DIMJOGANG
 40
0.7854
  9
$DIMTFILL
 70
    0
  9
$DIMTFILLCLR
 70
    0
  9
$DIMARCSYM
 70
    0
  9
$DIMLTYPE
  6

  9
$DIMLTEX1
  6

  9
$DIMLTEX2
  6

  9
$LUNITS
 70
    2
  9
$LUPREC
 70
    1
  9
$SKETCHINC
 40
1
  9
$FILLETRAD
 40
0
  9
$AUNITS
 70
    0
  9
$AUPREC
 70
    2
  9
$MENU
  1
.
  9
$ELEVATION
 40
0
  9
$PELEVATION
 40
0
  9
$THICKNESS
 40
0
  9
$LIMCHECK
 70
    0
  9
$CHAMFERA
 40
0
  9
$CHAMFERB
 40
0
  9
$CHAMFERC
 40
0
  9
$CHAMFERD
 40
0
  9
$SKPOLY
 70
    0
  9
$USRTIMER
 70
    1
  9
$ANGBASE
 50
0
  9
$ANGDIR
 70
    0
  9
$PDMODE
 70
   34
  9
$PDSIZE
 40
0
  9
$PLINEWID
 40
0
  9
$SPLFRAME
 70
    0
  9
$SPLINETYPE
 70
    2
  9
$SPLINESEGS
 70
    8
  9
$HANDSEED
  5
20000
  9
$SURFTAB1
 70
    6
  9
$SURFTAB2
 70
    6
  9
$SURFTYPE
 70
    6
  9
$SURFU
 70
    6
  9
$SURFV
 70
    6
  9
$UCSBASE
  2

  9
$UCSNAME
  2

  9
$UCSORG
 10
0
 20
0
 30
0
  9
$UCSXDIR
 10
1
 20
0
 30
0
  9
$UCSYDIR
 10
0
 20
1
 30
0
  9
$UCSORTHOREF
  2

  9
$UCSORTHOVIEW
 70
    0
  9
$UCSORGTOP
 10
0
 20
0
 30
0
  9
$UCSORGBOTTOM
 10
0
 20
0
 30
0
  9
$UCSORGLEFT
 10
0
 20
0
 30
0
  9
$UCSORGRIGHT
 10
0
 20
0
 30
0
  9
$UCSORGFRONT
 10
0
 20
0
 30
0
  9
$UCSORGBACK
 10
0
 20
0
 30
0
  9
$PUCSBASE
  2

  9
$PUCSNAME
  2

  9
$PUCSORG
 10
0
 20
0
 30
0
  9
$PUCSXDIR
 10
1
 20
0
 30
0
  9
$PUCSYDIR
 10
0
 20
1
 30
0
  9
$PUCSORTHOREF
  2

  9
$PUCSORTHOVIEW
 70
    0
  9
$PUCSORGTOP
 10
0
 20
0
 30
0
  9
$PUCSORGBOTTOM
 10
0
 20
0
 30
0
  9
$PUCSORGLEFT
 10
0
 20
0
 30
0
  9
$PUCSORGRIGHT
 10
0
 20
0
 30
0
  9
$PUCSORGFRONT
 10
0
 20
0
 30
0
  9
$PUCSORGBACK
 10
0
 20
0
 30
0
  9
$USERI1
 70
    0
  9
$USERI2
 70
    0
  9
$USERI3
 70
    0
  9
$USERI4
 70
    0
  9
$USERI5
 70
    0
  9
$USERR1
 40
0
  9
$USERR2
 40
0
  9
$USERR3
 40
0
  9
$USERR4
 40
0
  9
$USERR5
 40
0
  9
$WORLDVIEW
 70
    1
  9
$SHADEDGE
 70
    3
  9
$SHADEDIF
 70
   70
  9
$TILEMODE
 70
    1
  9
$MAXACTVP
 70
   64
  9
$PINSBASE
 10
79.97100647266419
 20
17.93999919230413
 30
0
  9
$PLIMCHECK
 70
    0
  9
$PEXTMIN
 10
0
 20
0
 30
0
  9
$PEXTMAX
 10
0
 20
0
 30
0
  9
$GRIDMODE
 70
    1
  9
$SNAPSTYLE
 70
    0
  9
$GRIDUNIT
 10
0
 20
0
  9
$PLIMMIN
 10
0
 20
0
  9
$PLIMMAX
 10
210
 20
297
  9
$UNITMODE
 70
    0
  9
$VISRETAIN
 70
    1
  9
$PLINEGEN
 70
    0
  9
$PSLTSCALE
 70
    1
  9
$TREEDEPTH
 70
 3020
  9
$CMLSTYLE
  2
Standard
  9
$CMLJUST
 70
    0
  9
$CMLSCALE
 40
20
  9
$PROXYGRAPHICS
 70
    1
  9
$MEASUREMENT
 70
    1
  9
$CELWEIGHT
370
   -1
  9
$ENDCAPS
280
    0
  9
$JOINSTYLE
280
    0
  9
$LWDISPLAY
290
    0
  9
$INSUNITS
 70
    4
  9
$HYPERLINKBASE
  1

  9
$STYLESHEET
  1

  9
$XEDIT
290
    1
  9
$CEPSNTYPE
380
    0
  9
$PSTYLEMODE
290
    1
  9
$EXTNAMES
290
    1
  9
$PSVPSCALE
 40
0.4945451668100847
  9
$OLESTARTUP
290
    0
  9
$SORTENTS
280
  127
  9
$INDEXCTL
280
    0
  9
$HIDETEXT
280
    1
  9
$XCLIPFRAME
290
    0
  9
$HALOGAP
280
    0
  9
$OBSCOLOR
 70
  257
  9
$OBSLTYPE
280
    0
  9
$INTERSECTIONDISPLAY
280
    0
  9
$INTERSECTIONCOLOR
 70
  257
  9
$DIMASSOC
280
    1
  9
$PROJECTNAME
  1

  9
$CAMERADISPLAY
290
    0
  9
$LENSLENGTH
 40
50
  9
$CAMERAHEIGHT
 40
0
  9
$STEPSPERSEC
 40
2
  9
$STEPSIZE
 40
50
  9
$3DDWFPREC
 40
2
  9
$PSOLWIDTH
 40
5
  9
$PSOLHEIGHT
 40
80
  9
$LOFTANG1
 40
1.570796326794897
  9
$LOFTANG2
 40
1.570796326794897
  9
$LOFTMAG1
 40
0
  9
$LOFTMAG2
 40
0
  9
$LOFTPARAM
 70
    7
  9
$LOFTNORMALS
280
    1
  9
$LATITUDE
 40
1
  9
$LONGITUDE
 40
1
  9
$NORTHDIRECTION
 40
0
  9
$TIMEZONE
 70
-8000
  9
$LIGHTGLYPHDISPLAY
280
    1
  9
$TILEMODELIGHTSYNCH
280
    1
  9
$SOLIDHIST
280
    1
  9
$SHOWHIST
280
    1
  9
$DWFFRAME
280
    2
  9
$DGNFRAME
280
    0
  9
$REALWORLDSCALE
290
    1
  9
$INTERFERECOLOR
 62
    1
  9
$CSHADOW
280
    0
  9
$SHADOWPLANELOCATION
 40
0
  0
ENDSEC
  0
SECTION
  2
CLASSES
  0
ENDSEC
  0
SECTION
  2
TABLES
  0
TABLE
  2
VPORT
  5
8
330
0
100
AcDbSymbolTable
 70
    1
  0
VPORT
  5
31
330
2
100
AcDbSymbolTableRecord
100
AcDbViewportTableRecord
  2
*ACTIVE
 70
    0
 10
0
 20
0
 11
1
 21
1
 12
175.407092571955
 22
297.8457251337958
 13
0
 23
0
 14
10
 24
10
 15
10
 25
10
 16
0
 26
0
 36
1
 17
0
 27
0
 37
0
 40
420.0806328494439
 41
1.269641125121242
 42
50
 43
0
 44
0
 50
0
 51
0
 71
    0
 72
  100
 73
    1
 74
    3
 75
    0
 76
    1
 77
    0
 78
    0
281
    0
 65
    1
110
0
120
0
130
0
111
1
121
0
131
0
112
0
122
1
132
0
 79
    0
146
0
348
10020
 60
    7
 61
    5
292
1
282
    1
141
0
142
0
 63
  250
421
3358443
  0
ENDTAB
  0
TABLE
  2
LTYPE
  5
5
330
0
100
AcDbSymbolTable
 70
    4
  0
LTYPE
  5
14
330
5
100
AcDbSymbolTableRecord
100
AcDbLinetypeTableRecord
  2
ByBlock
 70
    0
  3

 72
   65
 73
    0
 40
0
  0
LTYPE
  5
15
330
5
100
AcDbSymbolTableRecord
100
AcDbLinetypeTableRecord
  2
ByLayer
 70
    0
  3

 72
   65
 73
    0
 40
0
  0
LTYPE
  5
16
330
5
100
AcDbSymbolTableRecord
100
AcDbLinetypeTableRecord
  2
Continuous
 70
    0
  3
Solid line
 72
   65
 73
    0
 40
0
  0
LTYPE
  5
32
330
5
100
AcDbSymbolTableRecord
100
AcDbLinetypeTableRecord
  2
DOT
 70
    0
  3
Dot . . . . . . . . . . . . . . . . . . . . . .
 72
   65
 73
    2
 40
6.35
 49
0
 74
    0
 49
-6.35
 74
    0
  0
LTYPE
  5
33
330
5
100
AcDbSymbolTableRecord
100
AcDbLinetypeTableRecord
  2
DOTTINY
 70
    0
  3
Dot (.15x) .....................................
 72
   65
 73
    2
 40
0.9525
 49
0
 74
    0
 49
-0.9525
 74
    0
  0
LTYPE
  5
34
330
5
100
AcDbSymbolTableRecord
100
AcDbLinetypeTableRecord
  2
DOT2
 70
    0
  3
Dot (.5x) .....................................
 72
   65
 73
    2
 40
3.175
 49
0
 74
    0
 49
-3.175
 74
    0
  0
LTYPE
  5
35
330
5
100
AcDbSymbolTableRecord
100
AcDbLinetypeTableRecord
  2
DOTX2
 70
    0
  3
Dot (2x) .  .  .  .  .  .  .  .  .  .  .  .  .
 72
   65
 73
    2
 40
12.7
 49
0
 74
    0
 49
-12.7
 74
    0
  0
LTYPE
  5
36
330
5
100
AcDbSymbolTableRecord
100
AcDbLinetypeTableRecord
  2
DASHED
 70
    0
  3
Dashed _ _ _ _ _ _ _ _ _ _ _ _ _ _ _ _ _
 72
   65
 73
    2
 40
19.05
 49
12.7
 74
    0
 49
-6.35
 74
    0
  0
LTYPE
  5
37
330
5
100
AcDbSymbolTableRecord
100
AcDbLinetypeTableRecord
  2
DASHEDTINY
 70
    0
  3
Dashed (.15x) _ _ _ _ _ _ _ _ _ _ _ _ _ _ _ _ _
 72
   65
 73
    2
 40
2.8575
 49
1.905
 74
    0
 49
-0.9525
 74
    0
  0
LTYPE
  5
38
330
5
100
AcDbSymbolTableRecord
100
AcDbLinetypeTableRecord
  2
DASHED2
 70
    0
  3
Dashed (.5x) _ _ _ _ _ _ _ _ _ _ _ _ _ _ _ _ _
 72
   65
 73
    2
 40
9.524999999999999
 49
6.35
 74
    0
 49
-3.175
 74
    0
  0
LTYPE
  5
39
330
5
100
AcDbSymbolTableRecord
100
AcDbLinetypeTableRecord
  2
DASHEDX2
 70
    0
  3
Dashed (2x) ____  ____  ____  ____  ____  ___
 72
   65
 73
    2
 40
38.09999999999999
 49
25.4
 74
    0
 49
-12.7
 74
    0
  0
LTYPE
  5
3A
330
5
100
AcDbSymbolTableRecord
100
AcDbLinetypeTableRecord
  2
DASHDOT
 70
    0
  3
Dash dot __ . __ . __ . __ . __ . __ . __ . __
 72
   65
 73
    4
 40
25.4
 49
12.7
 74
    0
 49
-6.35
 74
    0
 49
0
 74
    0
 49
-6.35
 74
    0
  0
LTYPE
  5
3B
330
5
100
AcDbSymbolTableRecord
100
AcDbLinetypeTableRecord
  2
DASHDOTTINY
 70
    0
  3
Dash dot (.15x) _._._._._._._._._._._._._._._.
 72
   65
 73
    4
 40
3.81
 49
1.905
 74
    0
 49
-0.9525
 74
    0
 49
0
 74
    0
 49
-0.9525
 74
    0
  0
LTYPE
  5
3C
330
5
100
AcDbSymbolTableRecord
100
AcDbLinetypeTableRecord
  2
DASHDOT2
 70
    0
  3
Dash dot (.5x) _._._._._._._._._._._._._._._.
 72
   65
 73
    4
 40
12.7
 49
6.35
 74
    0
 49
-3.175
 74
    0
 49
0
 74
    0
 49
-3.175
 74
    0
  0
LTYPE
  5
3D
330
5
100
AcDbSymbolTableRecord
100
AcDbLinetypeTableRecord
  2
DASHDOTX2
 70
    0
  3
Dash dot (2x) ____  .  ____  .  ____  .  ___
 72
   65
 73
    4
 40
50.8
 49
25.4
 74
    0
 49
-12.7
 74
    0
 49
0
 74
    0
 49
-12.7
 74
    0
  0
LTYPE
  5
3E
330
5
100
AcDbSymbolTableRecord
100
AcDbLinetypeTableRecord
  2
DIVIDE
 70
    0
  3
Divide ____ . . ____ . . ____ . . ____ . . ____
 72
   65
 73
    6
 40
31.75
 49
12.7
 74
    0
 49
-6.35
 74
    0
 49
0
 74
    0
 49
-6.35
 74
    0
 49
0
 74
    0
 49
-6.35
 74
    0
  0
LTYPE
  5
3F
330
5
100
AcDbSymbolTableRecord
100
AcDbLinetypeTableRecord
  2
DIVIDETINY
 70
    0
  3
Divide (.15x) __..__..__..__..__..__..__..__.._
 72
   65
 73
    6
 40
4.7625
 49
1.905
 74
    0
 49
-0.9525
 74
    0
 49
0
 74
    0
 49
-0.9525
 74
    0
 49
0
 74
    0
 49
-0.9525
 74
    0
  0
LTYPE
  5
40
330
5
100
AcDbSymbolTableRecord
100
AcDbLinetypeTableRecord
  2
DIVIDE2
 70
    0
  3
Divide (.5x) __..__..__..__..__..__..__..__.._
 72
   65
 73
    6
 40
15.875
 49
6.35
 74
    0
 49
-3.175
 74
    0
 49
0
 74
    0
 49
-3.175
 74
    0
 49
0
 74
    0
 49
-3.175
 74
    0
  0
LTYPE
  5
41
330
5
100
AcDbSymbolTableRecord
100
AcDbLinetypeTableRecord
  2
DIVIDEX2
 70
    0
  3
Divide (2x) ________  .  .  ________  .  .  _
 72
   65
 73
    6
 40
63.5
 49
25.4
 74
    0
 49
-12.7
 74
    0
 49
0
 74
    0
 49
-12.7
 74
    0
 49
0
 74
    0
 49
-12.7
 74
    0
  0
LTYPE
  5
42
330
5
100
AcDbSymbolTableRecord
100
AcDbLinetypeTableRecord
  2
BORDER
 70
    0
  3
Border __ __ . __ __ . __ __ . __ __ . __ __ .
 72
   65
 73
    6
 40
44.45
 49
12.7
 74
    0
 49
-6.35
 74
    0
 49
12.7
 74
    0
 49
-6.35
 74
    0
 49
0
 74
    0
 49
-6.35
 74
    0
  0
LTYPE
  5
43
330
5
100
AcDbSymbolTableRecord
100
AcDbLinetypeTableRecord
  2
BORDERTINY
 70
    0
  3
Border (.15x) __.__.__.__.__.__.__.__.__.__.__.
 72
   65
 73
    6
 40
6.6675
 49
1.905
 74
    0
 49
-0.9525
 74
    0
 49
1.905
 74
    0
 49
-0.9525
 74
    0
 49
0
 74
    0
 49
-0.9525
 74
    0
  0
LTYPE
  5
44
330
5
100
AcDbSymbolTableRecord
100
AcDbLinetypeTableRecord
  2
BORDER2
 70
    0
  3
Border (.5x) __.__.__.__.__.__.__.__.__.__.__.
 72
   65
 73
    6
 40
22.225
 49
6.35
 74
    0
 49
-3.175
 74
    0
 49
6.35
 74
    0
 49
-3.175
 74
    0
 49
0
 74
    0
 49
-3.175
 74
    0
  0
LTYPE
  5
45
330
5
100
AcDbSymbolTableRecord
100
AcDbLinetypeTableRecord
  2
BORDERX2
 70
    0
  3
Border (2x) ____  ____  .  ____  ____  .  ___
 72
   65
 73
    6
 40
88.89999999999999
 49
25.4
 74
    0
 49
-12.7
 74
    0
 49
25.4
 74
    0
 49
-12.7
 74
    0
 49
0
 74
    0
 49
-12.7
 74
    0
  0
LTYPE
  5
46
330
5
100
AcDbSymbolTableRecord
100
AcDbLinetypeTableRecord
  2
CENTER
 70
    0
  3
Center ____ _ ____ _ ____ _ ____ _ ____ _ ____
 72
   65
 73
    4
 40
50.8
 49
31.75
 74
    0
 49
-6.35
 74
    0
 49
6.35
 74
    0
 49
-6.35
 74
    0
  0
LTYPE
  5
47
330
5
100
AcDbSymbolTableRecord
100
AcDbLinetypeTableRecord
  2
CENTERTINY
 70
    0
  3
Center (.15x) ___ _ ___ _ ___ _ ___ _ ___ _ ___
 72
   65
 73
    4
 40
7.619999999999999
 49
4.7625
 74
    0
 49
-0.9525
 74
    0
 49
0.9525
 74
    0
 49
-0.9525
 74
    0
  0
LTYPE
  5
48
330
5
100
AcDbSymbolTableRecord
100
AcDbLinetypeTableRecord
  2
CENTER2
 70
    0
  3
Center (.5x) ___ _ ___ _ ___ _ ___ _ ___ _ ___
 72
   65
 73
    4
 40
28.575
 49
19.05
 74
    0
 49
-3.175
 74
    0
 49
3.175
 74
    0
 49
-3.175
 74
    0
  0
LTYPE
  5
49
330
5
100
AcDbSymbolTableRecord
100
AcDbLinetypeTableRecord
  2
CENTERX2
 70
    0
  3
Center (2x) ________  __  ________  __  _____
 72
   65
 73
    4
 40
101.6
 49
63.5
 74
    0
 49
-12.7
 74
    0
 49
12.7
 74
    0
 49
-12.7
 74
    0
  0
ENDTAB
  0
TABLE
  2
LAYER
  5
2
330
0
100
AcDbSymbolTable
 70
    1
  0
LAYER
  5
10
330
2
100
AcDbSymbolTableRecord
100
AcDbLayerTableRecord
  2
0
 70
    4
 62
    7
  6
CONTINUOUS
370
    0
390
F
  0
LAYER
  5
4A
330
2
100
AcDbSymbolTableRecord
100
AcDbLayerTableRecord
  2
RPi4_BOARD_OUTLINE
 70
    0
 62
   96
420
32768
  6
CONTINUOUS
370
   25
390
F
  0
LAYER
  5
4B
330
2
100
AcDbSymbolTableRecord
100
AcDbLayerTableRecord
  2
RPi4_PARTS_TOP
 70
    0
 62
   96
420
32768
  6
CONTINUOUS
370
   18
390
F
  0
LAYER
  5
4C
330
2
100
AcDbSymbolTableRecord
100
AcDbLayerTableRecord
  2
cable-ties
 70
    0
 62
    1
  6
CONTINUOUS
370
   70
390
F
  0
LAYER
  5
4D
330
2
100
AcDbSymbolTableRecord
100
AcDbLayerTableRecord
  2
dimensions
 70
    1
 62
    5
  6
CONTINUOUS
290
0
370
   25
390
F
  0
LAYER
  5
4E
330
2
100
AcDbSymbolTableRecord
100
AcDbLayerTableRecord
  2
physical
 70
    0
 62
    7
420
    1
  6
CONTINUOUS
370
   50
390
F
  0
ENDTAB
  0
TABLE
  2
STYLE
  5
3
330
0
100
AcDbSymbolTable
 70
    3
  0
STYLE
  5
4F
330
2
100
AcDbSymbolTableRecord
100
AcDbTextStyleTableRecord
  2
standard
 70
    0
 40
0
 41
1
 50
0
 71
    0
 42
1
  3
standard
  4

  0
ENDTAB
  0
TABLE
  2
VIEW
  5
6
330
0
100
AcDbSymbolTable
 70
    0
  0
ENDTAB
  0
TABLE
  2
UCS
  5
7
330
0
100
AcDbSymbolTable
 70
    0
  0
ENDTAB
  0
TABLE
  2
APPID
  5
9
330
0
100
AcDbSymbolTable
 70
    1
  0
APPID
  5
12
330
9
100
AcDbSymbolTableRecord
100
AcDbRegAppTableRecord
  2
ACAD
 70
    0
  0
APPID
  5
50
330
9
100
AcDbSymbolTableRecord
100
AcDbRegAppTableRecord
  2
LibreCad
 70
    0
  0
ENDTAB
  0
TABLE
  2
DIMSTYLE
  5
A
330
0
100
AcDbSymbolTable
 70
    1
100
AcDbDimStyleTable
 71
    1
  0
DIMSTYLE
105
51
330
A
100
AcDbSymbolTableRecord
100
AcDbDimStyleTableRecord
  2
Standard
 70
    0
 40
1
 41
2.5
 42
1
 43
0.38
 44
1.25
 45
0
 46
0
 47
0
 48
0
 49
1
140
5
141
0.09
142
0
143
25.4
144
1
145
0
146
1
147
1
148
0
 71
    0
 72
    0
 73
    0
 74
    1
 75
    0
 76
    0
 77
    0
 78
    8
 79
    0
170
    0
171
    2
172
    0
173
    0
174
    0
175
    0
176
  256
177
  256
178
  256
179
    2
271
    4
272
    4
273
    2
274
    2
275
    0
276
    0
277
    2
278
   44
279
    0
280
    0
281
    0
282
    0
283
    1
284
    0
285
    0
286
    0
288
    0
289
    3
340
standard
341

371
   -1
372
   -1
  0
ENDTAB
  0
TABLE
  2
BLOCK_RECORD
  5
1
330
0
100
AcDbSymbolTable
 70
    2
  0
BLOCK_RECORD
  5
1F
330
1
100
AcDbSymbolTableRecord
100
AcDbBlockTableRecord
  2
*Model_Space
 70
    0
280
    1
281
    0
  0
BLOCK_RECORD
  5
1E
330
1
100
AcDbSymbolTableRecord
100
AcDbBlockTableRecord
  2
*Paper_Space
 70
    0
280
    1
281
    0
  0
BLOCK_RECORD
  5
52
330
1
100
AcDbSymbolTableRecord
100
AcDbBlockTableRecord
  2
*D1
 70
    0
280
    1
281
    0
  0
BLOCK_RECORD
  5
55
330
1
100
AcDbSymbolTableRecord
100
AcDbBlockTableRecord
  2
*D2
 70
    0
280
    1
281
    0
  0
BLOCK_RECORD
  5
58
330
1
100
AcDbSymbolTableRecord
100
AcDbBlockTableRecord
  2
FIGURE_CIRCLE
 70
    0
280
    1
281
    0
  0
BLOCK_RECORD
  5
5B
330
1
100
AcDbSymbolTableRecord
100
AcDbBlockTableRecord
  2
FIGURE_SQUARE
 70
    0
280
    1
281
    0
  0
BLOCK_RECORD
  5
5E
330
1
100
AcDbSymbolTableRecord
100
AcDbBlockTableRecord
  2
FIGURE_HEX
 70
    0
280
    1
281
    0
  0
BLOCK_RECORD
  5
61
330
1
100
AcDbSymbolTableRecord
100
AcDbBlockTableRecord
  2
FIGURE_OCT
 70
    0
280
    1
281
    0
  0
BLOCK_RECORD
  5
64
330
1
100
AcDbSymbolTableRecord
100
AcDbBlockTableRecord
  2
FIGURE_OBLONG
 70
    0
280
    1
281
    0
  0
BLOCK_RECORD
  5
67
330
1
100
AcDbSymbolTableRecord
100
AcDbBlockTableRecord
  2
FIGURE_TRI
 70
    0
280
    1
281
    0
  0
BLOCK_RECORD
  5
6A
330
1
100
AcDbSymbolTableRecord
100
AcDbBlockTableRecord
  2
FIGURE_CROSS
 70
    0
280
    1
281
    0
  0
BLOCK_RECORD
  5
6D
330
1
100
AcDbSymbolTableRecord
100
AcDbBlockTableRecord
  2
FIGURE_DIAMOND
 70
    0
280
    1
281
    0
  0
BLOCK_RECORD
  5
70
330
1
100
AcDbSymbolTableRecord
100
AcDbBlockTableRecord
  2
rPi4
 70
    0
280
    1
281
    0
  0
BLOCK_RECORD
  5
73
330
1
100
AcDbSymbolTableRecord
100
AcDbBlockTableRecord
  2
enc_block
 70
    0
280
    1
281
    0
  0
ENDTAB
  0
ENDSEC
  0
SECTION
  2
BLOCKS
  0
BLOCK
  5
20
330
1F
100
AcDbEntity
  8
0
100
AcDbBlockBegin
  2
*Model_Space
 70
    0
 10
0
 20
0
 30
0
  3
*Model_Space
  1

  0
ENDBLK
  5
21
330
1F
100
AcDbEntity
  8
0
100
AcDbBlockEnd
  0
BLOCK
  5
1C
330
1B
100
AcDbEntity
  8
0
100
AcDbBlockBegin
  2
*Paper_Space
 70
    0
 10
0
 20
0
 30
0
  3
*Paper_Space
  1

  0
ENDBLK
  5
1D
330
1F
100
AcDbEntity
  8
0
100
AcDbBlockEnd
  0
BLOCK
  5
53
330
52
100
AcDbEntity
  8
0
100
AcDbBlockBegin
  2
*D1
 70
    1
 10
0
 20
0
  3
*D1
  1

  0
LINE
  5
76
100
AcDbEntity
  8
dimensions
  6
ByBlock
 62
  256
370
   -1
100
AcDbLine
 10
110
 20
50
 11
110
 21
70
  0
SOLID
  5
77
100
AcDbEntity
  8
dimensions
  6
ByBlock
 62
  256
370
   -1
100
AcDbTrace
 10
110
 20
50
 30
0
 11
109.5837153422272
 21
52.5
 31
0
 12
110.4162846577728
 22
52.5
 32
0
 13
110.4162846577728
 23
52.5
 33
0
  0
SOLID
  5
78
100
AcDbEntity
  8
dimensions
  6
ByBlock
 62
  256
370
   -1
100
AcDbTrace
 10
110
 20
70
 30
0
 11
110.4162846577728
 21
67.5
 31
0
 12
109.5837153422272
 22
67.5
 32
0
 13
109.5837153422272
 23
67.5
 33
0
  0
MTEXT
  5
79
100
AcDbEntity
  8
dimensions
  6
CONTINUOUS
 62
  256
370
   -2
100
AcDbMText
 10
106.5
 20
60
 30
0
 40
5
 41
6.111111111111112
 71
    5
 72
    1
  1
20
  7
standard
210
0
220
0
230
1
 50
90
 73
    2
 44
1
  0
LINE
  5
7A
100
AcDbEntity
  8
dimensions
  6
ByBlock
 62
  256
370
   -1
100
AcDbLine
 10
81
 20
50
 11
111.25
 21
50
  0
LINE
  5
7B
100
AcDbEntity
  8
dimensions
  6
ByBlock
 62
  256
370
   -1
100
AcDbLine
 10
81
 20
70
 11
111.25
 21
70
  0
ENDBLK
  5
54
330
52
100
AcDbEntity
  8
0
100
AcDbBlockEnd
  0
BLOCK
  5
56
330
55
100
AcDbEntity
  8
0
100
AcDbBlockBegin
  2
*D2
 70
    1
 10
0
 20
0
  3
*D2
  1

  0
LINE
  5
7C
100
AcDbEntity
  8
dimensions
  6
ByBlock
 62
  256
370
   -1
100
AcDbLine
 10
110
 20
370
 11
110
 21
390
  0
SOLID
  5
7D
100
AcDbEntity
  8
dimensions
  6
ByBlock
 62
  256
370
   -1
100
AcDbTrace
 10
110
 20
370
 30
0
 11
109.5837153422272
 21
372.5
 31
0
 12
110.4162846577728
 22
372.5
 32
0
 13
110.4162846577728
 23
372.5
 33
0
  0
SOLID
  5
7E
100
AcDbEntity
  8
dimensions
  6
ByBlock
 62
  256
370
   -1
100
AcDbTrace
 10
110
 20
390
 30
0
 11
110.4162846577728
 21
387.5
 31
0
 12
109.5837153422272
 22
387.5
 32
0
 13
109.5837153422272
 23
387.5
 33
0
  0
MTEXT
  5
7F
100
AcDbEntity
  8
dimensions
  6
CONTINUOUS
 62
  256
370
   -2
100
AcDbMText
 10
106.5
 20
380
 30
0
 40
5
 41
6.111111111111112
 71
    5
 72
    1
  1
20
  7
standard
210
0
220
0
230
1
 50
90
 73
    2
 44
1
  0
LINE
  5
80
100
AcDbEntity
  8
dimensions
  6
ByBlock
 62
  256
370
   -1
100
AcDbLine
 10
81.00000000000003
 20
370
 11
111.25
 21
370
  0
LINE
  5
81
100
AcDbEntity
  8
dimensions
  6
ByBlock
 62
  256
370
   -1
100
AcDbLine
 10
81.00000000000003
 20
390
 11
111.25
 21
390
  0
ENDBLK
  5
57
330
55
100
AcDbEntity
  8
0
100
AcDbBlockEnd
  0
BLOCK
  5
59
330
58
100
AcDbEntity
  8
0
100
AcDbBlockBegin
  2
FIGURE_CIRCLE
 70
    0
 10
0
 20
0
  3
FIGURE_CIRCLE
  1

  0
CIRCLE
  5
82
100
AcDbEntity
  8
0
  6
ByLayer
 62
  256
370
   -1
100
AcDbCircle
 10
0
 20
0
 40
0.5
  0
ENDBLK
  5
5A
330
58
100
AcDbEntity
  8
0
100
AcDbBlockEnd
  0
BLOCK
  5
5C
330
5B
100
AcDbEntity
  8
0
100
AcDbBlockBegin
  2
FIGURE_SQUARE
 70
    0
 10
0
 20
0
  3
FIGURE_SQUARE
  1

  0
LWPOLYLINE
  5
83
100
AcDbEntity
  8
0
  6
ByLayer
 62
  256
370
   -1
100
AcDbPolyline
 90
    4
 70
    1
 43
0
 10
-0.5
 20
-0.5
 10
-0.5
 20
0.5
 10
0.5
 20
0.5
 10
0.5
 20
-0.5
  0
ENDBLK
  5
5D
330
5B
100
AcDbEntity
  8
0
100
AcDbBlockEnd
  0
BLOCK
  5
5F
330
5E
100
AcDbEntity
  8
0
100
AcDbBlockBegin
  2
FIGURE_HEX
 70
    0
 10
0
 20
0
  3
FIGURE_HEX
  1

  0
LWPOLYLINE
  5
84
100
AcDbEntity
  8
0
  6
ByLayer
 62
  256
370
   -1
100
AcDbPolyline
 90
    6
 70
    1
 43
0
 10
-0.5
 20
0
 10
-0.25
 20
0.5
 10
0.25
 20
0.5
 10
0.5
 20
0
 10
0.25
 20
-0.5
 10
-0.25
 20
-0.5
  0
ENDBLK
  5
60
330
5E
100
AcDbEntity
  8
0
100
AcDbBlockEnd
  0
BLOCK
  5
62
330
61
100
AcDbEntity
  8
0
100
AcDbBlockBegin
  2
FIGURE_OCT
 70
    0
 10
0
 20
0
  3
FIGURE_OCT
  1

  0
LWPOLYLINE
  5
85
100
AcDbEntity
  8
0
  6
ByLayer
 62
  256
370
   -1
100
AcDbPolyline
 90
    8
 70
    1
 43
0
 10
-0.5
 20
-0.2071
 10
-0.5
 20
0.2071
 10
-0.2071
 20
0.5
 10
0.2071
 20
0.5
 10
0.5
 20
0.2071
 10
0.5
 20
-0.2071
 10
0.2071
 20
-0.5
 10
-0.2071
 20
-0.5
  0
ENDBLK
  5
63
330
61
100
AcDbEntity
  8
0
100
AcDbBlockEnd
  0
BLOCK
  5
65
330
64
100
AcDbEntity
  8
0
100
AcDbBlockBegin
  2
FIGURE_OBLONG
 70
    0
 10
0
 20
0
  3
FIGURE_OBLONG
  1

  0
LWPOLYLINE
  5
86
100
AcDbEntity
  8
0
  6
ByLayer
 62
  256
370
   -1
100
AcDbPolyline
 90
   12
 70
    1
 43
0
 10
-0.5
 20
-0.125
 10
-0.5
 20
0.125
 10
-0.416
 20
0.375
 10
-0.25
 20
0.5
 10
0.25
 20
0.5
 10
0.416
 20
0.375
 10
0.5
 20
0.125
 10
0.5
 20
-0.125
 10
0.416
 20
-0.375
 10
0.25
 20
-0.5
 10
-0.25
 20
-0.5
 10
-0.416
 20
-0.375
  0
ENDBLK
  5
66
330
64
100
AcDbEntity
  8
0
100
AcDbBlockEnd
  0
BLOCK
  5
68
330
67
100
AcDbEntity
  8
0
100
AcDbBlockBegin
  2
FIGURE_TRI
 70
    0
 10
0
 20
0
  3
FIGURE_TRI
  1

  0
LWPOLYLINE
  5
87
100
AcDbEntity
  8
0
  6
ByLayer
 62
  256
370
   -1
100
AcDbPolyline
 90
    3
 70
    1
 43
0
 10
-0.5
 20
-0.5
 10
0
 20
0.5
 10
0.5
 20
-0.5
  0
ENDBLK
  5
69
330
67
100
AcDbEntity
  8
0
100
AcDbBlockEnd
  0
BLOCK
  5
6B
330
6A
100
AcDbEntity
  8
0
100
AcDbBlockBegin
  2
FIGURE_CROSS
 70
    0
 10
0
 20
0
  3
FIGURE_CROSS
  1

  0
LWPOLYLINE
  5
88
100
AcDbEntity
  8
0
  6
ByLayer
 62
  256
370
   -1
100
AcDbPolyline
 90
    2
 70
    0
 43
0
 10
-0.5
 20
0
 10
0.5
 20
0
  0
LWPOLYLINE
  5
89
100
AcDbEntity
  8
0
  6
ByLayer
 62
  256
370
   -1
100
AcDbPolyline
 90
    2
 70
    0
 43
0
 10
0
 20
0.5
 10
0
 20
-0.5
  0
ENDBLK
  5
6C
330
6A
100
AcDbEntity
  8
0
100
AcDbBlockEnd
  0
BLOCK
  5
6E
330
6D
100
AcDbEntity
  8
0
100
AcDbBlockBegin
  2
FIGURE_DIAMOND
 70
    0
 10
0
 20
0
  3
FIGURE_DIAMOND
  1

  0
LWPOLYLINE
  5
8A
100
AcDbEntity
  8
0
  6
ByLayer
 62
  256
370
   -1
100
AcDbPolyline
 90
    4
 70
    1
 43
0
 10
-0.5
 20
0
 10
0
 20
0.5
 10
0.5
 20
0
 10
0
 20
-0.5
  0
ENDBLK
  5
6F
330
6D
100
AcDbEntity
  8
0
100
AcDbBlockEnd
  0
BLOCK
  5
71
330
70
100
AcDbEntity
  8
0
100
AcDbBlockBegin
  2
rPi4
 70
    0
 10
0
 20
0
  3
rPi4
  1

  0
LWPOLYLINE
  5
8B
100
AcDbEntity
  8
RPi4_PARTS_TOP
  6
ByLayer
 62
  256
370
   -1
100
AcDbPolyline
 90
    8
 70
    0
 43
0
 10
0
 20
22.43000000000001
 10
0
 20
35.57000000000001
 10
17.5
 20
35.57000000000001
 10
17.5
 20
22.43000000000001
 10
0
 20
22.43000000000001
 10
0
 20
21.75000000000001
 10
0.3000000000000114
 20
21.75000000000001
 10
0.3000000000000114
 20
22.43000000000001
  0
LWPOLYLINE
  5
8C
100
AcDbEntity
  8
RPi4_PARTS_TOP
  6
ByLayer
 62
  256
370
   -1
100
AcDbPolyline
 90
    4
 70
    0
 43
0
 10
0
 20
35.57000000000001
 10
0
 20
36.25000000000001
 10
0.3000000000000114
 20
36.25000000000001
 10
0.3000000000000114
 20
35.57000000000001
  0
LWPOLYLINE
  5
8D
100
AcDbEntity
  8
RPi4_PARTS_TOP
  6
ByLayer
 62
  256
370
   -1
100
AcDbPolyline
 90
    5
 70
    0
 43
0
 10
55.72499999999999
 20
49.325
 10
56.875
 20
49.325
 10
56.875
 20
50.475
 10
55.72499999999999
 20
50.475
 10
55.72499999999999
 20
49.325
  0
LWPOLYLINE
  5
8E
100
AcDbEntity
  8
RPi4_PARTS_TOP
  6
ByLayer
 62
  256
370
   -1
100
AcDbPolyline
 90
    2
 70
    1
 43
0
 10
55.8
 20
50.3
 42
0.9999999999999999
 10
56.00000000000001
 20
50.3
 42
0.9999999999999999
  0
LWPOLYLINE
  5
8F
100
AcDbEntity
  8
RPi4_PARTS_TOP
  6
ByLayer
 62
  256
370
   -1
100
AcDbPolyline
 90
    5
 70
    0
 43
0
 10
54.77500000000001
 20
50.475
 10
53.625
 20
50.475
 10
53.625
 20
49.325
 10
54.77500000000001
 20
49.325
 10
54.77500000000001
 20
50.475
  0
LWPOLYLINE
  5
90
100
AcDbEntity
  8
RPi4_PARTS_TOP
  6
ByLayer
 62
  256
370
   -1
100
AcDbPolyline
 90
    2
 70
    1
 43
0
 10
54.49999999999999
 20
49.50000000000001
 42
0.9999999999999999
 10
54.7
 20
49.50000000000001
 42
0.9999999999999999
  0
LWPOLYLINE
  5
91
100
AcDbEntity
  8
RPi4_PARTS_TOP
  6
ByLayer
 62
  256
370
   -1
100
AcDbPolyline
 90
    5
 70
    0
 43
0
 10
81.39999999999998
 20
19.9
 10
70.59999999999999
 20
19.9
 10
70.59999999999999
 20
6.899999999999999
 10
81.39999999999998
 20
6.899999999999999
 10
81.39999999999998
 20
19.9
  0
LWPOLYLINE
  5
92
100
AcDbEntity
  8
RPi4_PARTS_TOP
  6
ByLayer
 62
  256
370
   -1
100
AcDbPolyline
 90
    5
 70
    0
 43
0
 10
81.19999999999999
 20
19.7
 10
70.80000000000001
 20
19.7
 10
70.80000000000001
 20
7.100000000000001
 10
81.19999999999999
 20
7.100000000000001
 10
81.19999999999999
 20
19.7
  0
LWPOLYLINE
  5
93
100
AcDbEntity
  8
RPi4_PARTS_TOP
  6
ByLayer
 62
  256
370
   -1
100
AcDbPolyline
 90
    2
 70
    0
 43
0
 10
81.39999999999998
 20
8.100000000000001
 10
81.19999999999999
 20
8.100000000000001
  0
LWPOLYLINE
  5
94
100
AcDbEntity
  8
RPi4_PARTS_TOP
  6
ByLayer
 62
  256
370
   -1
100
AcDbPolyline
 90
    2
 70
    0
 43
0
 10
81.39999999999998
 20
8.799999999999997
 10
81.19999999999999
 20
8.799999999999997
  0
LWPOLYLINE
  5
95
100
AcDbEntity
  8
RPi4_PARTS_TOP
  6
ByLayer
 62
  256
370
   -1
100
AcDbPolyline
 90
   10
 70
    0
 43
0
 10
51.59999999999999
 20
56.83000000000001
 10
51.59999999999999
 20
49.48
 10
45.40000000000001
 20
49.48
 10
45.40000000000001
 20
56.83000000000001
 10
51.59999999999999
 20
56.83000000000001
 10
52.09999999999999
 20
57.33000000000001
 10
52.09999999999999
 20
57.43000000000001
 10
44.90000000000001
 20
57.43000000000001
 10
44.90000000000001
 20
57.33000000000001
 10
45.40000000000001
 20
56.83000000000001
  0
LWPOLYLINE
  5
96
100
AcDbEntity
  8
RPi4_PARTS_TOP
  6
ByLayer
 62
  256
370
   -1
100
AcDbPolyline
 90
   10
 70
    0
 43
0
 10
65.09999999999999
 20
56.83000000000001
 10
65.09999999999999
 20
49.48
 10
58.90000000000001
 20
49.48
 10
58.90000000000001
 20
56.83000000000001
 10
65.09999999999999
 20
56.83000000000001
 10
65.59999999999999
 20
57.33000000000001
 10
65.59999999999999
 20
57.43
 10
58.40000000000001
 20
57.43000000000001
 10
58.40000000000001
 20
57.33000000000001
 10
58.90000000000001
 20
56.83000000000001
  0
LWPOLYLINE
  5
97
100
AcDbEntity
  8
RPi4_PARTS_TOP
  6
ByLayer
 62
  256
370
   -1
100
AcDbPolyline
 90
    5
 70
    0
 43
0
 10
79.05000000000001
 20
7.649999999999999
 10
79.84999999999999
 20
7.649999999999999
 10
79.84999999999999
 20
9.25
 10
79.05000000000001
 20
9.25
 10
79.05000000000001
 20
7.649999999999999
  0
LWPOLYLINE
  5
98
100
AcDbEntity
  8
RPi4_PARTS_TOP
  6
ByLayer
 62
  256
370
   -1
100
AcDbPolyline
 90
    4
 70
    1
 43
0
 10
79.30000000000001
 20
9.149999999999999
 10
79.30000000000001
 20
8.850000000000001
 10
79.59999999999999
 20
8.850000000000001
 10
79.59999999999999
 20
9.149999999999999
  0
LWPOLYLINE
  5
99
100
AcDbEntity
  8
RPi4_PARTS_TOP
  6
ByLayer
 62
  256
370
   -1
100
AcDbPolyline
 90
    5
 70
    0
 43
0
 10
19.59999999999999
 20
38.7
 10
19.59999999999999
 20
37.50000000000001
 10
21.59999999999999
 20
37.50000000000001
 10
21.59999999999999
 20
38.7
 10
19.59999999999999
 20
38.7
  0
LWPOLYLINE
  5
9A
100
AcDbEntity
  8
RPi4_PARTS_TOP
  6
ByLayer
 62
  256
370
   -1
100
AcDbPolyline
 90
    2
 70
    0
 43
0
 10
20
 20
38.7
 10
20
 20
37.50000000000001
  0
LWPOLYLINE
  5
9B
100
AcDbEntity
  8
RPi4_PARTS_TOP
  6
ByLayer
 62
  256
370
   -1
100
AcDbPolyline
 90
    2
 70
    0
 43
0
 10
21.19999999999999
 20
38.7
 10
21.19999999999999
 20
37.50000000000001
  0
LWPOLYLINE
  5
9C
100
AcDbEntity
  8
RPi4_PARTS_TOP
  6
ByLayer
 62
  256
370
   -1
100
AcDbPolyline
 90
    5
 70
    0
 43
0
 10
36.59999999999999
 20
37.40000000000001
 10
33.59999999999999
 20
37.40000000000001
 10
33.59999999999999
 20
35.40000000000001
 10
36.59999999999999
 20
35.40000000000001
 10
36.59999999999999
 20
37.40000000000001
  0
LWPOLYLINE
  5
9D
100
AcDbEntity
  8
RPi4_PARTS_TOP
  6
ByLayer
 62
  256
370
   -1
100
AcDbPolyline
 90
    3
 70
    0
 43
0
 10
36.15860000000001
 20
35.7
 42
0.9999999999999999
 10
36.44140000000002
 20
35.7
 42
0.9999999999999999
 10
36.15860000000001
 20
35.7
 42
0.9999999999999999
  0
LWPOLYLINE
  5
9E
100
AcDbEntity
  8
RPi4_PARTS_TOP
  6
ByLayer
 62
  256
370
   -1
100
AcDbPolyline
 90
    5
 70
    0
 43
0
 10
37.5
 20
39.10000000000001
 10
37.5
 20
42.10000000000001
 10
35.5
 20
42.10000000000001
 10
35.5
 20
39.10000000000001
 10
37.5
 20
39.10000000000001
  0
LWPOLYLINE
  5
9F
100
AcDbEntity
  8
RPi4_PARTS_TOP
  6
ByLayer
 62
  256
370
   -1
100
AcDbPolyline
 90
    3
 70
    0
 43
0
 10
35.65860000000001
 20
39.40000000000001
 42
0.9999999999999999
 10
35.94140000000002
 20
39.40000000000001
 42
0.9999999999999999
 10
35.65860000000001
 20
39.40000000000001
 42
0.9999999999999999
  0
LWPOLYLINE
  5
A0
100
AcDbEntity
  8
RPi4_PARTS_TOP
  6
ByLayer
 62
  256
370
   -1
100
AcDbPolyline
 90
    4
 70
    0
 43
0
 10
48.94999999999999
 20
16.00000000000001
 10
48.94999999999999
 20
16.40000000000001
 10
48.54999999999998
 20
16.00000000000001
 10
48.94999999999999
 20
16.00000000000001
  0
LWPOLYLINE
  5
A1
100
AcDbEntity
  8
RPi4_PARTS_TOP
  6
ByLayer
 62
  256
370
   -1
100
AcDbPolyline
 90
    5
 70
    0
 43
0
 10
48.94999999999999
 20
31
 10
37.44999999999999
 20
31.00000000000001
 10
37.44999999999999
 20
16.00000000000001
 10
48.94999999999999
 20
16.00000000000001
 10
48.94999999999999
 20
31
  0
LWPOLYLINE
  5
A2
100
AcDbEntity
  8
RPi4_PARTS_TOP
  6
ByLayer
 62
  256
370
   -1
100
AcDbPolyline
 90
    5
 70
    0
 43
0
 10
19.59999999999999
 20
40.70000000000001
 10
19.59999999999999
 20
39.50000000000001
 10
21.59999999999999
 20
39.50000000000001
 10
21.59999999999999
 20
40.70000000000001
 10
19.59999999999999
 20
40.70000000000001
  0
LWPOLYLINE
  5
A3
100
AcDbEntity
  8
RPi4_PARTS_TOP
  6
ByLayer
 62
  256
370
   -1
100
AcDbPolyline
 90
    2
 70
    0
 43
0
 10
20
 20
40.70000000000001
 10
20
 20
39.50000000000001
  0
LWPOLYLINE
  5
A4
100
AcDbEntity
  8
RPi4_PARTS_TOP
  6
ByLayer
 62
  256
370
   -1
100
AcDbPolyline
 90
    2
 70
    0
 43
0
 10
21.19999999999999
 20
40.70000000000001
 10
21.19999999999999
 20
39.50000000000001
  0
LWPOLYLINE
  5
A5
100
AcDbEntity
  8
RPi4_PARTS_TOP
  6
ByLayer
 62
  256
370
   -1
100
AcDbPolyline
 90
    5
 70
    0
 43
0
 10
84.19999999999999
 20
39.7
 10
85.39999999999998
 20
39.7
 10
85.39999999999998
 20
41.7
 10
84.19999999999999
 20
41.7
 10
84.19999999999999
 20
39.7
  0
LWPOLYLINE
  5
A6
100
AcDbEntity
  8
RPi4_PARTS_TOP
  6
ByLayer
 62
  256
370
   -1
100
AcDbPolyline
 90
    2
 70
    0
 43
0
 10
84.19999999999999
 20
40.1
 10
85.39999999999998
 20
40.1
  0
LWPOLYLINE
  5
A7
100
AcDbEntity
  8
RPi4_PARTS_TOP
  6
ByLayer
 62
  256
370
   -1
100
AcDbPolyline
 90
    2
 70
    0
 43
0
 10
84.19999999999999
 20
41.3
 10
85.39999999999998
 20
41.3
  0
LWPOLYLINE
  5
A8
100
AcDbEntity
  8
RPi4_PARTS_TOP
  6
ByLayer
 62
  256
370
   -1
100
AcDbPolyline
 90
    4
 70
    0
 43
0
 10
81.125
 20
57.25
 10
72.47499999999999
 20
57.25
 10
72.47499999999999
 20
49.85
 10
81.125
 20
49.85
  0
LWPOLYLINE
  5
A9
100
AcDbEntity
  8
RPi4_PARTS_TOP
  6
ByLayer
 62
  256
370
   -1
100
AcDbPolyline
 90
    2
 70
    0
 43
0
 10
81.125
 20
49.85
 10
81.125
 20
57.25
  0
LWPOLYLINE
  5
AA
100
AcDbEntity
  8
RPi4_PARTS_TOP
  6
ByLayer
 62
  256
370
   -1
100
AcDbPolyline
 90
    9
 70
    0
 43
0
 10
75.09999999999999
 20
40.90000000000001
 10
75.09999999999999
 20
38.9
 10
74.09999999999999
 20
37.9
 10
72.09999999999999
 20
37.90000000000001
 10
71.09999999999999
 20
38.90000000000001
 10
71.09999999999999
 20
40.90000000000001
 10
72.09999999999999
 20
41.90000000000001
 10
74.09999999999999
 20
41.90000000000001
 10
75.09999999999999
 20
40.90000000000001
  0
LWPOLYLINE
  5
AB
100
AcDbEntity
  8
RPi4_PARTS_TOP
  6
ByLayer
 62
  256
370
   -1
100
AcDbPolyline
 90
    5
 70
    0
 43
0
 10
18.15000000000001
 20
26.25000000000001
 10
18.15000000000001
 20
18.95000000000001
 10
22.44999999999999
 20
18.95000000000001
 10
22.44999999999999
 20
26.25000000000001
 10
18.15000000000001
 20
26.25000000000001
  0
LWPOLYLINE
  5
AC
100
AcDbEntity
  8
RPi4_PARTS_TOP
  6
ByLayer
 62
  256
370
   -1
100
AcDbPolyline
 90
    4
 70
    0
 43
0
 10
19.09999999999999
 20
26.25000000000001
 10
19.09999999999999
 20
24.95000000000001
 10
21.5
 20
24.95000000000001
 10
21.5
 20
26.25000000000001
  0
LWPOLYLINE
  5
AD
100
AcDbEntity
  8
RPi4_PARTS_TOP
  6
ByLayer
 62
  256
370
   -1
100
AcDbPolyline
 90
    4
 70
    0
 43
0
 10
19.09999999999999
 20
18.95000000000001
 10
19.09999999999999
 20
20.25000000000001
 10
21.5
 20
20.25000000000001
 10
21.5
 20
18.95000000000001
  0
LWPOLYLINE
  5
AE
100
AcDbEntity
  8
RPi4_PARTS_TOP
  6
ByLayer
 62
  256
370
   -1
100
AcDbPolyline
 90
    2
 70
    0
 43
0
 10
22.15000000000001
 20
25.75000000000001
 10
21.80000000000001
 20
25.75000000000001
  0
LWPOLYLINE
  5
AF
100
AcDbEntity
  8
RPi4_PARTS_TOP
  6
ByLayer
 62
  256
370
   -1
100
AcDbPolyline
 90
    2
 70
    0
 43
0
 10
22
 20
25.95000000000001
 10
22
 20
25.55000000000001
  0
LWPOLYLINE
  5
B0
100
AcDbEntity
  8
RPi4_PARTS_TOP
  6
ByLayer
 62
  256
370
   -1
100
AcDbPolyline
 90
    2
 70
    0
 43
0
 10
22.15000000000001
 20
25.75000000000001
 10
22.19999999999999
 20
25.75000000000001
  0
LWPOLYLINE
  5
B1
100
AcDbEntity
  8
RPi4_PARTS_TOP
  6
ByLayer
 62
  256
370
   -1
100
AcDbPolyline
 90
    4
 70
    1
 43
0
 10
22.44999999999999
 20
25.25000000000001
 10
18.15000000000001
 20
25.25000000000001
 10
18.15000000000001
 20
24.55000000000001
 10
22.44999999999999
 20
24.55000000000001
  0
LWPOLYLINE
  5
B2
100
AcDbEntity
  8
RPi4_PARTS_TOP
  6
ByLayer
 62
  256
370
   -1
100
AcDbPolyline
 90
    5
 70
    0
 43
0
 10
0
 20
18.00500000000002
 10
0
 20
2.495000000000012
 10
21.34999999999999
 20
2.495000000000005
 10
21.34999999999999
 20
18.00500000000001
 10
0
 20
18.00500000000002
  0
LWPOLYLINE
  5
B3
100
AcDbEntity
  8
RPi4_PARTS_TOP
  6
ByLayer
 62
  256
370
   -1
100
AcDbPolyline
 90
    9
 70
    0
 43
0
 10
42.94999999999999
 20
55.7
 10
40.09999999999999
 20
55.7
 10
40.09999999999999
 20
52.3
 10
39
 20
51.2
 10
39
 20
37.80000000000001
 10
40.15000000000001
 20
36.65000000000001
 10
40.15000000000001
 20
33.30000000000001
 10
42.94999999999999
 20
33.30000000000001
 10
42.94999999999999
 20
55.7
  0
LWPOLYLINE
  5
B4
100
AcDbEntity
  8
RPi4_PARTS_TOP
  6
ByLayer
 62
  256
370
   -1
100
AcDbPolyline
 90
    4
 70
    0
 43
0
 10
42.94999999999999
 20
52.50000000000001
 10
42.05000000000001
 20
52.50000000000001
 10
42.05000000000001
 20
36.50000000000001
 10
42.94999999999999
 20
36.50000000000001
  0
LWPOLYLINE
  5
B5
100
AcDbEntity
  8
RPi4_PARTS_TOP
  6
ByLayer
 62
  256
370
   -1
100
AcDbPolyline
 90
    9
 70
    0
 43
0
 10
82.55000000000001
 20
16.8
 10
85.39999999999998
 20
16.8
 10
85.39999999999998
 20
20.2
 10
86.5
 20
21.3
 10
86.5
 20
34.7
 10
85.34999999999999
 20
35.85
 10
85.34999999999999
 20
39.2
 10
82.55000000000001
 20
39.2
 10
82.55000000000001
 20
16.8
  0
LWPOLYLINE
  5
B6
100
AcDbEntity
  8
RPi4_PARTS_TOP
  6
ByLayer
 62
  256
370
   -1
100
AcDbPolyline
 90
    4
 70
    0
 43
0
 10
82.55000000000001
 20
20
 10
83.44999999999999
 20
20
 10
83.44999999999999
 20
36
 10
82.55000000000001
 20
36
  0
LWPOLYLINE
  5
B7
100
AcDbEntity
  8
RPi4_PARTS_TOP
  6
ByLayer
 62
  256
370
   -1
100
AcDbPolyline
 90
    5
 70
    0
 43
0
 10
37.5
 20
56.00000000000001
 10
30.5
 20
56.00000000000001
 10
30.5
 20
43.50000000000001
 10
37.5
 20
43.50000000000001
 10
37.5
 20
56.00000000000001
  0
LWPOLYLINE
  5
B8
100
AcDbEntity
  8
RPi4_PARTS_TOP
  6
ByLayer
 62
  256
370
   -1
100
AcDbPolyline
 90
    5
 70
    0
 43
0
 10
37
 20
58.50000000000001
 10
31
 20
58.50000000000001
 10
31
 20
56.00000000000001
 10
37
 20
56.00000000000001
 10
37
 20
58.50000000000001
  0
LWPOLYLINE
  5
B9
100
AcDbEntity
  8
RPi4_PARTS_TOP
  6
ByLayer
 62
  256
370
   -1
100
AcDbPolyline
 90
    6
 70
    0
 43
0
 10
28.09999999999999
 20
37.60000000000001
 10
28.09999999999999
 20
40.00000000000001
 10
24.90000000000001
 20
40.00000000000001
 10
24.90000000000001
 20
37.60000000000001
 10
28.09999999999999
 20
37.60000000000001
 10
28.09999999999999
 20
37.7
  0
LWPOLYLINE
  5
BA
100
AcDbEntity
  8
RPi4_PARTS_TOP
  6
ByLayer
 62
  256
370
   -1
100
AcDbPolyline
 90
    5
 70
    0
 43
0
 10
28
 20
37.7
 10
25
 20
37.7
 10
25
 20
39.90000000000001
 10
28
 20
39.90000000000001
 10
28
 20
37.7
  0
LWPOLYLINE
  5
BB
100
AcDbEntity
  8
RPi4_PARTS_TOP
  6
ByLayer
 62
  256
370
   -1
100
AcDbPolyline
 90
    2
 70
    1
 43
0
 10
27.55859999999998
 20
39.60000000000001
 42
0.9999999999999999
 10
27.84139999999999
 20
39.60000000000001
 42
0.9999999999999999
  0
LWPOLYLINE
  5
BC
100
AcDbEntity
  8
RPi4_PARTS_TOP
  6
ByLayer
 62
  256
370
   -1
100
AcDbPolyline
 90
    5
 70
    0
 43
0
 10
85.30000000000001
 20
8.75
 10
85.30000000000001
 20
6.149999999999999
 10
87.89999999999998
 20
6.149999999999999
 10
87.89999999999998
 20
8.75
 10
85.30000000000001
 20
8.75
  0
LWPOLYLINE
  5
BD
100
AcDbEntity
  8
RPi4_PARTS_TOP
  6
ByLayer
 62
  256
370
   -1
100
AcDbPolyline
 90
    4
 70
    0
 43
0
 10
85.30000000000001
 20
7.149999999999999
 10
85
 20
7.149999999999999
 10
85
 20
7.75
 10
85.30000000000001
 20
7.75
  0
LWPOLYLINE
  5
BE
100
AcDbEntity
  8
RPi4_PARTS_TOP
  6
ByLayer
 62
  256
370
   -1
100
AcDbPolyline
 90
    3
 70
    0
 43
0
 10
85.678
 20
7.450000000000003
 42
0.9999999999999999
 10
87.52199999999999
 20
7.450000000000003
 42
0.9999999999999999
 10
85.678
 20
7.450000000000003
 42
0.9999999999999999
  0
LWPOLYLINE
  5
BF
100
AcDbEntity
  8
RPi4_PARTS_TOP
  6
ByLayer
 62
  256
370
   -1
100
AcDbPolyline
 90
    3
 70
    0
 43
0
 10
86.39999999999999
 20
7.450000000000003
 42
0.9999999999999999
 10
86.8
 20
7.450000000000003
 42
0.9999999999999999
 10
86.39999999999999
 20
7.450000000000003
 42
0.9999999999999999
  0
LWPOLYLINE
  5
C0
100
AcDbEntity
  8
RPi4_PARTS_TOP
  6
ByLayer
 62
  256
370
   -1
100
AcDbPolyline
 90
    4
 70
    0
 43
0
 10
85.69999999999999
 20
8.75
 10
85.69999999999999
 20
8.950000000000003
 10
87.5
 20
8.950000000000003
 10
87.5
 20
8.75
  0
LWPOLYLINE
  5
C1
100
AcDbEntity
  8
RPi4_PARTS_TOP
  6
ByLayer
 62
  256
370
   -1
100
AcDbPolyline
 90
    4
 70
    0
 43
0
 10
87.5
 20
6.149999999999999
 10
87.5
 20
5.950000000000003
 10
85.69999999999999
 20
5.950000000000003
 10
85.69999999999999
 20
6.149999999999999
  0
LWPOLYLINE
  5
C2
100
AcDbEntity
  8
RPi4_PARTS_TOP
  6
ByLayer
 62
  256
370
   -1
100
AcDbPolyline
 90
    2
 70
    0
 43
0
 10
78.94999999999999
 20
12.8
 10
78.94999999999999
 20
13.1
  0
LWPOLYLINE
  5
C3
100
AcDbEntity
  8
RPi4_PARTS_TOP
  6
ByLayer
 62
  256
370
   -1
100
AcDbPolyline
 90
    2
 70
    0
 43
0
 10
79.34999999999999
 20
13.1
 10
79.34999999999999
 20
12.8
  0
LWPOLYLINE
  5
C4
100
AcDbEntity
  8
RPi4_PARTS_TOP
  6
ByLayer
 62
  256
370
   -1
100
AcDbPolyline
 90
    5
 70
    0
 43
0
 10
79.44999999999999
 20
13.1
 10
78.84999999999999
 20
13.1
 10
78.84999999999999
 20
12.8
 10
79.44999999999999
 20
12.8
 10
79.44999999999999
 20
13.1
  0
LWPOLYLINE
  5
C5
100
AcDbEntity
  8
RPi4_PARTS_TOP
  6
ByLayer
 62
  256
370
   -1
100
AcDbPolyline
 90
    2
 70
    1
 43
0
 10
79.2
 20
12.95
 42
0.9999999999999999
 10
79.3
 20
12.95
 42
0.9999999999999999
  0
LWPOLYLINE
  5
C6
100
AcDbEntity
  8
RPi4_PARTS_TOP
  6
ByLayer
 62
  256
370
   -1
100
AcDbPolyline
 90
    2
 70
    0
 43
0
 10
78.44999999999999
 20
12.2
 10
78.44999999999999
 20
12.5
  0
LWPOLYLINE
  5
C7
100
AcDbEntity
  8
RPi4_PARTS_TOP
  6
ByLayer
 62
  256
370
   -1
100
AcDbPolyline
 90
    2
 70
    0
 43
0
 10
78.84999999999999
 20
12.5
 10
78.84999999999999
 20
12.2
  0
LWPOLYLINE
  5
C8
100
AcDbEntity
  8
RPi4_PARTS_TOP
  6
ByLayer
 62
  256
370
   -1
100
AcDbPolyline
 90
    5
 70
    0
 43
0
 10
78.94999999999999
 20
12.5
 10
78.34999999999999
 20
12.5
 10
78.34999999999999
 20
12.2
 10
78.94999999999999
 20
12.2
 10
78.94999999999999
 20
12.5
  0
LWPOLYLINE
  5
C9
100
AcDbEntity
  8
RPi4_PARTS_TOP
  6
ByLayer
 62
  256
370
   -1
100
AcDbPolyline
 90
    2
 70
    1
 43
0
 10
78.7
 20
12.35
 42
0.9999999999999999
 10
78.8
 20
12.35
 42
0.9999999999999999
  0
LWPOLYLINE
  5
CA
100
AcDbEntity
  8
RPi4_PARTS_TOP
  6
ByLayer
 62
  256
370
   -1
100
AcDbPolyline
 90
    2
 70
    0
 43
0
 10
79.30000000000001
 20
12.3
 10
79.59999999999999
 20
12.3
  0
LWPOLYLINE
  5
CB
100
AcDbEntity
  8
RPi4_PARTS_TOP
  6
ByLayer
 62
  256
370
   -1
100
AcDbPolyline
 90
    2
 70
    0
 43
0
 10
79.59999999999999
 20
11.9
 10
79.30000000000001
 20
11.9
  0
LWPOLYLINE
  5
CC
100
AcDbEntity
  8
RPi4_PARTS_TOP
  6
ByLayer
 62
  256
370
   -1
100
AcDbPolyline
 90
    5
 70
    0
 43
0
 10
79.59999999999999
 20
11.8
 10
79.59999999999999
 20
12.4
 10
79.30000000000001
 20
12.4
 10
79.30000000000001
 20
11.8
 10
79.59999999999999
 20
11.8
  0
LWPOLYLINE
  5
CD
100
AcDbEntity
  8
RPi4_PARTS_TOP
  6
ByLayer
 62
  256
370
   -1
100
AcDbPolyline
 90
    2
 70
    1
 43
0
 10
79.39999999999999
 20
12
 42
0.9999999999999999
 10
79.49999999999999
 20
12
 42
0.9999999999999999
  0
LWPOLYLINE
  5
CE
100
AcDbEntity
  8
RPi4_PARTS_TOP
  6
ByLayer
 62
  256
370
   -1
100
AcDbPolyline
 90
    2
 70
    0
 43
0
 10
76.05000000000001
 20
11.25
 10
76.34999999999999
 20
11.25
  0
LWPOLYLINE
  5
CF
100
AcDbEntity
  8
RPi4_PARTS_TOP
  6
ByLayer
 62
  256
370
   -1
100
AcDbPolyline
 90
    2
 70
    0
 43
0
 10
76.34999999999999
 20
10.85
 10
76.05000000000001
 20
10.85
  0
LWPOLYLINE
  5
D0
100
AcDbEntity
  8
RPi4_PARTS_TOP
  6
ByLayer
 62
  256
370
   -1
100
AcDbPolyline
 90
    5
 70
    0
 43
0
 10
76.34999999999999
 20
10.75
 10
76.34999999999999
 20
11.35
 10
76.05000000000001
 20
11.35
 10
76.05000000000001
 20
10.75
 10
76.34999999999999
 20
10.75
  0
LWPOLYLINE
  5
D1
100
AcDbEntity
  8
RPi4_PARTS_TOP
  6
ByLayer
 62
  256
370
   -1
100
AcDbPolyline
 90
    2
 70
    1
 43
0
 10
76.14999999999999
 20
10.95
 42
0.9999999999999999
 10
76.24999999999999
 20
10.95
 42
0.9999999999999999
  0
LWPOLYLINE
  5
D2
100
AcDbEntity
  8
RPi4_PARTS_TOP
  6
ByLayer
 62
  256
370
   -1
100
AcDbPolyline
 90
    5
 70
    0
 43
0
 10
80.44999999999999
 20
17.65
 10
79.14999999999998
 20
17.65
 10
79.14999999999998
 20
15.95
 10
80.44999999999999
 20
15.95
 10
80.44999999999999
 20
17.65
  0
LWPOLYLINE
  5
D3
100
AcDbEntity
  8
RPi4_PARTS_TOP
  6
ByLayer
 62
  256
370
   -1
100
AcDbPolyline
 90
    2
 70
    1
 43
0
 10
79.94999999999997
 20
16.3
 42
0.9999999999999999
 10
80.34999999999998
 20
16.3
 42
0.9999999999999999
  0
LWPOLYLINE
  5
D4
100
AcDbEntity
  8
RPi4_PARTS_TOP
  6
ByLayer
 62
  256
370
   -1
100
AcDbPolyline
 90
    6
 70
    0
 43
0
 10
79.84999999999999
 20
9.825000000000003
 10
79.72499999999999
 20
9.700000000000003
 10
78.75
 20
9.700000000000003
 10
78.75
 20
10.8
 10
79.84999999999999
 20
10.8
 10
79.84999999999999
 20
9.825000000000003
  0
LWPOLYLINE
  5
D5
100
AcDbEntity
  8
RPi4_PARTS_TOP
  6
ByLayer
 62
  256
370
   -1
100
AcDbPolyline
 90
    7
 70
    0
 43
0
 10
0
 20
53.57000000000001
 10
17.69999999999999
 20
53.57000000000001
 10
17.69999999999999
 20
40.43000000000001
 10
0
 20
40.43000000000001
 10
0
 20
54.35000000000001
 10
0.5
 20
54.35000000000001
 10
0.5
 20
53.57000000000001
  0
LWPOLYLINE
  5
D6
100
AcDbEntity
  8
RPi4_PARTS_TOP
  6
ByLayer
 62
  256
370
   -1
100
AcDbPolyline
 90
    4
 70
    0
 43
0
 10
0
 20
40.43000000000001
 10
0
 20
39.65000000000001
 10
0.5
 20
39.65000000000001
 10
0.5
 20
40.43000000000001
  0
LWPOLYLINE
  5
D7
100
AcDbEntity
  8
RPi4_PARTS_TOP
  6
ByLayer
 62
  256
370
   -1
100
AcDbPolyline
 90
    5
 70
    0
 43
0
 10
72.19999999999999
 20
36.5
 10
79.80000000000001
 20
36.5
 10
79.80000000000001
 20
34.5
 10
72.19999999999999
 20
34.5
 10
72.19999999999999
 20
36.5
  0
LWPOLYLINE
  5
D8
100
AcDbEntity
  8
RPi4_PARTS_TOP
  6
ByLayer
 62
  256
370
   -1
100
AcDbPolyline
 90
    5
 70
    0
 43
0
 10
25.30000000000001
 20
41.25000000000001
 10
25.30000000000001
 20
41.75000000000001
 10
24.30000000000001
 20
41.75000000000001
 10
24.30000000000001
 20
41.25000000000001
 10
25.30000000000001
 20
41.25000000000001
  0
LWPOLYLINE
  5
D9
100
AcDbEntity
  8
RPi4_PARTS_TOP
  6
ByLayer
 62
  256
370
   -1
100
AcDbPolyline
 90
    2
 70
    0
 43
0
 10
25.05000000000001
 20
41.75000000000001
 10
25.05000000000001
 20
41.25000000000001
  0
LWPOLYLINE
  5
DA
100
AcDbEntity
  8
RPi4_PARTS_TOP
  6
ByLayer
 62
  256
370
   -1
100
AcDbPolyline
 90
    2
 70
    0
 43
0
 10
24.55000000000001
 20
41.75000000000001
 10
24.55000000000001
 20
41.25000000000001
  0
LWPOLYLINE
  5
DB
100
AcDbEntity
  8
RPi4_PARTS_TOP
  6
ByLayer
 62
  256
370
   -1
100
AcDbPolyline
 90
    5
 70
    0
 43
0
 10
49.29999999999998
 20
12.75000000000001
 10
49.29999999999998
 20
13.25000000000001
 10
48.29999999999998
 20
13.25000000000001
 10
48.29999999999998
 20
12.75000000000001
 10
49.29999999999998
 20
12.75000000000001
  0
LWPOLYLINE
  5
DC
100
AcDbEntity
  8
RPi4_PARTS_TOP
  6
ByLayer
 62
  256
370
   -1
100
AcDbPolyline
 90
    2
 70
    0
 43
0
 10
49.04999999999998
 20
13.25000000000001
 10
49.04999999999998
 20
12.75000000000001
  0
LWPOLYLINE
  5
DD
100
AcDbEntity
  8
RPi4_PARTS_TOP
  6
ByLayer
 62
  256
370
   -1
100
AcDbPolyline
 90
    2
 70
    0
 43
0
 10
48.54999999999998
 20
13.25000000000001
 10
48.54999999999998
 20
12.75000000000001
  0
LWPOLYLINE
  5
DE
100
AcDbEntity
  8
RPi4_PARTS_TOP
  6
ByLayer
 62
  256
370
   -1
100
AcDbPolyline
 90
    5
 70
    0
 43
0
 10
35.59999999999999
 20
37.85000000000001
 10
35.59999999999999
 20
38.35000000000001
 10
34.59999999999999
 20
38.35000000000001
 10
34.59999999999999
 20
37.85000000000001
 10
35.59999999999999
 20
37.85000000000001
  0
LWPOLYLINE
  5
DF
100
AcDbEntity
  8
RPi4_PARTS_TOP
  6
ByLayer
 62
  256
370
   -1
100
AcDbPolyline
 90
    2
 70
    0
 43
0
 10
35.34999999999999
 20
38.35000000000001
 10
35.34999999999999
 20
37.85000000000001
  0
LWPOLYLINE
  5
E0
100
AcDbEntity
  8
RPi4_PARTS_TOP
  6
ByLayer
 62
  256
370
   -1
100
AcDbPolyline
 90
    2
 70
    0
 43
0
 10
34.84999999999999
 20
38.35000000000001
 10
34.84999999999999
 20
37.85000000000001
  0
LWPOLYLINE
  5
E1
100
AcDbEntity
  8
RPi4_PARTS_TOP
  6
ByLayer
 62
  256
370
   -1
100
AcDbPolyline
 90
    5
 70
    0
 43
0
 10
31.54999999999998
 20
23.40000000000001
 10
31.04999999999998
 20
23.40000000000001
 10
31.04999999999998
 20
22.40000000000001
 10
31.54999999999998
 20
22.40000000000001
 10
31.54999999999998
 20
23.40000000000001
  0
LWPOLYLINE
  5
E2
100
AcDbEntity
  8
RPi4_PARTS_TOP
  6
ByLayer
 62
  256
370
   -1
100
AcDbPolyline
 90
    2
 70
    0
 43
0
 10
31.04999999999998
 20
23.15000000000001
 10
31.54999999999998
 20
23.15000000000001
  0
LWPOLYLINE
  5
E3
100
AcDbEntity
  8
RPi4_PARTS_TOP
  6
ByLayer
 62
  256
370
   -1
100
AcDbPolyline
 90
    2
 70
    0
 43
0
 10
31.04999999999998
 20
22.65000000000001
 10
31.54999999999998
 20
22.65000000000001
  0
LWPOLYLINE
  5
E4
100
AcDbEntity
  8
RPi4_PARTS_TOP
  6
ByLayer
 62
  256
370
   -1
100
AcDbPolyline
 90
    5
 70
    0
 43
0
 10
77.59999999999999
 20
47.75
 10
77.59999999999999
 20
48.25
 10
76.59999999999999
 20
48.25
 10
76.59999999999999
 20
47.75
 10
77.59999999999999
 20
47.75
  0
LWPOLYLINE
  5
E5
100
AcDbEntity
  8
RPi4_PARTS_TOP
  6
ByLayer
 62
  256
370
   -1
100
AcDbPolyline
 90
    2
 70
    0
 43
0
 10
77.34999999999999
 20
48.25
 10
77.34999999999999
 20
47.75
  0
LWPOLYLINE
  5
E6
100
AcDbEntity
  8
RPi4_PARTS_TOP
  6
ByLayer
 62
  256
370
   -1
100
AcDbPolyline
 90
    2
 70
    0
 43
0
 10
76.84999999999999
 20
48.25
 10
76.84999999999999
 20
47.75
  0
LWPOLYLINE
  5
E7
100
AcDbEntity
  8
RPi4_PARTS_TOP
  6
ByLayer
 62
  256
370
   -1
100
AcDbPolyline
 90
    5
 70
    0
 43
0
 10
79.5
 20
47.75
 10
79.5
 20
48.25
 10
78.5
 20
48.25
 10
78.5
 20
47.75
 10
79.5
 20
47.75
  0
LWPOLYLINE
  5
E8
100
AcDbEntity
  8
RPi4_PARTS_TOP
  6
ByLayer
 62
  256
370
   -1
100
AcDbPolyline
 90
    2
 70
    0
 43
0
 10
79.25
 20
48.25
 10
79.25
 20
47.75
  0
LWPOLYLINE
  5
E9
100
AcDbEntity
  8
RPi4_PARTS_TOP
  6
ByLayer
 62
  256
370
   -1
100
AcDbPolyline
 90
    2
 70
    0
 43
0
 10
78.75
 20
48.25
 10
78.75
 20
47.75
  0
LWPOLYLINE
  5
EA
100
AcDbEntity
  8
RPi4_PARTS_TOP
  6
ByLayer
 62
  256
370
   -1
100
AcDbPolyline
 90
    5
 70
    0
 43
0
 10
20.09999999999999
 20
36.75000000000001
 10
20.09999999999999
 20
36.25000000000001
 10
21.09999999999999
 20
36.25000000000001
 10
21.09999999999999
 20
36.75000000000001
 10
20.09999999999999
 20
36.75000000000001
  0
LWPOLYLINE
  5
EB
100
AcDbEntity
  8
RPi4_PARTS_TOP
  6
ByLayer
 62
  256
370
   -1
100
AcDbPolyline
 90
    2
 70
    0
 43
0
 10
20.34999999999999
 20
36.25000000000001
 10
20.34999999999999
 20
36.75000000000001
  0
LWPOLYLINE
  5
EC
100
AcDbEntity
  8
RPi4_PARTS_TOP
  6
ByLayer
 62
  256
370
   -1
100
AcDbPolyline
 90
    2
 70
    0
 43
0
 10
20.84999999999999
 20
36.25000000000001
 10
20.84999999999999
 20
36.75000000000001
  0
LWPOLYLINE
  5
ED
100
AcDbEntity
  8
RPi4_PARTS_TOP
  6
ByLayer
 62
  256
370
   -1
100
AcDbPolyline
 90
    5
 70
    0
 43
0
 10
21.25
 20
53.60000000000001
 10
20.75
 20
53.60000000000001
 10
20.75
 20
52.60000000000001
 10
21.25
 20
52.60000000000001
 10
21.25
 20
53.60000000000001
  0
LWPOLYLINE
  5
EE
100
AcDbEntity
  8
RPi4_PARTS_TOP
  6
ByLayer
 62
  256
370
   -1
100
AcDbPolyline
 90
    2
 70
    0
 43
0
 10
20.75
 20
53.35000000000001
 10
21.25
 20
53.35000000000001
  0
LWPOLYLINE
  5
EF
100
AcDbEntity
  8
RPi4_PARTS_TOP
  6
ByLayer
 62
  256
370
   -1
100
AcDbPolyline
 90
    2
 70
    0
 43
0
 10
20.75
 20
52.85000000000001
 10
21.25
 20
52.85000000000001
  0
LWPOLYLINE
  5
F0
100
AcDbEntity
  8
RPi4_PARTS_TOP
  6
ByLayer
 62
  256
370
   -1
100
AcDbPolyline
 90
    5
 70
    0
 43
0
 10
18.75
 20
52.60000000000001
 10
19.25
 20
52.60000000000001
 10
19.25
 20
53.60000000000001
 10
18.75
 20
53.60000000000001
 10
18.75
 20
52.60000000000001
  0
LWPOLYLINE
  5
F1
100
AcDbEntity
  8
RPi4_PARTS_TOP
  6
ByLayer
 62
  256
370
   -1
100
AcDbPolyline
 90
    2
 70
    0
 43
0
 10
19.25
 20
52.85000000000001
 10
18.75
 20
52.85000000000001
  0
LWPOLYLINE
  5
F2
100
AcDbEntity
  8
RPi4_PARTS_TOP
  6
ByLayer
 62
  256
370
   -1
100
AcDbPolyline
 90
    2
 70
    0
 43
0
 10
19.25
 20
53.35000000000001
 10
18.75
 20
53.35000000000001
  0
LWPOLYLINE
  5
F3
100
AcDbEntity
  8
RPi4_PARTS_TOP
  6
ByLayer
 62
  256
370
   -1
100
AcDbPolyline
 90
    5
 70
    0
 43
0
 10
20.25
 20
53.60000000000001
 10
19.75
 20
53.60000000000001
 10
19.75
 20
52.60000000000001
 10
20.25
 20
52.60000000000001
 10
20.25
 20
53.60000000000001
  0
LWPOLYLINE
  5
F4
100
AcDbEntity
  8
RPi4_PARTS_TOP
  6
ByLayer
 62
  256
370
   -1
100
AcDbPolyline
 90
    2
 70
    0
 43
0
 10
19.75
 20
53.35000000000001
 10
20.25
 20
53.35000000000001
  0
LWPOLYLINE
  5
F5
100
AcDbEntity
  8
RPi4_PARTS_TOP
  6
ByLayer
 62
  256
370
   -1
100
AcDbPolyline
 90
    2
 70
    0
 43
0
 10
19.75
 20
52.85000000000001
 10
20.25
 20
52.85000000000001
  0
LWPOLYLINE
  5
F6
100
AcDbEntity
  8
RPi4_PARTS_TOP
  6
ByLayer
 62
  256
370
   -1
100
AcDbPolyline
 90
    5
 70
    0
 43
0
 10
30.55000000000001
 20
39.30000000000001
 10
31.05000000000001
 20
39.30000000000001
 10
31.05000000000001
 20
40.30000000000001
 10
30.55000000000001
 20
40.30000000000001
 10
30.55000000000001
 20
39.30000000000001
  0
LWPOLYLINE
  5
F7
100
AcDbEntity
  8
RPi4_PARTS_TOP
  6
ByLayer
 62
  256
370
   -1
100
AcDbPolyline
 90
    2
 70
    0
 43
0
 10
31.05000000000001
 20
39.55000000000001
 10
30.55000000000001
 20
39.55000000000001
  0
LWPOLYLINE
  5
F8
100
AcDbEntity
  8
RPi4_PARTS_TOP
  6
ByLayer
 62
  256
370
   -1
100
AcDbPolyline
 90
    2
 70
    0
 43
0
 10
31.05000000000001
 20
40.05000000000001
 10
30.55000000000001
 20
40.05000000000001
  0
LWPOLYLINE
  5
F9
100
AcDbEntity
  8
RPi4_PARTS_TOP
  6
ByLayer
 62
  256
370
   -1
100
AcDbPolyline
 90
    5
 70
    0
 43
0
 10
30.55000000000001
 20
41.2
 10
31.05000000000001
 20
41.2
 10
31.05000000000001
 20
42.2
 10
30.55000000000001
 20
42.2
 10
30.55000000000001
 20
41.2
  0
LWPOLYLINE
  5
FA
100
AcDbEntity
  8
RPi4_PARTS_TOP
  6
ByLayer
 62
  256
370
   -1
100
AcDbPolyline
 90
    2
 70
    0
 43
0
 10
31.05000000000001
 20
41.45
 10
30.55000000000001
 20
41.45
  0
LWPOLYLINE
  5
FB
100
AcDbEntity
  8
RPi4_PARTS_TOP
  6
ByLayer
 62
  256
370
   -1
100
AcDbPolyline
 90
    2
 70
    0
 43
0
 10
31.05000000000001
 20
41.95
 10
30.55000000000001
 20
41.95
  0
LWPOLYLINE
  5
FC
100
AcDbEntity
  8
RPi4_PARTS_TOP
  6
ByLayer
 62
  256
370
   -1
100
AcDbPolyline
 90
    5
 70
    0
 43
0
 10
25.94999999999999
 20
48.50000000000001
 10
25.44999999999999
 20
48.50000000000001
 10
25.44999999999999
 20
47.50000000000001
 10
25.94999999999999
 20
47.50000000000001
 10
25.94999999999999
 20
48.50000000000001
  0
LWPOLYLINE
  5
FD
100
AcDbEntity
  8
RPi4_PARTS_TOP
  6
ByLayer
 62
  256
370
   -1
100
AcDbPolyline
 90
    2
 70
    0
 43
0
 10
25.44999999999999
 20
48.25000000000001
 10
25.94999999999999
 20
48.25000000000001
  0
LWPOLYLINE
  5
FE
100
AcDbEntity
  8
RPi4_PARTS_TOP
  6
ByLayer
 62
  256
370
   -1
100
AcDbPolyline
 90
    2
 70
    0
 43
0
 10
25.44999999999999
 20
47.75000000000001
 10
25.94999999999999
 20
47.75000000000001
  0
LWPOLYLINE
  5
FF
100
AcDbEntity
  8
RPi4_PARTS_TOP
  6
ByLayer
 62
  256
370
   -1
100
AcDbPolyline
 90
    5
 70
    0
 43
0
 10
33.75
 20
39.30000000000001
 10
34.25
 20
39.30000000000001
 10
34.25
 20
40.30000000000001
 10
33.75
 20
40.30000000000001
 10
33.75
 20
39.30000000000001
  0
LWPOLYLINE
  5
100
100
AcDbEntity
  8
RPi4_PARTS_TOP
  6
ByLayer
 62
  256
370
   -1
100
AcDbPolyline
 90
    2
 70
    0
 43
0
 10
34.25
 20
39.55000000000001
 10
33.75
 20
39.55000000000001
  0
LWPOLYLINE
  5
101
100
AcDbEntity
  8
RPi4_PARTS_TOP
  6
ByLayer
 62
  256
370
   -1
100
AcDbPolyline
 90
    2
 70
    0
 43
0
 10
34.25
 20
40.05000000000001
 10
33.75
 20
40.05000000000001
  0
LWPOLYLINE
  5
102
100
AcDbEntity
  8
RPi4_PARTS_TOP
  6
ByLayer
 62
  256
370
   -1
100
AcDbPolyline
 90
    5
 70
    0
 43
0
 10
33.75
 20
41.2
 10
34.25
 20
41.2
 10
34.25
 20
42.2
 10
33.75
 20
42.2
 10
33.75
 20
41.2
  0
LWPOLYLINE
  5
103
100
AcDbEntity
  8
RPi4_PARTS_TOP
  6
ByLayer
 62
  256
370
   -1
100
AcDbPolyline
 90
    2
 70
    0
 43
0
 10
34.25
 20
41.45
 10
33.75
 20
41.45
  0
LWPOLYLINE
  5
104
100
AcDbEntity
  8
RPi4_PARTS_TOP
  6
ByLayer
 62
  256
370
   -1
100
AcDbPolyline
 90
    2
 70
    0
 43
0
 10
34.25
 20
41.95
 10
33.75
 20
41.95
  0
LWPOLYLINE
  5
105
100
AcDbEntity
  8
RPi4_PARTS_TOP
  6
ByLayer
 62
  256
370
   -1
100
AcDbPolyline
 90
    5
 70
    0
 43
0
 10
25.44999999999999
 20
45.40000000000001
 10
25.94999999999999
 20
45.40000000000001
 10
25.94999999999999
 20
46.40000000000001
 10
25.44999999999999
 20
46.40000000000001
 10
25.44999999999999
 20
45.40000000000001
  0
LWPOLYLINE
  5
106
100
AcDbEntity
  8
RPi4_PARTS_TOP
  6
ByLayer
 62
  256
370
   -1
100
AcDbPolyline
 90
    2
 70
    0
 43
0
 10
25.94999999999999
 20
45.65000000000001
 10
25.44999999999999
 20
45.65000000000001
  0
LWPOLYLINE
  5
107
100
AcDbEntity
  8
RPi4_PARTS_TOP
  6
ByLayer
 62
  256
370
   -1
100
AcDbPolyline
 90
    2
 70
    0
 43
0
 10
25.94999999999999
 20
46.15000000000001
 10
25.44999999999999
 20
46.15000000000001
  0
LWPOLYLINE
  5
108
100
AcDbEntity
  8
RPi4_PARTS_TOP
  6
ByLayer
 62
  256
370
   -1
100
AcDbPolyline
 90
    5
 70
    0
 43
0
 10
18.15000000000001
 20
45.00000000000001
 10
18.65000000000001
 20
45.00000000000001
 10
18.65000000000001
 20
46.00000000000001
 10
18.15000000000001
 20
46.00000000000001
 10
18.15000000000001
 20
45.00000000000001
  0
LWPOLYLINE
  5
109
100
AcDbEntity
  8
RPi4_PARTS_TOP
  6
ByLayer
 62
  256
370
   -1
100
AcDbPolyline
 90
    2
 70
    0
 43
0
 10
18.65000000000001
 20
45.25000000000001
 10
18.15000000000001
 20
45.25000000000001
  0
LWPOLYLINE
  5
10A
100
AcDbEntity
  8
RPi4_PARTS_TOP
  6
ByLayer
 62
  256
370
   -1
100
AcDbPolyline
 90
    2
 70
    0
 43
0
 10
18.65000000000001
 20
45.75000000000001
 10
18.15000000000001
 20
45.75000000000001
  0
LWPOLYLINE
  5
10B
100
AcDbEntity
  8
RPi4_PARTS_TOP
  6
ByLayer
 62
  256
370
   -1
100
AcDbPolyline
 90
    5
 70
    0
 43
0
 10
18.15000000000001
 20
47.00000000000001
 10
18.65000000000001
 20
47.00000000000001
 10
18.65000000000001
 20
48.00000000000001
 10
18.15000000000001
 20
48.00000000000001
 10
18.15000000000001
 20
47.00000000000001
  0
LWPOLYLINE
  5
10C
100
AcDbEntity
  8
RPi4_PARTS_TOP
  6
ByLayer
 62
  256
370
   -1
100
AcDbPolyline
 90
    2
 70
    0
 43
0
 10
18.65000000000001
 20
47.25000000000001
 10
18.15000000000001
 20
47.25000000000001
  0
LWPOLYLINE
  5
10D
100
AcDbEntity
  8
RPi4_PARTS_TOP
  6
ByLayer
 62
  256
370
   -1
100
AcDbPolyline
 90
    2
 70
    0
 43
0
 10
18.65000000000001
 20
47.75000000000001
 10
18.15000000000001
 20
47.75000000000001
  0
LWPOLYLINE
  5
10E
100
AcDbEntity
  8
RPi4_PARTS_TOP
  6
ByLayer
 62
  256
370
   -1
100
AcDbPolyline
 90
    5
 70
    0
 43
0
 10
59.25
 20
32.90000000000001
 10
59.75
 20
32.90000000000001
 10
59.75
 20
33.90000000000001
 10
59.25
 20
33.90000000000001
 10
59.25
 20
32.90000000000001
  0
LWPOLYLINE
  5
10F
100
AcDbEntity
  8
RPi4_PARTS_TOP
  6
ByLayer
 62
  256
370
   -1
100
AcDbPolyline
 90
    2
 70
    0
 43
0
 10
59.75
 20
33.15000000000001
 10
59.25
 20
33.15000000000001
  0
LWPOLYLINE
  5
110
100
AcDbEntity
  8
RPi4_PARTS_TOP
  6
ByLayer
 62
  256
370
   -1
100
AcDbPolyline
 90
    2
 70
    0
 43
0
 10
59.75
 20
33.65000000000001
 10
59.25
 20
33.65000000000001
  0
LWPOLYLINE
  5
111
100
AcDbEntity
  8
RPi4_PARTS_TOP
  6
ByLayer
 62
  256
370
   -1
100
AcDbPolyline
 90
    5
 70
    0
 43
0
 10
69.80000000000001
 20
7.149999999999999
 10
69.80000000000001
 20
7.649999999999999
 10
68.80000000000001
 20
7.649999999999999
 10
68.80000000000001
 20
7.149999999999999
 10
69.80000000000001
 20
7.149999999999999
  0
LWPOLYLINE
  5
112
100
AcDbEntity
  8
RPi4_PARTS_TOP
  6
ByLayer
 62
  256
370
   -1
100
AcDbPolyline
 90
    2
 70
    0
 43
0
 10
69.55000000000001
 20
7.649999999999999
 10
69.55000000000001
 20
7.149999999999999
  0
LWPOLYLINE
  5
113
100
AcDbEntity
  8
RPi4_PARTS_TOP
  6
ByLayer
 62
  256
370
   -1
100
AcDbPolyline
 90
    2
 70
    0
 43
0
 10
69.05000000000001
 20
7.649999999999999
 10
69.05000000000001
 20
7.149999999999999
  0
LWPOLYLINE
  5
114
100
AcDbEntity
  8
RPi4_PARTS_TOP
  6
ByLayer
 62
  256
370
   -1
100
AcDbPolyline
 90
    5
 70
    0
 43
0
 10
69.80000000000001
 20
8.149999999999999
 10
69.80000000000001
 20
8.649999999999999
 10
68.80000000000001
 20
8.649999999999999
 10
68.80000000000001
 20
8.149999999999999
 10
69.80000000000001
 20
8.149999999999999
  0
LWPOLYLINE
  5
115
100
AcDbEntity
  8
RPi4_PARTS_TOP
  6
ByLayer
 62
  256
370
   -1
100
AcDbPolyline
 90
    2
 70
    0
 43
0
 10
69.55000000000001
 20
8.649999999999999
 10
69.55000000000001
 20
8.149999999999999
  0
LWPOLYLINE
  5
116
100
AcDbEntity
  8
RPi4_PARTS_TOP
  6
ByLayer
 62
  256
370
   -1
100
AcDbPolyline
 90
    2
 70
    0
 43
0
 10
69.05000000000001
 20
8.649999999999999
 10
69.05000000000001
 20
8.149999999999999
  0
LWPOLYLINE
  5
117
100
AcDbEntity
  8
RPi4_PARTS_TOP
  6
ByLayer
 62
  256
370
   -1
100
AcDbPolyline
 90
    5
 70
    0
 43
0
 10
25.5
 20
20.75000000000001
 10
25.5
 20
21.25000000000001
 10
24.5
 20
21.25000000000001
 10
24.5
 20
20.75000000000001
 10
25.5
 20
20.75000000000001
  0
LWPOLYLINE
  5
118
100
AcDbEntity
  8
RPi4_PARTS_TOP
  6
ByLayer
 62
  256
370
   -1
100
AcDbPolyline
 90
    2
 70
    0
 43
0
 10
25.25
 20
21.25000000000001
 10
25.25
 20
20.75000000000001
  0
LWPOLYLINE
  5
119
100
AcDbEntity
  8
RPi4_PARTS_TOP
  6
ByLayer
 62
  256
370
   -1
100
AcDbPolyline
 90
    2
 70
    0
 43
0
 10
24.75
 20
21.25000000000001
 10
24.75
 20
20.75000000000001
  0
LWPOLYLINE
  5
11A
100
AcDbEntity
  8
RPi4_PARTS_TOP
  6
ByLayer
 62
  256
370
   -1
100
AcDbPolyline
 90
    5
 70
    0
 43
0
 10
29.09999999999999
 20
24.10000000000001
 10
28.59999999999999
 20
24.10000000000001
 10
28.59999999999999
 20
23.10000000000001
 10
29.09999999999999
 20
23.10000000000001
 10
29.09999999999999
 20
24.10000000000001
  0
LWPOLYLINE
  5
11B
100
AcDbEntity
  8
RPi4_PARTS_TOP
  6
ByLayer
 62
  256
370
   -1
100
AcDbPolyline
 90
    2
 70
    0
 43
0
 10
28.59999999999999
 20
23.85000000000001
 10
29.09999999999999
 20
23.85000000000001
  0
LWPOLYLINE
  5
11C
100
AcDbEntity
  8
RPi4_PARTS_TOP
  6
ByLayer
 62
  256
370
   -1
100
AcDbPolyline
 90
    2
 70
    0
 43
0
 10
28.59999999999999
 20
23.35000000000001
 10
29.09999999999999
 20
23.35000000000001
  0
LWPOLYLINE
  5
11D
100
AcDbEntity
  8
RPi4_PARTS_TOP
  6
ByLayer
 62
  256
370
   -1
100
AcDbPolyline
 90
    5
 70
    0
 43
0
 10
82.40000000000001
 20
43.5
 10
84
 20
43.5
 10
84
 20
42.7
 10
82.40000000000001
 20
42.7
 10
82.40000000000001
 20
43.5
  0
LWPOLYLINE
  5
11E
100
AcDbEntity
  8
RPi4_PARTS_TOP
  6
ByLayer
 62
  256
370
   -1
100
AcDbPolyline
 90
    2
 70
    0
 43
0
 10
82.80000000000001
 20
42.7
 10
82.80000000000001
 20
43.5
  0
LWPOLYLINE
  5
11F
100
AcDbEntity
  8
RPi4_PARTS_TOP
  6
ByLayer
 62
  256
370
   -1
100
AcDbPolyline
 90
    2
 70
    0
 43
0
 10
83.69999999999999
 20
42.7
 10
83.69999999999999
 20
43.5
  0
LWPOLYLINE
  5
120
100
AcDbEntity
  8
RPi4_PARTS_TOP
  6
ByLayer
 62
  256
370
   -1
100
AcDbPolyline
 90
    5
 70
    0
 43
0
 10
73.80000000000001
 20
44.1
 10
72.19999999999999
 20
44.1
 10
72.19999999999999
 20
44.90000000000001
 10
73.80000000000001
 20
44.90000000000001
 10
73.80000000000001
 20
44.1
  0
LWPOLYLINE
  5
121
100
AcDbEntity
  8
RPi4_PARTS_TOP
  6
ByLayer
 62
  256
370
   -1
100
AcDbPolyline
 90
    2
 70
    0
 43
0
 10
73.40000000000001
 20
44.90000000000001
 10
73.40000000000001
 20
44.1
  0
LWPOLYLINE
  5
122
100
AcDbEntity
  8
RPi4_PARTS_TOP
  6
ByLayer
 62
  256
370
   -1
100
AcDbPolyline
 90
    2
 70
    0
 43
0
 10
72.5
 20
44.90000000000001
 10
72.5
 20
44.1
  0
LWPOLYLINE
  5
123
100
AcDbEntity
  8
RPi4_PARTS_TOP
  6
ByLayer
 62
  256
370
   -1
100
AcDbPolyline
 90
    5
 70
    0
 43
0
 10
72.30000000000001
 20
47.5
 10
72.30000000000001
 20
45.90000000000001
 10
71.5
 20
45.90000000000001
 10
71.5
 20
47.5
 10
72.30000000000001
 20
47.5
  0
LWPOLYLINE
  5
124
100
AcDbEntity
  8
RPi4_PARTS_TOP
  6
ByLayer
 62
  256
370
   -1
100
AcDbPolyline
 90
    2
 70
    0
 43
0
 10
71.5
 20
47.1
 10
72.30000000000001
 20
47.1
  0
LWPOLYLINE
  5
125
100
AcDbEntity
  8
RPi4_PARTS_TOP
  6
ByLayer
 62
  256
370
   -1
100
AcDbPolyline
 90
    2
 70
    0
 43
0
 10
71.5
 20
46.2
 10
72.30000000000001
 20
46.2
  0
LWPOLYLINE
  5
126
100
AcDbEntity
  8
RPi4_PARTS_TOP
  6
ByLayer
 62
  256
370
   -1
100
AcDbPolyline
 90
    5
 70
    0
 43
0
 10
82.40000000000001
 20
44.9
 10
84
 20
44.9
 10
84
 20
44.1
 10
82.40000000000001
 20
44.1
 10
82.40000000000001
 20
44.9
  0
LWPOLYLINE
  5
127
100
AcDbEntity
  8
RPi4_PARTS_TOP
  6
ByLayer
 62
  256
370
   -1
100
AcDbPolyline
 90
    2
 70
    0
 43
0
 10
82.80000000000001
 20
44.1
 10
82.80000000000001
 20
44.9
  0
LWPOLYLINE
  5
128
100
AcDbEntity
  8
RPi4_PARTS_TOP
  6
ByLayer
 62
  256
370
   -1
100
AcDbPolyline
 90
    2
 70
    0
 43
0
 10
83.69999999999999
 20
44.1
 10
83.69999999999999
 20
44.9
  0
LWPOLYLINE
  5
129
100
AcDbEntity
  8
RPi4_PARTS_TOP
  6
ByLayer
 62
  256
370
   -1
100
AcDbPolyline
 90
    5
 70
    0
 43
0
 10
73.80000000000001
 20
42.7
 10
72.19999999999999
 20
42.7
 10
72.19999999999999
 20
43.5
 10
73.80000000000001
 20
43.5
 10
73.80000000000001
 20
42.7
  0
LWPOLYLINE
  5
12A
100
AcDbEntity
  8
RPi4_PARTS_TOP
  6
ByLayer
 62
  256
370
   -1
100
AcDbPolyline
 90
    2
 70
    0
 43
0
 10
73.40000000000001
 20
43.5
 10
73.40000000000001
 20
42.7
  0
LWPOLYLINE
  5
12B
100
AcDbEntity
  8
RPi4_PARTS_TOP
  6
ByLayer
 62
  256
370
   -1
100
AcDbPolyline
 90
    2
 70
    0
 43
0
 10
72.5
 20
43.5
 10
72.5
 20
42.7
  0
LWPOLYLINE
  5
12C
100
AcDbEntity
  8
RPi4_PARTS_TOP
  6
ByLayer
 62
  256
370
   -1
100
AcDbPolyline
 90
    5
 70
    0
 43
0
 10
80.5
 20
39.4
 10
78.90000000000001
 20
39.4
 10
78.90000000000001
 20
40.2
 10
80.5
 20
40.2
 10
80.5
 20
39.4
  0
LWPOLYLINE
  5
12D
100
AcDbEntity
  8
RPi4_PARTS_TOP
  6
ByLayer
 62
  256
370
   -1
100
AcDbPolyline
 90
    2
 70
    0
 43
0
 10
80.09999999999999
 20
40.2
 10
80.09999999999999
 20
39.4
  0
LWPOLYLINE
  5
12E
100
AcDbEntity
  8
RPi4_PARTS_TOP
  6
ByLayer
 62
  256
370
   -1
100
AcDbPolyline
 90
    2
 70
    0
 43
0
 10
79.19999999999999
 20
40.2
 10
79.19999999999999
 20
39.4
  0
LWPOLYLINE
  5
12F
100
AcDbEntity
  8
RPi4_PARTS_TOP
  6
ByLayer
 62
  256
370
   -1
100
AcDbPolyline
 90
    5
 70
    0
 43
0
 10
27
 20
22.60000000000001
 10
27
 20
24.20000000000001
 10
27.79999999999998
 20
24.20000000000001
 10
27.79999999999998
 20
22.60000000000001
 10
27
 20
22.60000000000001
  0
LWPOLYLINE
  5
130
100
AcDbEntity
  8
RPi4_PARTS_TOP
  6
ByLayer
 62
  256
370
   -1
100
AcDbPolyline
 90
    2
 70
    0
 43
0
 10
27.79999999999998
 20
23.00000000000001
 10
27
 20
23.00000000000001
  0
LWPOLYLINE
  5
131
100
AcDbEntity
  8
RPi4_PARTS_TOP
  6
ByLayer
 62
  256
370
   -1
100
AcDbPolyline
 90
    2
 70
    0
 43
0
 10
27.79999999999998
 20
23.90000000000001
 10
27
 20
23.90000000000001
  0
LWPOLYLINE
  5
132
100
AcDbEntity
  8
RPi4_PARTS_TOP
  6
ByLayer
 62
  256
370
   -1
100
AcDbPolyline
 90
    5
 70
    0
 43
0
 10
29.69999999999999
 20
22.60000000000001
 10
29.69999999999999
 20
24.20000000000001
 10
30.5
 20
24.20000000000001
 10
30.5
 20
22.60000000000001
 10
29.69999999999999
 20
22.60000000000001
  0
LWPOLYLINE
  5
133
100
AcDbEntity
  8
RPi4_PARTS_TOP
  6
ByLayer
 62
  256
370
   -1
100
AcDbPolyline
 90
    2
 70
    0
 43
0
 10
30.5
 20
23.00000000000001
 10
29.69999999999999
 20
23.00000000000001
  0
LWPOLYLINE
  5
134
100
AcDbEntity
  8
RPi4_PARTS_TOP
  6
ByLayer
 62
  256
370
   -1
100
AcDbPolyline
 90
    2
 70
    0
 43
0
 10
30.5
 20
23.90000000000001
 10
29.69999999999999
 20
23.90000000000001
  0
LWPOLYLINE
  5
135
100
AcDbEntity
  8
RPi4_PARTS_TOP
  6
ByLayer
 62
  256
370
   -1
100
AcDbPolyline
 90
    5
 70
    0
 43
0
 10
23.30000000000001
 20
47.80000000000001
 10
23.30000000000001
 20
46.2
 10
22.5
 20
46.20000000000001
 10
22.5
 20
47.80000000000001
 10
23.30000000000001
 20
47.80000000000001
  0
LWPOLYLINE
  5
136
100
AcDbEntity
  8
RPi4_PARTS_TOP
  6
ByLayer
 62
  256
370
   -1
100
AcDbPolyline
 90
    2
 70
    0
 43
0
 10
22.5
 20
47.40000000000001
 10
23.30000000000001
 20
47.40000000000001
  0
LWPOLYLINE
  5
137
100
AcDbEntity
  8
RPi4_PARTS_TOP
  6
ByLayer
 62
  256
370
   -1
100
AcDbPolyline
 90
    2
 70
    0
 43
0
 10
22.5
 20
46.50000000000001
 10
23.30000000000001
 20
46.50000000000001
  0
LWPOLYLINE
  5
138
100
AcDbEntity
  8
RPi4_PARTS_TOP
  6
ByLayer
 62
  256
370
   -1
100
AcDbPolyline
 90
    5
 70
    0
 43
0
 10
72.94999999999999
 20
14.35
 10
72.94999999999999
 20
14.85
 10
71.94999999999999
 20
14.85
 10
71.94999999999999
 20
14.35
 10
72.94999999999999
 20
14.35
  0
LWPOLYLINE
  5
139
100
AcDbEntity
  8
RPi4_PARTS_TOP
  6
ByLayer
 62
  256
370
   -1
100
AcDbPolyline
 90
    2
 70
    0
 43
0
 10
72.69999999999999
 20
14.85
 10
72.69999999999999
 20
14.35
  0
LWPOLYLINE
  5
13A
100
AcDbEntity
  8
RPi4_PARTS_TOP
  6
ByLayer
 62
  256
370
   -1
100
AcDbPolyline
 90
    2
 70
    0
 43
0
 10
72.19999999999999
 20
14.85
 10
72.19999999999999
 20
14.35
  0
LWPOLYLINE
  5
13B
100
AcDbEntity
  8
RPi4_PARTS_TOP
  6
ByLayer
 62
  256
370
   -1
100
AcDbPolyline
 90
    5
 70
    0
 43
0
 10
76.14999999999998
 20
17.95
 10
76.64999999999998
 20
17.95
 10
76.64999999999998
 20
18.95
 10
76.14999999999998
 20
18.95
 10
76.14999999999998
 20
17.95
  0
LWPOLYLINE
  5
13C
100
AcDbEntity
  8
RPi4_PARTS_TOP
  6
ByLayer
 62
  256
370
   -1
100
AcDbPolyline
 90
    2
 70
    0
 43
0
 10
76.64999999999998
 20
18.2
 10
76.14999999999998
 20
18.2
  0
LWPOLYLINE
  5
13D
100
AcDbEntity
  8
RPi4_PARTS_TOP
  6
ByLayer
 62
  256
370
   -1
100
AcDbPolyline
 90
    2
 70
    0
 43
0
 10
76.64999999999998
 20
18.7
 10
76.14999999999998
 20
18.7
  0
LWPOLYLINE
  5
13E
100
AcDbEntity
  8
RPi4_PARTS_TOP
  6
ByLayer
 62
  256
370
   -1
100
AcDbPolyline
 90
    5
 70
    0
 43
0
 10
73.59999999999999
 20
17.95
 10
74.09999999999999
 20
17.95
 10
74.09999999999999
 20
18.95
 10
73.59999999999999
 20
18.95
 10
73.59999999999999
 20
17.95
  0
LWPOLYLINE
  5
13F
100
AcDbEntity
  8
RPi4_PARTS_TOP
  6
ByLayer
 62
  256
370
   -1
100
AcDbPolyline
 90
    2
 70
    0
 43
0
 10
74.09999999999999
 20
18.2
 10
73.59999999999999
 20
18.2
  0
LWPOLYLINE
  5
140
100
AcDbEntity
  8
RPi4_PARTS_TOP
  6
ByLayer
 62
  256
370
   -1
100
AcDbPolyline
 90
    2
 70
    0
 43
0
 10
74.09999999999999
 20
18.7
 10
73.59999999999999
 20
18.7
  0
LWPOLYLINE
  5
141
100
AcDbEntity
  8
RPi4_PARTS_TOP
  6
ByLayer
 62
  256
370
   -1
100
AcDbPolyline
 90
    5
 70
    0
 43
0
 10
74.44999999999999
 20
17.95
 10
74.94999999999999
 20
17.95
 10
74.94999999999999
 20
18.95
 10
74.44999999999999
 20
18.95
 10
74.44999999999999
 20
17.95
  0
LWPOLYLINE
  5
142
100
AcDbEntity
  8
RPi4_PARTS_TOP
  6
ByLayer
 62
  256
370
   -1
100
AcDbPolyline
 90
    2
 70
    0
 43
0
 10
74.94999999999999
 20
18.2
 10
74.44999999999999
 20
18.2
  0
LWPOLYLINE
  5
143
100
AcDbEntity
  8
RPi4_PARTS_TOP
  6
ByLayer
 62
  256
370
   -1
100
AcDbPolyline
 90
    2
 70
    0
 43
0
 10
74.94999999999999
 20
18.7
 10
74.44999999999999
 20
18.7
  0
LWPOLYLINE
  5
144
100
AcDbEntity
  8
RPi4_PARTS_TOP
  6
ByLayer
 62
  256
370
   -1
100
AcDbPolyline
 90
    5
 70
    0
 43
0
 10
75.30000000000001
 20
17.95
 10
75.80000000000001
 20
17.95
 10
75.80000000000001
 20
18.95
 10
75.30000000000001
 20
18.95
 10
75.30000000000001
 20
17.95
  0
LWPOLYLINE
  5
145
100
AcDbEntity
  8
RPi4_PARTS_TOP
  6
ByLayer
 62
  256
370
   -1
100
AcDbPolyline
 90
    2
 70
    0
 43
0
 10
75.80000000000001
 20
18.2
 10
75.30000000000001
 20
18.2
  0
LWPOLYLINE
  5
146
100
AcDbEntity
  8
RPi4_PARTS_TOP
  6
ByLayer
 62
  256
370
   -1
100
AcDbPolyline
 90
    2
 70
    0
 43
0
 10
75.80000000000001
 20
18.7
 10
75.30000000000001
 20
18.7
  0
LWPOLYLINE
  5
147
100
AcDbEntity
  8
RPi4_PARTS_TOP
  6
ByLayer
 62
  256
370
   -1
100
AcDbPolyline
 90
    5
 70
    0
 43
0
 10
73.19999999999999
 20
18.05
 10
72.69999999999999
 20
18.05
 10
72.69999999999999
 20
17.05
 10
73.19999999999999
 20
17.05
 10
73.19999999999999
 20
18.05
  0
LWPOLYLINE
  5
148
100
AcDbEntity
  8
RPi4_PARTS_TOP
  6
ByLayer
 62
  256
370
   -1
100
AcDbPolyline
 90
    2
 70
    0
 43
0
 10
72.69999999999999
 20
17.8
 10
73.19999999999999
 20
17.8
  0
LWPOLYLINE
  5
149
100
AcDbEntity
  8
RPi4_PARTS_TOP
  6
ByLayer
 62
  256
370
   -1
100
AcDbPolyline
 90
    2
 70
    0
 43
0
 10
72.69999999999999
 20
17.3
 10
73.19999999999999
 20
17.3
  0
LWPOLYLINE
  5
14A
100
AcDbEntity
  8
RPi4_PARTS_TOP
  6
ByLayer
 62
  256
370
   -1
100
AcDbPolyline
 90
    5
 70
    0
 43
0
 10
77.94999999999999
 20
11.6
 10
77.94999999999999
 20
11.1
 10
78.94999999999999
 20
11.1
 10
78.94999999999999
 20
11.6
 10
77.94999999999999
 20
11.6
  0
LWPOLYLINE
  5
14B
100
AcDbEntity
  8
RPi4_PARTS_TOP
  6
ByLayer
 62
  256
370
   -1
100
AcDbPolyline
 90
    2
 70
    0
 43
0
 10
78.19999999999999
 20
11.1
 10
78.19999999999999
 20
11.6
  0
LWPOLYLINE
  5
14C
100
AcDbEntity
  8
RPi4_PARTS_TOP
  6
ByLayer
 62
  256
370
   -1
100
AcDbPolyline
 90
    2
 70
    0
 43
0
 10
78.69999999999999
 20
11.1
 10
78.69999999999999
 20
11.6
  0
LWPOLYLINE
  5
14D
100
AcDbEntity
  8
RPi4_PARTS_TOP
  6
ByLayer
 62
  256
370
   -1
100
AcDbPolyline
 90
    5
 70
    0
 43
0
 10
75.44999999999999
 20
47.6
 10
75.94999999999999
 20
47.6
 10
75.94999999999999
 20
48.6
 10
75.44999999999999
 20
48.6
 10
75.44999999999999
 20
47.6
  0
LWPOLYLINE
  5
14E
100
AcDbEntity
  8
RPi4_PARTS_TOP
  6
ByLayer
 62
  256
370
   -1
100
AcDbPolyline
 90
    2
 70
    0
 43
0
 10
75.94999999999999
 20
47.85
 10
75.44999999999999
 20
47.85
  0
LWPOLYLINE
  5
14F
100
AcDbEntity
  8
RPi4_PARTS_TOP
  6
ByLayer
 62
  256
370
   -1
100
AcDbPolyline
 90
    2
 70
    0
 43
0
 10
75.94999999999999
 20
48.35
 10
75.44999999999999
 20
48.35
  0
LWPOLYLINE
  5
150
100
AcDbEntity
  8
RPi4_PARTS_TOP
  6
ByLayer
 62
  256
370
   -1
100
AcDbPolyline
 90
    2
 70
    0
 43
0
 10
76.80000000000001
 20
11.25
 10
77.09999999999999
 20
11.25
  0
LWPOLYLINE
  5
151
100
AcDbEntity
  8
RPi4_PARTS_TOP
  6
ByLayer
 62
  256
370
   -1
100
AcDbPolyline
 90
    2
 70
    0
 43
0
 10
77.09999999999999
 20
10.85
 10
76.80000000000001
 20
10.85
  0
LWPOLYLINE
  5
152
100
AcDbEntity
  8
RPi4_PARTS_TOP
  6
ByLayer
 62
  256
370
   -1
100
AcDbPolyline
 90
    5
 70
    0
 43
0
 10
77.09999999999999
 20
10.75
 10
77.09999999999999
 20
11.35
 10
76.80000000000001
 20
11.35
 10
76.80000000000001
 20
10.75
 10
77.09999999999999
 20
10.75
  0
LWPOLYLINE
  5
153
100
AcDbEntity
  8
RPi4_PARTS_TOP
  6
ByLayer
 62
  256
370
   -1
100
AcDbPolyline
 90
    2
 70
    0
 43
0
 10
77.25
 20
7.950000000000003
 10
77.25
 20
7.649999999999999
  0
LWPOLYLINE
  5
154
100
AcDbEntity
  8
RPi4_PARTS_TOP
  6
ByLayer
 62
  256
370
   -1
100
AcDbPolyline
 90
    2
 70
    0
 43
0
 10
76.84999999999999
 20
7.649999999999999
 10
76.84999999999999
 20
7.950000000000003
  0
LWPOLYLINE
  5
155
100
AcDbEntity
  8
RPi4_PARTS_TOP
  6
ByLayer
 62
  256
370
   -1
100
AcDbPolyline
 90
    5
 70
    0
 43
0
 10
76.75
 20
7.649999999999999
 10
77.34999999999999
 20
7.649999999999999
 10
77.34999999999999
 20
7.950000000000003
 10
76.75
 20
7.950000000000003
 10
76.75
 20
7.649999999999999
  0
LWPOLYLINE
  5
156
100
AcDbEntity
  8
RPi4_PARTS_TOP
  6
ByLayer
 62
  256
370
   -1
100
AcDbPolyline
 90
    2
 70
    0
 43
0
 10
84.84999999999999
 20
13.6
 10
85.14999999999998
 20
13.6
  0
LWPOLYLINE
  5
157
100
AcDbEntity
  8
RPi4_PARTS_TOP
  6
ByLayer
 62
  256
370
   -1
100
AcDbPolyline
 90
    2
 70
    0
 43
0
 10
85.14999999999998
 20
13.2
 10
84.84999999999999
 20
13.2
  0
LWPOLYLINE
  5
158
100
AcDbEntity
  8
RPi4_PARTS_TOP
  6
ByLayer
 62
  256
370
   -1
100
AcDbPolyline
 90
    5
 70
    0
 43
0
 10
85.14999999999998
 20
13.1
 10
85.14999999999998
 20
13.7
 10
84.84999999999999
 20
13.7
 10
84.84999999999999
 20
13.1
 10
85.14999999999998
 20
13.1
  0
LWPOLYLINE
  5
159
100
AcDbEntity
  8
RPi4_PARTS_TOP
  6
ByLayer
 62
  256
370
   -1
100
AcDbPolyline
 90
    2
 70
    0
 43
0
 10
84.84999999999999
 20
14.9
 10
85.14999999999998
 20
14.9
  0
LWPOLYLINE
  5
15A
100
AcDbEntity
  8
RPi4_PARTS_TOP
  6
ByLayer
 62
  256
370
   -1
100
AcDbPolyline
 90
    2
 70
    0
 43
0
 10
85.14999999999998
 20
14.5
 10
84.84999999999999
 20
14.5
  0
LWPOLYLINE
  5
15B
100
AcDbEntity
  8
RPi4_PARTS_TOP
  6
ByLayer
 62
  256
370
   -1
100
AcDbPolyline
 90
    5
 70
    0
 43
0
 10
85.14999999999998
 20
14.4
 10
85.14999999999998
 20
15
 10
84.84999999999999
 20
15
 10
84.84999999999999
 20
14.4
 10
85.14999999999998
 20
14.4
  0
LWPOLYLINE
  5
15C
100
AcDbEntity
  8
RPi4_PARTS_TOP
  6
ByLayer
 62
  256
370
   -1
100
AcDbPolyline
 90
    2
 70
    0
 43
0
 10
87.19999999999999
 20
13.6
 10
87.5
 20
13.6
  0
LWPOLYLINE
  5
15D
100
AcDbEntity
  8
RPi4_PARTS_TOP
  6
ByLayer
 62
  256
370
   -1
100
AcDbPolyline
 90
    2
 70
    0
 43
0
 10
87.5
 20
13.2
 10
87.19999999999999
 20
13.2
  0
LWPOLYLINE
  5
15E
100
AcDbEntity
  8
RPi4_PARTS_TOP
  6
ByLayer
 62
  256
370
   -1
100
AcDbPolyline
 90
    5
 70
    0
 43
0
 10
87.5
 20
13.1
 10
87.5
 20
13.7
 10
87.19999999999999
 20
13.7
 10
87.19999999999999
 20
13.1
 10
87.5
 20
13.1
  0
LWPOLYLINE
  5
15F
100
AcDbEntity
  8
RPi4_PARTS_TOP
  6
ByLayer
 62
  256
370
   -1
100
AcDbPolyline
 90
    2
 70
    0
 43
0
 10
87.19999999999999
 20
14.9
 10
87.5
 20
14.9
  0
LWPOLYLINE
  5
160
100
AcDbEntity
  8
RPi4_PARTS_TOP
  6
ByLayer
 62
  256
370
   -1
100
AcDbPolyline
 90
    2
 70
    0
 43
0
 10
87.5
 20
14.5
 10
87.19999999999999
 20
14.5
  0
LWPOLYLINE
  5
161
100
AcDbEntity
  8
RPi4_PARTS_TOP
  6
ByLayer
 62
  256
370
   -1
100
AcDbPolyline
 90
    5
 70
    0
 43
0
 10
87.5
 20
14.4
 10
87.5
 20
15
 10
87.19999999999999
 20
15
 10
87.19999999999999
 20
14.4
 10
87.5
 20
14.4
  0
LWPOLYLINE
  5
162
100
AcDbEntity
  8
RPi4_PARTS_TOP
  6
ByLayer
 62
  256
370
   -1
100
AcDbPolyline
 90
    2
 70
    0
 43
0
 10
82.7525
 20
8.185400000000001
 10
82.96459999999999
 20
8.397500000000001
  0
LWPOLYLINE
  5
163
100
AcDbEntity
  8
RPi4_PARTS_TOP
  6
ByLayer
 62
  256
370
   -1
100
AcDbPolyline
 90
    2
 70
    0
 43
0
 10
83.2475
 20
8.114600000000003
 10
83.03539999999998
 20
7.902500000000003
  0
LWPOLYLINE
  5
164
100
AcDbEntity
  8
RPi4_PARTS_TOP
  6
ByLayer
 62
  256
370
   -1
100
AcDbPolyline
 90
    5
 70
    0
 43
0
 10
83.31819999999999
 20
8.043900000000001
 10
82.89389999999997
 20
8.468200000000003
 10
82.68180000000001
 20
8.256100000000004
 10
83.1061
 20
7.831800000000001
 10
83.31819999999999
 20
8.043900000000001
  0
LWPOLYLINE
  5
165
100
AcDbEntity
  8
RPi4_PARTS_TOP
  6
ByLayer
 62
  256
370
   -1
100
AcDbPolyline
 90
    2
 70
    0
 43
0
 10
77.44999999999999
 20
10
 10
77.75
 20
10
  0
LWPOLYLINE
  5
166
100
AcDbEntity
  8
RPi4_PARTS_TOP
  6
ByLayer
 62
  256
370
   -1
100
AcDbPolyline
 90
    2
 70
    0
 43
0
 10
77.75
 20
9.600000000000001
 10
77.44999999999999
 20
9.600000000000001
  0
LWPOLYLINE
  5
167
100
AcDbEntity
  8
RPi4_PARTS_TOP
  6
ByLayer
 62
  256
370
   -1
100
AcDbPolyline
 90
    5
 70
    0
 43
0
 10
77.75
 20
9.5
 10
77.75
 20
10.1
 10
77.44999999999999
 20
10.1
 10
77.44999999999999
 20
9.5
 10
77.75
 20
9.5
  0
LWPOLYLINE
  5
168
100
AcDbEntity
  8
RPi4_PARTS_TOP
  6
ByLayer
 62
  256
370
   -1
100
AcDbPolyline
 90
    2
 70
    0
 43
0
 10
78.39999999999998
 20
9.350000000000001
 10
78.09999999999999
 20
9.350000000000001
  0
LWPOLYLINE
  5
169
100
AcDbEntity
  8
RPi4_PARTS_TOP
  6
ByLayer
 62
  256
370
   -1
100
AcDbPolyline
 90
    2
 70
    0
 43
0
 10
78.09999999999999
 20
9.75
 10
78.39999999999998
 20
9.75
  0
LWPOLYLINE
  5
16A
100
AcDbEntity
  8
RPi4_PARTS_TOP
  6
ByLayer
 62
  256
370
   -1
100
AcDbPolyline
 90
    5
 70
    0
 43
0
 10
78.09999999999999
 20
9.850000000000001
 10
78.09999999999999
 20
9.25
 10
78.39999999999998
 20
9.25
 10
78.39999999999998
 20
9.850000000000001
 10
78.09999999999999
 20
9.850000000000001
  0
LWPOLYLINE
  5
16B
100
AcDbEntity
  8
RPi4_PARTS_TOP
  6
ByLayer
 62
  256
370
   -1
100
AcDbPolyline
 90
    2
 70
    0
 43
0
 10
77.80000000000001
 20
10.55
 10
77.80000000000001
 20
10.85
  0
LWPOLYLINE
  5
16C
100
AcDbEntity
  8
RPi4_PARTS_TOP
  6
ByLayer
 62
  256
370
   -1
100
AcDbPolyline
 90
    2
 70
    0
 43
0
 10
78.19999999999999
 20
10.85
 10
78.19999999999999
 20
10.55
  0
LWPOLYLINE
  5
16D
100
AcDbEntity
  8
RPi4_PARTS_TOP
  6
ByLayer
 62
  256
370
   -1
100
AcDbPolyline
 90
    5
 70
    0
 43
0
 10
78.30000000000001
 20
10.85
 10
77.69999999999999
 20
10.85
 10
77.69999999999999
 20
10.55
 10
78.30000000000001
 20
10.55
 10
78.30000000000001
 20
10.85
  0
LWPOLYLINE
  5
16E
100
AcDbEntity
  8
RPi4_PARTS_TOP
  6
ByLayer
 62
  256
370
   -1
100
AcDbPolyline
 90
    2
 70
    0
 43
0
 10
77.89999999999998
 20
8.350000000000001
 10
77.59999999999999
 20
8.350000000000001
  0
LWPOLYLINE
  5
16F
100
AcDbEntity
  8
RPi4_PARTS_TOP
  6
ByLayer
 62
  256
370
   -1
100
AcDbPolyline
 90
    2
 70
    0
 43
0
 10
77.59999999999999
 20
8.75
 10
77.89999999999998
 20
8.75
  0
LWPOLYLINE
  5
170
100
AcDbEntity
  8
RPi4_PARTS_TOP
  6
ByLayer
 62
  256
370
   -1
100
AcDbPolyline
 90
    5
 70
    0
 43
0
 10
77.59999999999999
 20
8.850000000000001
 10
77.59999999999999
 20
8.25
 10
77.89999999999998
 20
8.25
 10
77.89999999999998
 20
8.850000000000001
 10
77.59999999999999
 20
8.850000000000001
  0
LWPOLYLINE
  5
171
100
AcDbEntity
  8
RPi4_PARTS_TOP
  6
ByLayer
 62
  256
370
   -1
100
AcDbPolyline
 90
    2
 70
    0
 43
0
 10
76.14999999999998
 20
8.5
 10
75.84999999999999
 20
8.5
  0
LWPOLYLINE
  5
172
100
AcDbEntity
  8
RPi4_PARTS_TOP
  6
ByLayer
 62
  256
370
   -1
100
AcDbPolyline
 90
    2
 70
    0
 43
0
 10
75.84999999999999
 20
8.899999999999999
 10
76.14999999999998
 20
8.899999999999999
  0
LWPOLYLINE
  5
173
100
AcDbEntity
  8
RPi4_PARTS_TOP
  6
ByLayer
 62
  256
370
   -1
100
AcDbPolyline
 90
    5
 70
    0
 43
0
 10
75.84999999999999
 20
9
 10
75.84999999999999
 20
8.399999999999999
 10
76.14999999999998
 20
8.399999999999999
 10
76.14999999999998
 20
9
 10
75.84999999999999
 20
9
  0
LWPOLYLINE
  5
174
100
AcDbEntity
  8
RPi4_PARTS_TOP
  6
ByLayer
 62
  256
370
   -1
100
AcDbPolyline
 90
    2
 70
    0
 43
0
 10
75.55000000000001
 20
9.600000000000001
 10
75.55000000000001
 20
9.899999999999999
  0
LWPOLYLINE
  5
175
100
AcDbEntity
  8
RPi4_PARTS_TOP
  6
ByLayer
 62
  256
370
   -1
100
AcDbPolyline
 90
    2
 70
    0
 43
0
 10
75.94999999999999
 20
9.899999999999999
 10
75.94999999999999
 20
9.600000000000001
  0
LWPOLYLINE
  5
176
100
AcDbEntity
  8
RPi4_PARTS_TOP
  6
ByLayer
 62
  256
370
   -1
100
AcDbPolyline
 90
    5
 70
    0
 43
0
 10
76.05000000000001
 20
9.899999999999999
 10
75.44999999999999
 20
9.899999999999999
 10
75.44999999999999
 20
9.600000000000001
 10
76.05000000000001
 20
9.600000000000001
 10
76.05000000000001
 20
9.899999999999999
  0
LWPOLYLINE
  5
177
100
AcDbEntity
  8
RPi4_PARTS_TOP
  6
ByLayer
 62
  256
370
   -1
100
AcDbPolyline
 90
    2
 70
    0
 43
0
 10
77.19749999999999
 20
8.814599999999999
 10
76.9854
 20
8.602499999999999
  0
LWPOLYLINE
  5
178
100
AcDbEntity
  8
RPi4_PARTS_TOP
  6
ByLayer
 62
  256
370
   -1
100
AcDbPolyline
 90
    2
 70
    0
 43
0
 10
76.70249999999999
 20
8.885399999999997
 10
76.91460000000001
 20
9.097499999999997
  0
LWPOLYLINE
  5
179
100
AcDbEntity
  8
RPi4_PARTS_TOP
  6
ByLayer
 62
  256
370
   -1
100
AcDbPolyline
 90
    5
 70
    0
 43
0
 10
76.6318
 20
8.956099999999999
 10
77.05610000000001
 20
8.531799999999997
 10
77.26819999999998
 20
8.743899999999996
 10
76.84389999999999
 20
9.168199999999999
 10
76.6318
 20
8.956099999999999
  0
LWPOLYLINE
  5
17A
100
AcDbEntity
  8
RPi4_PARTS_TOP
  6
ByLayer
 62
  256
370
   -1
100
AcDbPolyline
 90
    2
 70
    0
 43
0
 10
80.39999999999998
 20
10.6
 10
80.69999999999999
 20
10.6
  0
LWPOLYLINE
  5
17B
100
AcDbEntity
  8
RPi4_PARTS_TOP
  6
ByLayer
 62
  256
370
   -1
100
AcDbPolyline
 90
    2
 70
    0
 43
0
 10
80.69999999999999
 20
10.2
 10
80.39999999999998
 20
10.2
  0
LWPOLYLINE
  5
17C
100
AcDbEntity
  8
RPi4_PARTS_TOP
  6
ByLayer
 62
  256
370
   -1
100
AcDbPolyline
 90
    5
 70
    0
 43
0
 10
80.69999999999999
 20
10.1
 10
80.69999999999999
 20
10.7
 10
80.39999999999998
 20
10.7
 10
80.39999999999998
 20
10.1
 10
80.69999999999999
 20
10.1
  0
LWPOLYLINE
  5
17D
100
AcDbEntity
  8
RPi4_PARTS_TOP
  6
ByLayer
 62
  256
370
   -1
100
AcDbPolyline
 90
    2
 70
    0
 43
0
 10
80.39999999999998
 20
13.15
 10
80.69999999999999
 20
13.15
  0
LWPOLYLINE
  5
17E
100
AcDbEntity
  8
RPi4_PARTS_TOP
  6
ByLayer
 62
  256
370
   -1
100
AcDbPolyline
 90
    2
 70
    0
 43
0
 10
80.69999999999999
 20
12.75
 10
80.39999999999998
 20
12.75
  0
LWPOLYLINE
  5
17F
100
AcDbEntity
  8
RPi4_PARTS_TOP
  6
ByLayer
 62
  256
370
   -1
100
AcDbPolyline
 90
    5
 70
    0
 43
0
 10
80.69999999999999
 20
12.65
 10
80.69999999999999
 20
13.25
 10
80.39999999999998
 20
13.25
 10
80.39999999999998
 20
12.65
 10
80.69999999999999
 20
12.65
  0
LWPOLYLINE
  5
180
100
AcDbEntity
  8
RPi4_PARTS_TOP
  6
ByLayer
 62
  256
370
   -1
100
AcDbPolyline
 90
    2
 70
    0
 43
0
 10
80.19999999999999
 20
11.35
 10
79.89999999999998
 20
11.35
  0
LWPOLYLINE
  5
181
100
AcDbEntity
  8
RPi4_PARTS_TOP
  6
ByLayer
 62
  256
370
   -1
100
AcDbPolyline
 90
    2
 70
    0
 43
0
 10
79.89999999999998
 20
11.75
 10
80.19999999999999
 20
11.75
  0
LWPOLYLINE
  5
182
100
AcDbEntity
  8
RPi4_PARTS_TOP
  6
ByLayer
 62
  256
370
   -1
100
AcDbPolyline
 90
    5
 70
    0
 43
0
 10
79.89999999999998
 20
11.85
 10
79.89999999999998
 20
11.25
 10
80.19999999999999
 20
11.25
 10
80.19999999999999
 20
11.85
 10
79.89999999999998
 20
11.85
  0
LWPOLYLINE
  5
183
100
AcDbEntity
  8
RPi4_PARTS_TOP
  6
ByLayer
 62
  256
370
   -1
100
AcDbPolyline
 90
    5
 70
    0
 43
0
 10
25.03739999999999
 20
16.96970000000001
 10
23.2697
 20
18.73740000000001
 10
22.5626
 20
18.0303
 10
24.33029999999999
 20
16.26260000000001
 10
25.03739999999999
 20
16.96970000000001
  0
LWPOLYLINE
  5
184
100
AcDbEntity
  8
RPi4_PARTS_TOP
  6
ByLayer
 62
  256
370
   -1
100
AcDbPolyline
 90
    2
 70
    1
 43
0
 10
24.68389999999999
 20
16.96970000000001
 42
1.000000000000025
 10
24.82528800000001
 20
16.96964000000001
 42
0.999999999999975
  0
LWPOLYLINE
  5
185
100
AcDbEntity
  8
RPi4_PARTS_TOP
  6
ByLayer
 62
  256
370
   -1
100
AcDbPolyline
 90
    5
 70
    0
 43
0
 10
25.03739999999999
 20
13.66970000000001
 10
23.2697
 20
15.4374
 10
22.5626
 20
14.73030000000001
 10
24.33029999999999
 20
12.96260000000001
 10
25.03739999999999
 20
13.66970000000001
  0
LWPOLYLINE
  5
186
100
AcDbEntity
  8
RPi4_PARTS_TOP
  6
ByLayer
 62
  256
370
   -1
100
AcDbPolyline
 90
    2
 70
    1
 43
0
 10
24.68389999999999
 20
13.66970000000001
 42
0.9999999999999875
 10
24.82528800000001
 20
13.66964000000001
 42
1.000000000000012
  0
LWPOLYLINE
  5
187
100
AcDbEntity
  8
RPi4_PARTS_TOP
  6
ByLayer
 62
  256
370
   -1
100
AcDbPolyline
 90
    5
 70
    0
 43
0
 10
57.94999999999999
 20
34.05
 10
57.94999999999999
 20
34.65000000000001
 10
57.64999999999998
 20
34.65000000000001
 10
57.64999999999998
 20
34.05
 10
57.94999999999999
 20
34.05
  0
LWPOLYLINE
  5
188
100
AcDbEntity
  8
RPi4_PARTS_TOP
  6
ByLayer
 62
  256
370
   -1
100
AcDbPolyline
 90
    2
 70
    0
 43
0
 10
57.94999999999999
 20
34.15000000000001
 10
57.64999999999998
 20
34.15000000000001
  0
LWPOLYLINE
  5
189
100
AcDbEntity
  8
RPi4_PARTS_TOP
  6
ByLayer
 62
  256
370
   -1
100
AcDbPolyline
 90
    2
 70
    0
 43
0
 10
57.64999999999998
 20
34.55
 10
57.94999999999999
 20
34.55
  0
LWPOLYLINE
  5
18A
100
AcDbEntity
  8
RPi4_PARTS_TOP
  6
ByLayer
 62
  256
370
   -1
100
AcDbPolyline
 90
    5
 70
    0
 43
0
 10
51.70609999999999
 20
12.91820000000001
 10
51.28179999999998
 20
12.4939
 10
51.4939
 20
12.2818
 10
51.91819999999998
 20
12.70610000000001
 10
51.70609999999999
 20
12.91820000000001
  0
LWPOLYLINE
  5
18B
100
AcDbEntity
  8
RPi4_PARTS_TOP
  6
ByLayer
 62
  256
370
   -1
100
AcDbPolyline
 90
    2
 70
    0
 43
0
 10
51.6354
 20
12.8475
 10
51.8475
 20
12.6354
  0
LWPOLYLINE
  5
18C
100
AcDbEntity
  8
RPi4_PARTS_TOP
  6
ByLayer
 62
  256
370
   -1
100
AcDbPolyline
 90
    2
 70
    0
 43
0
 10
51.56459999999998
 20
12.35250000000001
 10
51.35249999999999
 20
12.56460000000001
  0
LWPOLYLINE
  5
18D
100
AcDbEntity
  8
RPi4_PARTS_TOP
  6
ByLayer
 62
  256
370
   -1
100
AcDbPolyline
 90
    5
 70
    0
 43
0
 10
25.5
 20
20.15000000000001
 10
24.89999999999998
 20
20.15000000000001
 10
24.89999999999998
 20
19.85000000000001
 10
25.5
 20
19.85000000000001
 10
25.5
 20
20.15000000000001
  0
LWPOLYLINE
  5
18E
100
AcDbEntity
  8
RPi4_PARTS_TOP
  6
ByLayer
 62
  256
370
   -1
100
AcDbPolyline
 90
    2
 70
    0
 43
0
 10
25.39999999999998
 20
20.15000000000001
 10
25.39999999999998
 20
19.85000000000001
  0
LWPOLYLINE
  5
18F
100
AcDbEntity
  8
RPi4_PARTS_TOP
  6
ByLayer
 62
  256
370
   -1
100
AcDbPolyline
 90
    2
 70
    0
 43
0
 10
25
 20
19.85000000000001
 10
25
 20
20.15000000000001
  0
LWPOLYLINE
  5
190
100
AcDbEntity
  8
RPi4_PARTS_TOP
  6
ByLayer
 62
  256
370
   -1
100
AcDbPolyline
 90
    5
 70
    0
 43
0
 10
22.90000000000001
 20
36.65000000000001
 10
22.30000000000001
 20
36.65000000000001
 10
22.30000000000001
 20
36.35000000000001
 10
22.90000000000001
 20
36.35000000000001
 10
22.90000000000001
 20
36.65000000000001
  0
LWPOLYLINE
  5
191
100
AcDbEntity
  8
RPi4_PARTS_TOP
  6
ByLayer
 62
  256
370
   -1
100
AcDbPolyline
 90
    2
 70
    0
 43
0
 10
22.80000000000001
 20
36.65000000000001
 10
22.80000000000001
 20
36.35000000000001
  0
LWPOLYLINE
  5
192
100
AcDbEntity
  8
RPi4_PARTS_TOP
  6
ByLayer
 62
  256
370
   -1
100
AcDbPolyline
 90
    2
 70
    0
 43
0
 10
22.40000000000001
 20
36.35000000000001
 10
22.40000000000001
 20
36.65000000000001
  0
LWPOLYLINE
  5
193
100
AcDbEntity
  8
RPi4_PARTS_TOP
  6
ByLayer
 62
  256
370
   -1
100
AcDbPolyline
 90
    5
 70
    0
 43
0
 10
86.14999999999998
 20
38.6
 10
86.14999999999998
 20
38
 10
86.44999999999999
 20
38
 10
86.44999999999999
 20
38.6
 10
86.14999999999998
 20
38.6
  0
LWPOLYLINE
  5
194
100
AcDbEntity
  8
RPi4_PARTS_TOP
  6
ByLayer
 62
  256
370
   -1
100
AcDbPolyline
 90
    2
 70
    0
 43
0
 10
86.14999999999998
 20
38.5
 10
86.44999999999999
 20
38.5
  0
LWPOLYLINE
  5
195
100
AcDbEntity
  8
RPi4_PARTS_TOP
  6
ByLayer
 62
  256
370
   -1
100
AcDbPolyline
 90
    2
 70
    0
 43
0
 10
86.44999999999999
 20
38.1
 10
86.14999999999998
 20
38.1
  0
LWPOLYLINE
  5
196
100
AcDbEntity
  8
RPi4_PARTS_TOP
  6
ByLayer
 62
  256
370
   -1
100
AcDbPolyline
 90
    5
 70
    0
 43
0
 10
49.44999999999999
 20
14.20000000000001
 10
48.84999999999999
 20
14.20000000000001
 10
48.84999999999999
 20
13.90000000000001
 10
49.44999999999999
 20
13.90000000000001
 10
49.44999999999999
 20
14.20000000000001
  0
LWPOLYLINE
  5
197
100
AcDbEntity
  8
RPi4_PARTS_TOP
  6
ByLayer
 62
  256
370
   -1
100
AcDbPolyline
 90
    2
 70
    0
 43
0
 10
49.34999999999999
 20
14.20000000000001
 10
49.34999999999999
 20
13.90000000000001
  0
LWPOLYLINE
  5
198
100
AcDbEntity
  8
RPi4_PARTS_TOP
  6
ByLayer
 62
  256
370
   -1
100
AcDbPolyline
 90
    2
 70
    0
 43
0
 10
48.94999999999999
 20
13.90000000000001
 10
48.94999999999999
 20
14.20000000000001
  0
LWPOLYLINE
  5
199
100
AcDbEntity
  8
RPi4_PARTS_TOP
  6
ByLayer
 62
  256
370
   -1
100
AcDbPolyline
 90
    5
 70
    0
 43
0
 10
65.80000000000001
 20
15
 10
66.39999999999998
 20
15
 10
66.39999999999998
 20
15.3
 10
65.80000000000001
 20
15.3
 10
65.80000000000001
 20
15
  0
LWPOLYLINE
  5
19A
100
AcDbEntity
  8
RPi4_PARTS_TOP
  6
ByLayer
 62
  256
370
   -1
100
AcDbPolyline
 90
    2
 70
    0
 43
0
 10
65.89999999999998
 20
15
 10
65.89999999999998
 20
15.3
  0
LWPOLYLINE
  5
19B
100
AcDbEntity
  8
RPi4_PARTS_TOP
  6
ByLayer
 62
  256
370
   -1
100
AcDbPolyline
 90
    2
 70
    0
 43
0
 10
66.30000000000001
 20
15.3
 10
66.30000000000001
 20
15
  0
LWPOLYLINE
  5
19C
100
AcDbEntity
  8
RPi4_PARTS_TOP
  6
ByLayer
 62
  256
370
   -1
100
AcDbPolyline
 90
    5
 70
    0
 43
0
 10
65.80000000000001
 20
14.35
 10
66.39999999999998
 20
14.35
 10
66.39999999999998
 20
14.65
 10
65.80000000000001
 20
14.65
 10
65.80000000000001
 20
14.35
  0
LWPOLYLINE
  5
19D
100
AcDbEntity
  8
RPi4_PARTS_TOP
  6
ByLayer
 62
  256
370
   -1
100
AcDbPolyline
 90
    2
 70
    0
 43
0
 10
65.89999999999998
 20
14.35
 10
65.89999999999998
 20
14.65
  0
LWPOLYLINE
  5
19E
100
AcDbEntity
  8
RPi4_PARTS_TOP
  6
ByLayer
 62
  256
370
   -1
100
AcDbPolyline
 90
    2
 70
    0
 43
0
 10
66.30000000000001
 20
14.65
 10
66.30000000000001
 20
14.35
  0
LWPOLYLINE
  5
19F
100
AcDbEntity
  8
RPi4_PARTS_TOP
  6
ByLayer
 62
  256
370
   -1
100
AcDbPolyline
 90
    5
 70
    0
 43
0
 10
43.69999999999999
 20
15.15000000000001
 10
44.29999999999998
 20
15.15000000000001
 10
44.29999999999998
 20
15.45000000000001
 10
43.69999999999999
 20
15.45000000000001
 10
43.69999999999999
 20
15.15000000000001
  0
LWPOLYLINE
  5
1A0
100
AcDbEntity
  8
RPi4_PARTS_TOP
  6
ByLayer
 62
  256
370
   -1
100
AcDbPolyline
 90
    2
 70
    0
 43
0
 10
43.79999999999998
 20
15.15000000000001
 10
43.79999999999998
 20
15.45000000000001
  0
LWPOLYLINE
  5
1A1
100
AcDbEntity
  8
RPi4_PARTS_TOP
  6
ByLayer
 62
  256
370
   -1
100
AcDbPolyline
 90
    2
 70
    0
 43
0
 10
44.19999999999999
 20
15.45000000000001
 10
44.19999999999999
 20
15.15000000000001
  0
LWPOLYLINE
  5
1A2
100
AcDbEntity
  8
RPi4_PARTS_TOP
  6
ByLayer
 62
  256
370
   -1
100
AcDbPolyline
 90
    5
 70
    0
 43
0
 10
42.69999999999999
 20
15.45000000000001
 10
42.09999999999999
 20
15.45000000000001
 10
42.09999999999999
 20
15.15000000000001
 10
42.69999999999999
 20
15.15000000000001
 10
42.69999999999999
 20
15.45000000000001
  0
LWPOLYLINE
  5
1A3
100
AcDbEntity
  8
RPi4_PARTS_TOP
  6
ByLayer
 62
  256
370
   -1
100
AcDbPolyline
 90
    2
 70
    0
 43
0
 10
42.59999999999999
 20
15.45000000000001
 10
42.59999999999999
 20
15.15000000000001
  0
LWPOLYLINE
  5
1A4
100
AcDbEntity
  8
RPi4_PARTS_TOP
  6
ByLayer
 62
  256
370
   -1
100
AcDbPolyline
 90
    2
 70
    0
 43
0
 10
42.19999999999999
 20
15.15000000000001
 10
42.19999999999999
 20
15.45000000000001
  0
LWPOLYLINE
  5
1A5
100
AcDbEntity
  8
RPi4_PARTS_TOP
  6
ByLayer
 62
  256
370
   -1
100
AcDbPolyline
 90
    5
 70
    0
 43
0
 10
32.55000000000001
 20
41.7
 10
32.55000000000001
 20
42.30000000000001
 10
32.25
 20
42.30000000000001
 10
32.25
 20
41.7
 10
32.55000000000001
 20
41.7
  0
LWPOLYLINE
  5
1A6
100
AcDbEntity
  8
RPi4_PARTS_TOP
  6
ByLayer
 62
  256
370
   -1
100
AcDbPolyline
 90
    2
 70
    0
 43
0
 10
32.55000000000001
 20
41.80000000000001
 10
32.25
 20
41.80000000000001
  0
LWPOLYLINE
  5
1A7
100
AcDbEntity
  8
RPi4_PARTS_TOP
  6
ByLayer
 62
  256
370
   -1
100
AcDbPolyline
 90
    2
 70
    0
 43
0
 10
32.25
 20
42.2
 10
32.55000000000001
 20
42.2
  0
LWPOLYLINE
  5
1A8
100
AcDbEntity
  8
RPi4_PARTS_TOP
  6
ByLayer
 62
  256
370
   -1
100
AcDbPolyline
 90
    5
 70
    0
 43
0
 10
54.5
 20
52.85
 10
55.09999999999999
 20
52.85
 10
55.09999999999999
 20
53.15000000000001
 10
54.5
 20
53.15000000000001
 10
54.5
 20
52.85
  0
LWPOLYLINE
  5
1A9
100
AcDbEntity
  8
RPi4_PARTS_TOP
  6
ByLayer
 62
  256
370
   -1
100
AcDbPolyline
 90
    2
 70
    0
 43
0
 10
54.59999999999999
 20
52.85
 10
54.59999999999999
 20
53.15000000000001
  0
LWPOLYLINE
  5
1AA
100
AcDbEntity
  8
RPi4_PARTS_TOP
  6
ByLayer
 62
  256
370
   -1
100
AcDbPolyline
 90
    2
 70
    0
 43
0
 10
55
 20
53.15000000000001
 10
55
 20
52.85
  0
LWPOLYLINE
  5
1AB
100
AcDbEntity
  8
RPi4_PARTS_TOP
  6
ByLayer
 62
  256
370
   -1
100
AcDbPolyline
 90
    5
 70
    0
 43
0
 10
55.40000000000001
 20
48.3
 10
56
 20
48.3
 10
56
 20
48.6
 10
55.40000000000001
 20
48.6
 10
55.40000000000001
 20
48.3
  0
LWPOLYLINE
  5
1AC
100
AcDbEntity
  8
RPi4_PARTS_TOP
  6
ByLayer
 62
  256
370
   -1
100
AcDbPolyline
 90
    2
 70
    0
 43
0
 10
55.5
 20
48.3
 10
55.5
 20
48.6
  0
LWPOLYLINE
  5
1AD
100
AcDbEntity
  8
RPi4_PARTS_TOP
  6
ByLayer
 62
  256
370
   -1
100
AcDbPolyline
 90
    2
 70
    0
 43
0
 10
55.90000000000001
 20
48.6
 10
55.90000000000001
 20
48.3
  0
LWPOLYLINE
  5
1AE
100
AcDbEntity
  8
RPi4_PARTS_TOP
  6
ByLayer
 62
  256
370
   -1
100
AcDbPolyline
 90
    5
 70
    0
 43
0
 10
22.65000000000001
 20
49.50000000000001
 10
22.65000000000001
 20
50.10000000000001
 10
22.34999999999999
 20
50.10000000000001
 10
22.34999999999999
 20
49.50000000000001
 10
22.65000000000001
 20
49.50000000000001
  0
LWPOLYLINE
  5
1AF
100
AcDbEntity
  8
RPi4_PARTS_TOP
  6
ByLayer
 62
  256
370
   -1
100
AcDbPolyline
 90
    2
 70
    0
 43
0
 10
22.65000000000001
 20
49.60000000000001
 10
22.34999999999999
 20
49.60000000000001
  0
LWPOLYLINE
  5
1B0
100
AcDbEntity
  8
RPi4_PARTS_TOP
  6
ByLayer
 62
  256
370
   -1
100
AcDbPolyline
 90
    2
 70
    0
 43
0
 10
22.34999999999999
 20
50.00000000000001
 10
22.65000000000001
 20
50.00000000000001
  0
LWPOLYLINE
  5
1B1
100
AcDbEntity
  8
RPi4_PARTS_TOP
  6
ByLayer
 62
  256
370
   -1
100
AcDbPolyline
 90
    5
 70
    0
 43
0
 10
31.84999999999999
 20
41.7
 10
31.84999999999999
 20
42.30000000000001
 10
31.55000000000001
 20
42.30000000000001
 10
31.55000000000001
 20
41.7
 10
31.84999999999999
 20
41.7
  0
LWPOLYLINE
  5
1B2
100
AcDbEntity
  8
RPi4_PARTS_TOP
  6
ByLayer
 62
  256
370
   -1
100
AcDbPolyline
 90
    2
 70
    0
 43
0
 10
31.84999999999999
 20
41.80000000000001
 10
31.55000000000001
 20
41.80000000000001
  0
LWPOLYLINE
  5
1B3
100
AcDbEntity
  8
RPi4_PARTS_TOP
  6
ByLayer
 62
  256
370
   -1
100
AcDbPolyline
 90
    2
 70
    0
 43
0
 10
31.55000000000001
 20
42.2
 10
31.84999999999999
 20
42.2
  0
LWPOLYLINE
  5
1B4
100
AcDbEntity
  8
RPi4_PARTS_TOP
  6
ByLayer
 62
  256
370
   -1
100
AcDbPolyline
 90
    5
 70
    0
 43
0
 10
33.25
 20
41.7
 10
33.25
 20
42.30000000000001
 10
32.94999999999999
 20
42.30000000000001
 10
32.94999999999999
 20
41.7
 10
33.25
 20
41.7
  0
LWPOLYLINE
  5
1B5
100
AcDbEntity
  8
RPi4_PARTS_TOP
  6
ByLayer
 62
  256
370
   -1
100
AcDbPolyline
 90
    2
 70
    0
 43
0
 10
33.25
 20
41.80000000000001
 10
32.94999999999999
 20
41.80000000000001
  0
LWPOLYLINE
  5
1B6
100
AcDbEntity
  8
RPi4_PARTS_TOP
  6
ByLayer
 62
  256
370
   -1
100
AcDbPolyline
 90
    2
 70
    0
 43
0
 10
32.94999999999999
 20
42.2
 10
33.25
 20
42.2
  0
LWPOLYLINE
  5
1B7
100
AcDbEntity
  8
RPi4_PARTS_TOP
  6
ByLayer
 62
  256
370
   -1
100
AcDbPolyline
 90
    5
 70
    0
 43
0
 10
61.78179999999998
 20
8.906100000000002
 10
62.20609999999999
 20
8.4818
 10
62.41819999999998
 20
8.693899999999999
 10
61.9939
 20
9.118200000000002
 10
61.78179999999998
 20
8.906100000000002
  0
LWPOLYLINE
  5
1B8
100
AcDbEntity
  8
RPi4_PARTS_TOP
  6
ByLayer
 62
  256
370
   -1
100
AcDbPolyline
 90
    2
 70
    0
 43
0
 10
61.85249999999999
 20
8.8354
 10
62.06459999999998
 20
9.047499999999999
  0
LWPOLYLINE
  5
1B9
100
AcDbEntity
  8
RPi4_PARTS_TOP
  6
ByLayer
 62
  256
370
   -1
100
AcDbPolyline
 90
    2
 70
    0
 43
0
 10
62.3475
 20
8.764600000000002
 10
62.1354
 20
8.552500000000002
  0
LWPOLYLINE
  5
1BA
100
AcDbEntity
  8
RPi4_PARTS_TOP
  6
ByLayer
 62
  256
370
   -1
100
AcDbPolyline
 90
    5
 70
    0
 43
0
 10
80.44999999999999
 20
47.6
 10
80.44999999999999
 20
48.2
 10
80.15000000000001
 20
48.2
 10
80.15000000000001
 20
47.6
 10
80.44999999999999
 20
47.6
  0
LWPOLYLINE
  5
1BB
100
AcDbEntity
  8
RPi4_PARTS_TOP
  6
ByLayer
 62
  256
370
   -1
100
AcDbPolyline
 90
    2
 70
    0
 43
0
 10
80.44999999999999
 20
47.7
 10
80.15000000000001
 20
47.7
  0
LWPOLYLINE
  5
1BC
100
AcDbEntity
  8
RPi4_PARTS_TOP
  6
ByLayer
 62
  256
370
   -1
100
AcDbPolyline
 90
    2
 70
    0
 43
0
 10
80.15000000000001
 20
48.1
 10
80.44999999999999
 20
48.1
  0
LWPOLYLINE
  5
1BD
100
AcDbEntity
  8
RPi4_PARTS_TOP
  6
ByLayer
 62
  256
370
   -1
100
AcDbPolyline
 90
    5
 70
    0
 43
0
 10
28.65000000000001
 20
39.10000000000001
 10
28.65000000000001
 20
38.50000000000001
 10
28.94999999999999
 20
38.50000000000001
 10
28.94999999999999
 20
39.10000000000001
 10
28.65000000000001
 20
39.10000000000001
  0
LWPOLYLINE
  5
1BE
100
AcDbEntity
  8
RPi4_PARTS_TOP
  6
ByLayer
 62
  256
370
   -1
100
AcDbPolyline
 90
    2
 70
    0
 43
0
 10
28.65000000000001
 20
39.00000000000001
 10
28.94999999999999
 20
39.00000000000001
  0
LWPOLYLINE
  5
1BF
100
AcDbEntity
  8
RPi4_PARTS_TOP
  6
ByLayer
 62
  256
370
   -1
100
AcDbPolyline
 90
    2
 70
    0
 43
0
 10
28.94999999999999
 20
38.60000000000001
 10
28.65000000000001
 20
38.60000000000001
  0
LWPOLYLINE
  5
1C0
100
AcDbEntity
  8
RPi4_PARTS_TOP
  6
ByLayer
 62
  256
370
   -1
100
AcDbPolyline
 90
    5
 70
    0
 43
0
 10
24.34999999999999
 20
38.50000000000001
 10
24.34999999999999
 20
39.10000000000001
 10
24.05000000000001
 20
39.10000000000001
 10
24.05000000000001
 20
38.50000000000001
 10
24.34999999999999
 20
38.50000000000001
  0
LWPOLYLINE
  5
1C1
100
AcDbEntity
  8
RPi4_PARTS_TOP
  6
ByLayer
 62
  256
370
   -1
100
AcDbPolyline
 90
    2
 70
    0
 43
0
 10
24.34999999999999
 20
38.60000000000001
 10
24.05000000000001
 20
38.60000000000001
  0
LWPOLYLINE
  5
1C2
100
AcDbEntity
  8
RPi4_PARTS_TOP
  6
ByLayer
 62
  256
370
   -1
100
AcDbPolyline
 90
    2
 70
    0
 43
0
 10
24.05000000000001
 20
39.00000000000001
 10
24.34999999999999
 20
39.00000000000001
  0
LWPOLYLINE
  5
1C3
100
AcDbEntity
  8
RPi4_PARTS_TOP
  6
ByLayer
 62
  256
370
   -1
100
AcDbPolyline
 90
    5
 70
    0
 43
0
 10
80.44999999999999
 20
13.75
 10
80.44999999999999
 20
14.35
 10
80.14999999999998
 20
14.35
 10
80.14999999999998
 20
13.75
 10
80.44999999999999
 20
13.75
  0
LWPOLYLINE
  5
1C4
100
AcDbEntity
  8
RPi4_PARTS_TOP
  6
ByLayer
 62
  256
370
   -1
100
AcDbPolyline
 90
    2
 70
    0
 43
0
 10
80.44999999999999
 20
13.85
 10
80.14999999999998
 20
13.85
  0
LWPOLYLINE
  5
1C5
100
AcDbEntity
  8
RPi4_PARTS_TOP
  6
ByLayer
 62
  256
370
   -1
100
AcDbPolyline
 90
    2
 70
    0
 43
0
 10
80.14999999999998
 20
14.25
 10
80.44999999999999
 20
14.25
  0
LWPOLYLINE
  5
1C6
100
AcDbEntity
  8
RPi4_PARTS_TOP
  6
ByLayer
 62
  256
370
   -1
100
AcDbPolyline
 90
    5
 70
    0
 43
0
 10
72.19999999999999
 20
13.95
 10
71.59999999999999
 20
13.95
 10
71.59999999999999
 20
13.65
 10
72.19999999999999
 20
13.65
 10
72.19999999999999
 20
13.95
  0
LWPOLYLINE
  5
1C7
100
AcDbEntity
  8
RPi4_PARTS_TOP
  6
ByLayer
 62
  256
370
   -1
100
AcDbPolyline
 90
    2
 70
    0
 43
0
 10
72.09999999999999
 20
13.95
 10
72.09999999999999
 20
13.65
  0
LWPOLYLINE
  5
1C8
100
AcDbEntity
  8
RPi4_PARTS_TOP
  6
ByLayer
 62
  256
370
   -1
100
AcDbPolyline
 90
    2
 70
    0
 43
0
 10
71.69999999999999
 20
13.65
 10
71.69999999999999
 20
13.95
  0
LWPOLYLINE
  5
1C9
100
AcDbEntity
  8
RPi4_PARTS_TOP
  6
ByLayer
 62
  256
370
   -1
100
AcDbPolyline
 90
    5
 70
    0
 43
0
 10
78.14999999999998
 20
17.6
 10
78.14999999999998
 20
18.2
 10
77.84999999999999
 20
18.2
 10
77.84999999999999
 20
17.6
 10
78.14999999999998
 20
17.6
  0
LWPOLYLINE
  5
1CA
100
AcDbEntity
  8
RPi4_PARTS_TOP
  6
ByLayer
 62
  256
370
   -1
100
AcDbPolyline
 90
    2
 70
    0
 43
0
 10
78.14999999999998
 20
17.7
 10
77.84999999999999
 20
17.7
  0
LWPOLYLINE
  5
1CB
100
AcDbEntity
  8
RPi4_PARTS_TOP
  6
ByLayer
 62
  256
370
   -1
100
AcDbPolyline
 90
    2
 70
    0
 43
0
 10
77.84999999999999
 20
18.1
 10
78.14999999999998
 20
18.1
  0
LWPOLYLINE
  5
1CC
100
AcDbEntity
  8
RPi4_PARTS_TOP
  6
ByLayer
 62
  256
370
   -1
100
AcDbPolyline
 90
    5
 70
    0
 43
0
 10
73.19999999999999
 20
12.9
 10
72.59999999999999
 20
12.9
 10
72.59999999999999
 20
12.6
 10
73.19999999999999
 20
12.6
 10
73.19999999999999
 20
12.9
  0
LWPOLYLINE
  5
1CD
100
AcDbEntity
  8
RPi4_PARTS_TOP
  6
ByLayer
 62
  256
370
   -1
100
AcDbPolyline
 90
    2
 70
    0
 43
0
 10
73.09999999999999
 20
12.9
 10
73.09999999999999
 20
12.6
  0
LWPOLYLINE
  5
1CE
100
AcDbEntity
  8
RPi4_PARTS_TOP
  6
ByLayer
 62
  256
370
   -1
100
AcDbPolyline
 90
    2
 70
    0
 43
0
 10
72.69999999999999
 20
12.6
 10
72.69999999999999
 20
12.9
  0
LWPOLYLINE
  5
1CF
100
AcDbEntity
  8
RPi4_PARTS_TOP
  6
ByLayer
 62
  256
370
   -1
100
AcDbPolyline
 90
    5
 70
    0
 43
0
 10
74.25
 20
11.2
 10
74.25
 20
10.6
 10
74.55000000000001
 20
10.6
 10
74.55000000000001
 20
11.2
 10
74.25
 20
11.2
  0
LWPOLYLINE
  5
1D0
100
AcDbEntity
  8
RPi4_PARTS_TOP
  6
ByLayer
 62
  256
370
   -1
100
AcDbPolyline
 90
    2
 70
    0
 43
0
 10
74.25
 20
11.1
 10
74.55000000000001
 20
11.1
  0
LWPOLYLINE
  5
1D1
100
AcDbEntity
  8
RPi4_PARTS_TOP
  6
ByLayer
 62
  256
370
   -1
100
AcDbPolyline
 90
    2
 70
    0
 43
0
 10
74.55000000000001
 20
10.7
 10
74.25
 20
10.7
  0
LWPOLYLINE
  5
1D2
100
AcDbEntity
  8
RPi4_PARTS_TOP
  6
ByLayer
 62
  256
370
   -1
100
AcDbPolyline
 90
    5
 70
    0
 43
0
 10
74.84999999999999
 20
11.2
 10
74.84999999999999
 20
10.6
 10
75.14999999999998
 20
10.6
 10
75.14999999999998
 20
11.2
 10
74.84999999999999
 20
11.2
  0
LWPOLYLINE
  5
1D3
100
AcDbEntity
  8
RPi4_PARTS_TOP
  6
ByLayer
 62
  256
370
   -1
100
AcDbPolyline
 90
    2
 70
    0
 43
0
 10
74.84999999999999
 20
11.1
 10
75.14999999999998
 20
11.1
  0
LWPOLYLINE
  5
1D4
100
AcDbEntity
  8
RPi4_PARTS_TOP
  6
ByLayer
 62
  256
370
   -1
100
AcDbPolyline
 90
    2
 70
    0
 43
0
 10
75.14999999999998
 20
10.7
 10
74.84999999999999
 20
10.7
  0
LWPOLYLINE
  5
1D5
100
AcDbEntity
  8
RPi4_PARTS_TOP
  6
ByLayer
 62
  256
370
   -1
100
AcDbPolyline
 90
    5
 70
    0
 43
0
 10
34.59999999999999
 20
30.65000000000001
 10
34
 20
30.65000000000001
 10
34
 20
30.35000000000001
 10
34.59999999999999
 20
30.35000000000001
 10
34.59999999999999
 20
30.65000000000001
  0
LWPOLYLINE
  5
1D6
100
AcDbEntity
  8
RPi4_PARTS_TOP
  6
ByLayer
 62
  256
370
   -1
100
AcDbPolyline
 90
    2
 70
    0
 43
0
 10
34.5
 20
30.65000000000001
 10
34.5
 20
30.35000000000001
  0
LWPOLYLINE
  5
1D7
100
AcDbEntity
  8
RPi4_PARTS_TOP
  6
ByLayer
 62
  256
370
   -1
100
AcDbPolyline
 90
    2
 70
    0
 43
0
 10
34.09999999999999
 20
30.35000000000001
 10
34.09999999999999
 20
30.65000000000001
  0
LWPOLYLINE
  5
1D8
100
AcDbEntity
  8
RPi4_PARTS_TOP
  6
ByLayer
 62
  256
370
   -1
100
AcDbPolyline
 90
    5
 70
    0
 43
0
 10
34.59999999999999
 20
30.05000000000001
 10
34
 20
30.05000000000001
 10
34
 20
29.75000000000001
 10
34.59999999999999
 20
29.75000000000001
 10
34.59999999999999
 20
30.05000000000001
  0
LWPOLYLINE
  5
1D9
100
AcDbEntity
  8
RPi4_PARTS_TOP
  6
ByLayer
 62
  256
370
   -1
100
AcDbPolyline
 90
    2
 70
    0
 43
0
 10
34.5
 20
30.05000000000001
 10
34.5
 20
29.75000000000001
  0
LWPOLYLINE
  5
1DA
100
AcDbEntity
  8
RPi4_PARTS_TOP
  6
ByLayer
 62
  256
370
   -1
100
AcDbPolyline
 90
    2
 70
    0
 43
0
 10
34.09999999999999
 20
29.75000000000001
 10
34.09999999999999
 20
30.05000000000001
  0
LWPOLYLINE
  5
1DB
100
AcDbEntity
  8
RPi4_PARTS_TOP
  6
ByLayer
 62
  256
370
   -1
100
AcDbPolyline
 90
    5
 70
    0
 43
0
 10
34.59999999999999
 20
33.05000000000001
 10
34
 20
33.05000000000001
 10
34
 20
32.75000000000001
 10
34.59999999999999
 20
32.75000000000001
 10
34.59999999999999
 20
33.05000000000001
  0
LWPOLYLINE
  5
1DC
100
AcDbEntity
  8
RPi4_PARTS_TOP
  6
ByLayer
 62
  256
370
   -1
100
AcDbPolyline
 90
    2
 70
    0
 43
0
 10
34.5
 20
33.05000000000001
 10
34.5
 20
32.75000000000001
  0
LWPOLYLINE
  5
1DD
100
AcDbEntity
  8
RPi4_PARTS_TOP
  6
ByLayer
 62
  256
370
   -1
100
AcDbPolyline
 90
    2
 70
    0
 43
0
 10
34.09999999999999
 20
32.75000000000001
 10
34.09999999999999
 20
33.05000000000001
  0
LWPOLYLINE
  5
1DE
100
AcDbEntity
  8
RPi4_PARTS_TOP
  6
ByLayer
 62
  256
370
   -1
100
AcDbPolyline
 90
    5
 70
    0
 43
0
 10
34.59999999999999
 20
32.45
 10
34
 20
32.45
 10
34
 20
32.15000000000001
 10
34.59999999999999
 20
32.15000000000001
 10
34.59999999999999
 20
32.45
  0
LWPOLYLINE
  5
1DF
100
AcDbEntity
  8
RPi4_PARTS_TOP
  6
ByLayer
 62
  256
370
   -1
100
AcDbPolyline
 90
    2
 70
    0
 43
0
 10
34.5
 20
32.45
 10
34.5
 20
32.15000000000001
  0
LWPOLYLINE
  5
1E0
100
AcDbEntity
  8
RPi4_PARTS_TOP
  6
ByLayer
 62
  256
370
   -1
100
AcDbPolyline
 90
    2
 70
    0
 43
0
 10
34.09999999999999
 20
32.15000000000001
 10
34.09999999999999
 20
32.45
  0
LWPOLYLINE
  5
1E1
100
AcDbEntity
  8
RPi4_PARTS_TOP
  6
ByLayer
 62
  256
370
   -1
100
AcDbPolyline
 90
    5
 70
    0
 43
0
 10
22.30000000000001
 20
30.95000000000001
 10
22.90000000000001
 20
30.95000000000001
 10
22.90000000000001
 20
31.25000000000001
 10
22.30000000000001
 20
31.25000000000001
 10
22.30000000000001
 20
30.95000000000001
  0
LWPOLYLINE
  5
1E2
100
AcDbEntity
  8
RPi4_PARTS_TOP
  6
ByLayer
 62
  256
370
   -1
100
AcDbPolyline
 90
    2
 70
    0
 43
0
 10
22.40000000000001
 20
30.95000000000001
 10
22.40000000000001
 20
31.25000000000001
  0
LWPOLYLINE
  5
1E3
100
AcDbEntity
  8
RPi4_PARTS_TOP
  6
ByLayer
 62
  256
370
   -1
100
AcDbPolyline
 90
    2
 70
    0
 43
0
 10
22.80000000000001
 20
31.25000000000001
 10
22.80000000000001
 20
30.95000000000001
  0
LWPOLYLINE
  5
1E4
100
AcDbEntity
  8
RPi4_PARTS_TOP
  6
ByLayer
 62
  256
370
   -1
100
AcDbPolyline
 90
    5
 70
    0
 43
0
 10
22.30000000000001
 20
31.60000000000001
 10
22.90000000000001
 20
31.60000000000001
 10
22.90000000000001
 20
31.90000000000001
 10
22.30000000000001
 20
31.90000000000001
 10
22.30000000000001
 20
31.60000000000001
  0
LWPOLYLINE
  5
1E5
100
AcDbEntity
  8
RPi4_PARTS_TOP
  6
ByLayer
 62
  256
370
   -1
100
AcDbPolyline
 90
    2
 70
    0
 43
0
 10
22.40000000000001
 20
31.60000000000001
 10
22.40000000000001
 20
31.90000000000001
  0
LWPOLYLINE
  5
1E6
100
AcDbEntity
  8
RPi4_PARTS_TOP
  6
ByLayer
 62
  256
370
   -1
100
AcDbPolyline
 90
    2
 70
    0
 43
0
 10
22.80000000000001
 20
31.90000000000001
 10
22.80000000000001
 20
31.60000000000001
  0
LWPOLYLINE
  5
1E7
100
AcDbEntity
  8
RPi4_PARTS_TOP
  6
ByLayer
 62
  256
370
   -1
100
AcDbPolyline
 90
    5
 70
    0
 43
0
 10
22.30000000000001
 20
34.55000000000001
 10
22.90000000000001
 20
34.55000000000001
 10
22.90000000000001
 20
34.85000000000001
 10
22.30000000000001
 20
34.85000000000001
 10
22.30000000000001
 20
34.55000000000001
  0
LWPOLYLINE
  5
1E8
100
AcDbEntity
  8
RPi4_PARTS_TOP
  6
ByLayer
 62
  256
370
   -1
100
AcDbPolyline
 90
    2
 70
    0
 43
0
 10
22.40000000000001
 20
34.55000000000001
 10
22.40000000000001
 20
34.85000000000001
  0
LWPOLYLINE
  5
1E9
100
AcDbEntity
  8
RPi4_PARTS_TOP
  6
ByLayer
 62
  256
370
   -1
100
AcDbPolyline
 90
    2
 70
    0
 43
0
 10
22.80000000000001
 20
34.85000000000001
 10
22.80000000000001
 20
34.55000000000001
  0
LWPOLYLINE
  5
1EA
100
AcDbEntity
  8
RPi4_PARTS_TOP
  6
ByLayer
 62
  256
370
   -1
100
AcDbPolyline
 90
    5
 70
    0
 43
0
 10
22.30000000000001
 20
35.2
 10
22.90000000000001
 20
35.2
 10
22.90000000000001
 20
35.50000000000001
 10
22.30000000000001
 20
35.50000000000001
 10
22.30000000000001
 20
35.2
  0
LWPOLYLINE
  5
1EB
100
AcDbEntity
  8
RPi4_PARTS_TOP
  6
ByLayer
 62
  256
370
   -1
100
AcDbPolyline
 90
    2
 70
    0
 43
0
 10
22.40000000000001
 20
35.2
 10
22.40000000000001
 20
35.50000000000001
  0
LWPOLYLINE
  5
1EC
100
AcDbEntity
  8
RPi4_PARTS_TOP
  6
ByLayer
 62
  256
370
   -1
100
AcDbPolyline
 90
    2
 70
    0
 43
0
 10
22.80000000000001
 20
35.50000000000001
 10
22.80000000000001
 20
35.2
  0
LWPOLYLINE
  5
1ED
100
AcDbEntity
  8
RPi4_PARTS_TOP
  6
ByLayer
 62
  256
370
   -1
100
AcDbPolyline
 90
    5
 70
    0
 43
0
 10
78.69999999999999
 20
14.15
 10
79.30000000000001
 20
14.15
 10
79.30000000000001
 20
14.45
 10
78.69999999999999
 20
14.45
 10
78.69999999999999
 20
14.15
  0
LWPOLYLINE
  5
1EE
100
AcDbEntity
  8
RPi4_PARTS_TOP
  6
ByLayer
 62
  256
370
   -1
100
AcDbPolyline
 90
    2
 70
    0
 43
0
 10
78.80000000000001
 20
14.15
 10
78.80000000000001
 20
14.45
  0
LWPOLYLINE
  5
1EF
100
AcDbEntity
  8
RPi4_PARTS_TOP
  6
ByLayer
 62
  256
370
   -1
100
AcDbPolyline
 90
    2
 70
    0
 43
0
 10
79.19999999999999
 20
14.45
 10
79.19999999999999
 20
14.15
  0
LWPOLYLINE
  5
1F0
100
AcDbEntity
  8
RPi4_PARTS_TOP
  6
ByLayer
 62
  256
370
   -1
100
AcDbPolyline
 90
    5
 70
    0
 43
0
 10
75.44999999999999
 20
11.2
 10
75.44999999999999
 20
10.6
 10
75.75
 20
10.6
 10
75.75
 20
11.2
 10
75.44999999999999
 20
11.2
  0
LWPOLYLINE
  5
1F1
100
AcDbEntity
  8
RPi4_PARTS_TOP
  6
ByLayer
 62
  256
370
   -1
100
AcDbPolyline
 90
    2
 70
    0
 43
0
 10
75.44999999999999
 20
11.1
 10
75.75
 20
11.1
  0
LWPOLYLINE
  5
1F2
100
AcDbEntity
  8
RPi4_PARTS_TOP
  6
ByLayer
 62
  256
370
   -1
100
AcDbPolyline
 90
    2
 70
    0
 43
0
 10
75.75
 20
10.7
 10
75.44999999999999
 20
10.7
  0
LWPOLYLINE
  5
1F3
100
AcDbEntity
  8
RPi4_PARTS_TOP
  6
ByLayer
 62
  256
370
   -1
100
AcDbPolyline
 90
    5
 70
    0
 43
0
 10
79.5
 20
18
 10
80.09999999999999
 20
18
 10
80.09999999999999
 20
18.3
 10
79.5
 20
18.3
 10
79.5
 20
18
  0
LWPOLYLINE
  5
1F4
100
AcDbEntity
  8
RPi4_PARTS_TOP
  6
ByLayer
 62
  256
370
   -1
100
AcDbPolyline
 90
    2
 70
    0
 43
0
 10
79.59999999999999
 20
18
 10
79.59999999999999
 20
18.3
  0
LWPOLYLINE
  5
1F5
100
AcDbEntity
  8
RPi4_PARTS_TOP
  6
ByLayer
 62
  256
370
   -1
100
AcDbPolyline
 90
    2
 70
    0
 43
0
 10
80
 20
18.3
 10
80
 20
18
  0
LWPOLYLINE
  5
1F6
100
AcDbEntity
  8
RPi4_PARTS_TOP
  6
ByLayer
 62
  256
370
   -1
100
AcDbPolyline
 90
    5
 70
    0
 43
0
 10
79.80000000000001
 20
15.3
 10
80.39999999999998
 20
15.3
 10
80.39999999999998
 20
15.6
 10
79.80000000000001
 20
15.6
 10
79.80000000000001
 20
15.3
  0
LWPOLYLINE
  5
1F7
100
AcDbEntity
  8
RPi4_PARTS_TOP
  6
ByLayer
 62
  256
370
   -1
100
AcDbPolyline
 90
    2
 70
    0
 43
0
 10
79.89999999999998
 20
15.3
 10
79.89999999999998
 20
15.6
  0
LWPOLYLINE
  5
1F8
100
AcDbEntity
  8
RPi4_PARTS_TOP
  6
ByLayer
 62
  256
370
   -1
100
AcDbPolyline
 90
    2
 70
    0
 43
0
 10
80.30000000000001
 20
15.6
 10
80.30000000000001
 20
15.3
  0
LWPOLYLINE
  5
1F9
100
AcDbEntity
  8
RPi4_PARTS_TOP
  6
ByLayer
 62
  256
370
   -1
100
AcDbPolyline
 90
    5
 70
    0
 43
0
 10
72.84999999999999
 20
15.9
 10
72.25
 20
15.9
 10
72.25
 20
15.6
 10
72.84999999999999
 20
15.6
 10
72.84999999999999
 20
15.9
  0
LWPOLYLINE
  5
1FA
100
AcDbEntity
  8
RPi4_PARTS_TOP
  6
ByLayer
 62
  256
370
   -1
100
AcDbPolyline
 90
    2
 70
    0
 43
0
 10
72.75
 20
15.9
 10
72.75
 20
15.6
  0
LWPOLYLINE
  5
1FB
100
AcDbEntity
  8
RPi4_PARTS_TOP
  6
ByLayer
 62
  256
370
   -1
100
AcDbPolyline
 90
    2
 70
    0
 43
0
 10
72.34999999999999
 20
15.6
 10
72.34999999999999
 20
15.9
  0
LWPOLYLINE
  5
1FC
100
AcDbEntity
  8
RPi4_PARTS_TOP
  6
ByLayer
 62
  256
370
   -1
100
AcDbPolyline
 90
    5
 70
    0
 43
0
 10
78.34999999999999
 20
13.5
 10
78.94999999999999
 20
13.5
 10
78.94999999999999
 20
13.8
 10
78.34999999999999
 20
13.8
 10
78.34999999999999
 20
13.5
  0
LWPOLYLINE
  5
1FD
100
AcDbEntity
  8
RPi4_PARTS_TOP
  6
ByLayer
 62
  256
370
   -1
100
AcDbPolyline
 90
    2
 70
    0
 43
0
 10
78.44999999999999
 20
13.5
 10
78.44999999999999
 20
13.8
  0
LWPOLYLINE
  5
1FE
100
AcDbEntity
  8
RPi4_PARTS_TOP
  6
ByLayer
 62
  256
370
   -1
100
AcDbPolyline
 90
    2
 70
    0
 43
0
 10
78.84999999999999
 20
13.8
 10
78.84999999999999
 20
13.5
  0
LWPOLYLINE
  5
1FF
100
AcDbEntity
  8
RPi4_PARTS_TOP
  6
ByLayer
 62
  256
370
   -1
100
AcDbPolyline
 90
    5
 70
    0
 43
0
 10
34.59999999999999
 20
31.85000000000001
 10
34
 20
31.85000000000001
 10
34
 20
31.55000000000001
 10
34.59999999999999
 20
31.55000000000001
 10
34.59999999999999
 20
31.85000000000001
  0
LWPOLYLINE
  5
200
100
AcDbEntity
  8
RPi4_PARTS_TOP
  6
ByLayer
 62
  256
370
   -1
100
AcDbPolyline
 90
    2
 70
    0
 43
0
 10
34.5
 20
31.85000000000001
 10
34.5
 20
31.55000000000001
  0
LWPOLYLINE
  5
201
100
AcDbEntity
  8
RPi4_PARTS_TOP
  6
ByLayer
 62
  256
370
   -1
100
AcDbPolyline
 90
    2
 70
    0
 43
0
 10
34.09999999999999
 20
31.55000000000001
 10
34.09999999999999
 20
31.85000000000001
  0
LWPOLYLINE
  5
202
100
AcDbEntity
  8
RPi4_PARTS_TOP
  6
ByLayer
 62
  256
370
   -1
100
AcDbPolyline
 90
    5
 70
    0
 43
0
 10
34.59999999999999
 20
31.25000000000001
 10
34
 20
31.25000000000001
 10
34
 20
30.95000000000001
 10
34.59999999999999
 20
30.95000000000001
 10
34.59999999999999
 20
31.25000000000001
  0
LWPOLYLINE
  5
203
100
AcDbEntity
  8
RPi4_PARTS_TOP
  6
ByLayer
 62
  256
370
   -1
100
AcDbPolyline
 90
    2
 70
    0
 43
0
 10
34.5
 20
31.25000000000001
 10
34.5
 20
30.95000000000001
  0
LWPOLYLINE
  5
204
100
AcDbEntity
  8
RPi4_PARTS_TOP
  6
ByLayer
 62
  256
370
   -1
100
AcDbPolyline
 90
    2
 70
    0
 43
0
 10
34.09999999999999
 20
30.95000000000001
 10
34.09999999999999
 20
31.25000000000001
  0
LWPOLYLINE
  5
205
100
AcDbEntity
  8
RPi4_PARTS_TOP
  6
ByLayer
 62
  256
370
   -1
100
AcDbPolyline
 90
    5
 70
    0
 43
0
 10
71.44999999999999
 20
17.1
 10
71.44999999999999
 20
18.7
 10
72.25
 20
18.7
 10
72.25
 20
17.1
 10
71.44999999999999
 20
17.1
  0
LWPOLYLINE
  5
206
100
AcDbEntity
  8
RPi4_PARTS_TOP
  6
ByLayer
 62
  256
370
   -1
100
AcDbPolyline
 90
    2
 70
    0
 43
0
 10
72.25
 20
17.5
 10
71.44999999999999
 20
17.5
  0
LWPOLYLINE
  5
207
100
AcDbEntity
  8
RPi4_PARTS_TOP
  6
ByLayer
 62
  256
370
   -1
100
AcDbPolyline
 90
    2
 70
    0
 43
0
 10
72.25
 20
18.4
 10
71.44999999999999
 20
18.4
  0
LWPOLYLINE
  5
208
100
AcDbEntity
  8
RPi4_PARTS_TOP
  6
ByLayer
 62
  256
370
   -1
100
AcDbPolyline
 90
    5
 70
    0
 43
0
 10
24
 20
43.60000000000001
 10
24
 20
44.40000000000001
 10
25.59999999999999
 20
44.40000000000001
 10
25.59999999999999
 20
43.60000000000001
 10
24
 20
43.60000000000001
  0
LWPOLYLINE
  5
209
100
AcDbEntity
  8
RPi4_PARTS_TOP
  6
ByLayer
 62
  256
370
   -1
100
AcDbPolyline
 90
    5
 70
    0
 43
0
 10
23.90000000000001
 20
43.50000000000001
 10
23.90000000000001
 20
44.50000000000001
 10
25.69999999999999
 20
44.50000000000001
 10
25.69999999999999
 20
43.50000000000001
 10
23.90000000000001
 20
43.50000000000001
  0
LWPOLYLINE
  5
20A
100
AcDbEntity
  8
RPi4_PARTS_TOP
  6
ByLayer
 62
  256
370
   -1
100
AcDbPolyline
 90
    8
 70
    0
 43
0
 10
24.19999999999999
 20
43.50000000000001
 10
24.19999999999999
 20
43.10000000000001
 10
24.40000000000001
 20
43.10000000000001
 10
24.40000000000001
 20
43.50000000000001
 10
25.19999999999999
 20
43.50000000000001
 10
25.19999999999999
 20
43.10000000000001
 10
25.40000000000001
 20
43.10000000000001
 10
25.40000000000001
 20
43.50000000000001
  0
LWPOLYLINE
  5
20B
100
AcDbEntity
  8
RPi4_PARTS_TOP
  6
ByLayer
 62
  256
370
   -1
100
AcDbPolyline
 90
    4
 70
    0
 43
0
 10
24.69999999999999
 20
44.50000000000001
 10
24.69999999999999
 20
44.90000000000001
 10
24.90000000000001
 20
44.90000000000001
 10
24.90000000000001
 20
44.50000000000001
  0
LWPOLYLINE
  5
20C
100
AcDbEntity
  8
RPi4_PARTS_TOP
  6
ByLayer
 62
  256
370
   -1
100
AcDbPolyline
 90
    5
 70
    0
 43
0
 10
87.25
 20
45.3
 10
87.25
 20
43.7
 10
86.55000000000001
 20
43.7
 10
86.55000000000001
 20
45.3
 10
87.25
 20
45.3
  0
LWPOLYLINE
  5
20D
100
AcDbEntity
  8
RPi4_PARTS_TOP
  6
ByLayer
 62
  256
370
   -1
100
AcDbPolyline
 90
    5
 70
    0
 43
0
 10
86.90000000000001
 20
44.7
 10
86.59999999999999
 20
44.4
 10
87.19999999999999
 20
44.4
 10
86.90000000000001
 20
44.7
 10
86.90000000000001
 20
45
  0
LWPOLYLINE
  5
20E
100
AcDbEntity
  8
RPi4_PARTS_TOP
  6
ByLayer
 62
  256
370
   -1
100
AcDbPolyline
 90
    2
 70
    0
 43
0
 10
87.19999999999999
 20
44.7
 10
86.59999999999999
 20
44.7
  0
LWPOLYLINE
  5
20F
100
AcDbEntity
  8
RPi4_PARTS_TOP
  6
ByLayer
 62
  256
370
   -1
100
AcDbPolyline
 90
    2
 70
    0
 43
0
 10
86.90000000000001
 20
44.4
 10
86.89999999999998
 20
44
  0
LWPOLYLINE
  5
210
100
AcDbEntity
  8
RPi4_PARTS_TOP
  6
ByLayer
 62
  256
370
   -1
100
AcDbPolyline
 90
    2
 70
    0
 43
0
 10
86.55000000000001
 20
45.1
 10
87.25
 20
45.1
  0
LWPOLYLINE
  5
211
100
AcDbEntity
  8
RPi4_PARTS_TOP
  6
ByLayer
 62
  256
370
   -1
100
AcDbPolyline
 90
    2
 70
    0
 43
0
 10
86.55000000000001
 20
43.9
 10
87.25
 20
43.9
  0
LWPOLYLINE
  5
212
100
AcDbEntity
  8
RPi4_PARTS_TOP
  6
ByLayer
 62
  256
370
   -1
100
AcDbPolyline
 90
    6
 70
    0
 43
0
 10
87.25
 20
43.85
 10
87.55000000000001
 20
43.85
 10
87.64999999999998
 20
43.95
 10
87.65000000000001
 20
45.05
 10
87.55000000000001
 20
45.15
 10
87.25
 20
45.15
  0
LWPOLYLINE
  5
213
100
AcDbEntity
  8
RPi4_PARTS_TOP
  6
ByLayer
 62
  256
370
   -1
100
AcDbPolyline
 90
    5
 70
    0
 43
0
 10
87.25
 20
48.9
 10
87.25
 20
47.3
 10
86.55000000000001
 20
47.3
 10
86.55000000000001
 20
48.9
 10
87.25
 20
48.9
  0
LWPOLYLINE
  5
214
100
AcDbEntity
  8
RPi4_PARTS_TOP
  6
ByLayer
 62
  256
370
   -1
100
AcDbPolyline
 90
    5
 70
    0
 43
0
 10
86.90000000000001
 20
48.3
 10
86.59999999999999
 20
48
 10
87.19999999999999
 20
48
 10
86.90000000000001
 20
48.3
 10
86.90000000000001
 20
48.6
  0
LWPOLYLINE
  5
215
100
AcDbEntity
  8
RPi4_PARTS_TOP
  6
ByLayer
 62
  256
370
   -1
100
AcDbPolyline
 90
    2
 70
    0
 43
0
 10
87.19999999999999
 20
48.3
 10
86.59999999999999
 20
48.3
  0
LWPOLYLINE
  5
216
100
AcDbEntity
  8
RPi4_PARTS_TOP
  6
ByLayer
 62
  256
370
   -1
100
AcDbPolyline
 90
    2
 70
    0
 43
0
 10
86.90000000000001
 20
48
 10
86.90000000000001
 20
47.6
  0
LWPOLYLINE
  5
217
100
AcDbEntity
  8
RPi4_PARTS_TOP
  6
ByLayer
 62
  256
370
   -1
100
AcDbPolyline
 90
    2
 70
    0
 43
0
 10
86.55000000000001
 20
48.7
 10
87.25
 20
48.7
  0
LWPOLYLINE
  5
218
100
AcDbEntity
  8
RPi4_PARTS_TOP
  6
ByLayer
 62
  256
370
   -1
100
AcDbPolyline
 90
    2
 70
    0
 43
0
 10
86.55000000000001
 20
47.5
 10
87.25
 20
47.5
  0
LWPOLYLINE
  5
219
100
AcDbEntity
  8
RPi4_PARTS_TOP
  6
ByLayer
 62
  256
370
   -1
100
AcDbPolyline
 90
    6
 70
    0
 43
0
 10
87.25
 20
47.45
 10
87.55000000000001
 20
47.45
 10
87.65000000000001
 20
47.55
 10
87.65000000000001
 20
48.65
 10
87.55000000000001
 20
48.75
 10
87.25
 20
48.75
  0
LWPOLYLINE
  5
21A
100
AcDbEntity
  8
RPi4_PARTS_TOP
  6
ByLayer
 62
  256
370
   -1
100
AcDbPolyline
 90
    5
 70
    0
 43
0
 10
81.30000000000001
 20
38.9
 10
78.5
 20
38.9
 10
78.5
 20
36.9
 10
81.30000000000001
 20
36.9
 10
81.30000000000001
 20
38.9
  0
LWPOLYLINE
  5
21B
100
AcDbEntity
  8
RPi4_PARTS_TOP
  6
ByLayer
 62
  256
370
   -1
100
AcDbPolyline
 90
    5
 70
    0
 43
0
 10
81.80000000000001
 20
38.5
 10
80.84999999999999
 20
38.5
 10
80.84999999999999
 20
37.3
 10
81.80000000000001
 20
37.3
 10
81.80000000000001
 20
38.5
  0
LWPOLYLINE
  5
21C
100
AcDbEntity
  8
RPi4_PARTS_TOP
  6
ByLayer
 62
  256
370
   -1
100
AcDbPolyline
 90
    5
 70
    0
 43
0
 10
78
 20
38.5
 10
78.94999999999999
 20
38.5
 10
78.94999999999999
 20
37.3
 10
78
 20
37.3
 10
78
 20
38.5
  0
LWPOLYLINE
  5
21D
100
AcDbEntity
  8
RPi4_PARTS_TOP
  6
ByLayer
 62
  256
370
   -1
100
AcDbPolyline
 90
    4
 70
    1
 43
0
 10
80.69999999999999
 20
36.9
 10
80.69999999999999
 20
38.9
 10
80.5
 20
38.9
 10
80.5
 20
36.9
  0
LWPOLYLINE
  5
21E
100
AcDbEntity
  8
RPi4_PARTS_TOP
  6
ByLayer
 62
  256
370
   -1
100
AcDbPolyline
 90
    5
 70
    0
 43
0
 10
66.19999999999999
 20
45.3
 10
66.19999999999999
 20
49.7
 10
69.80000000000001
 20
49.7
 10
69.80000000000001
 20
45.3
 10
66.19999999999999
 20
45.3
  0
LWPOLYLINE
  5
21F
100
AcDbEntity
  8
RPi4_PARTS_TOP
  6
ByLayer
 62
  256
370
   -1
100
AcDbPolyline
 90
    4
 70
    0
 43
0
 10
67.09999999999999
 20
45.3
 10
67.09999999999999
 20
45
 10
68.90000000000001
 20
45
 10
68.90000000000001
 20
45.3
  0
LWPOLYLINE
  5
220
100
AcDbEntity
  8
RPi4_PARTS_TOP
  6
ByLayer
 62
  256
370
   -1
100
AcDbPolyline
 90
    4
 70
    0
 43
0
 10
67.09999999999999
 20
49.7
 10
67.09999999999999
 20
50
 10
68.90000000000001
 20
50
 10
68.90000000000001
 20
49.7
  0
LWPOLYLINE
  5
221
100
AcDbEntity
  8
RPi4_PARTS_TOP
  6
ByLayer
 62
  256
370
   -1
100
AcDbPolyline
 90
    4
 70
    1
 43
0
 10
66.19999999999999
 20
45.90000000000001
 10
69.80000000000001
 20
45.90000000000001
 10
69.80000000000001
 20
46.2
 10
66.19999999999999
 20
46.2
  0
LWPOLYLINE
  5
222
100
AcDbEntity
  8
RPi4_PARTS_TOP
  6
ByLayer
 62
  256
370
   -1
100
AcDbPolyline
 90
    5
 70
    0
 43
0
 10
55.59999999999999
 20
54.50000000000001
 10
55.59999999999999
 20
51.5
 10
57.19999999999999
 20
51.5
 10
57.19999999999999
 20
54.50000000000001
 10
55.59999999999999
 20
54.50000000000001
  0
LWPOLYLINE
  5
223
100
AcDbEntity
  8
RPi4_PARTS_TOP
  6
ByLayer
 62
  256
370
   -1
100
AcDbPolyline
 90
    5
 70
    0
 43
0
 10
55.69999999999999
 20
54.40000000000001
 10
55.69999999999999
 20
51.6
 10
57.09999999999999
 20
51.6
 10
57.09999999999999
 20
54.40000000000001
 10
55.69999999999999
 20
54.40000000000001
  0
LWPOLYLINE
  5
224
100
AcDbEntity
  8
RPi4_PARTS_TOP
  6
ByLayer
 62
  256
370
   -1
100
AcDbPolyline
 90
    4
 70
    0
 43
0
 10
55.59999999999999
 20
54.2
 10
55
 20
54.2
 10
55
 20
53.7
 10
55.59999999999999
 20
53.7
  0
LWPOLYLINE
  5
225
100
AcDbEntity
  8
RPi4_PARTS_TOP
  6
ByLayer
 62
  256
370
   -1
100
AcDbPolyline
 90
    4
 70
    0
 43
0
 10
55.59999999999999
 20
52.3
 10
55
 20
52.3
 10
55
 20
51.8
 10
55.59999999999999
 20
51.8
  0
LWPOLYLINE
  5
226
100
AcDbEntity
  8
RPi4_PARTS_TOP
  6
ByLayer
 62
  256
370
   -1
100
AcDbPolyline
 90
    4
 70
    0
 43
0
 10
57.19999999999999
 20
53.25
 10
57.80000000000001
 20
53.25
 10
57.80000000000001
 20
52.75
 10
57.19999999999999
 20
52.75
  0
LWPOLYLINE
  5
227
100
AcDbEntity
  8
RPi4_PARTS_TOP
  6
ByLayer
 62
  256
370
   -1
100
AcDbPolyline
 90
    5
 70
    0
 43
0
 10
27.5
 20
44.50000000000001
 10
27.5
 20
41.50000000000001
 10
29.09999999999999
 20
41.50000000000001
 10
29.09999999999999
 20
44.50000000000001
 10
27.5
 20
44.50000000000001
  0
LWPOLYLINE
  5
228
100
AcDbEntity
  8
RPi4_PARTS_TOP
  6
ByLayer
 62
  256
370
   -1
100
AcDbPolyline
 90
    5
 70
    0
 43
0
 10
27.59999999999999
 20
44.40000000000001
 10
27.59999999999999
 20
41.60000000000001
 10
29
 20
41.60000000000001
 10
29
 20
44.40000000000001
 10
27.59999999999999
 20
44.40000000000001
  0
LWPOLYLINE
  5
229
100
AcDbEntity
  8
RPi4_PARTS_TOP
  6
ByLayer
 62
  256
370
   -1
100
AcDbPolyline
 90
    4
 70
    0
 43
0
 10
27.5
 20
44.2
 10
26.90000000000001
 20
44.2
 10
26.90000000000001
 20
43.7
 10
27.5
 20
43.7
  0
LWPOLYLINE
  5
22A
100
AcDbEntity
  8
RPi4_PARTS_TOP
  6
ByLayer
 62
  256
370
   -1
100
AcDbPolyline
 90
    4
 70
    0
 43
0
 10
27.5
 20
42.30000000000001
 10
26.90000000000001
 20
42.30000000000001
 10
26.90000000000001
 20
41.80000000000001
 10
27.5
 20
41.80000000000001
  0
LWPOLYLINE
  5
22B
100
AcDbEntity
  8
RPi4_PARTS_TOP
  6
ByLayer
 62
  256
370
   -1
100
AcDbPolyline
 90
    4
 70
    0
 43
0
 10
29.09999999999999
 20
43.25000000000001
 10
29.69999999999999
 20
43.25000000000001
 10
29.69999999999999
 20
42.75000000000001
 10
29.09999999999999
 20
42.75000000000001
  0
LWPOLYLINE
  5
22C
100
AcDbEntity
  8
RPi4_PARTS_TOP
  6
ByLayer
 62
  256
370
   -1
100
AcDbPolyline
 90
    5
 70
    0
 43
0
 10
20.80000000000001
 20
48.85000000000001
 10
20.80000000000001
 20
51.75000000000001
 10
19.19999999999999
 20
51.75000000000001
 10
19.19999999999999
 20
48.85000000000001
 10
20.80000000000001
 20
48.85000000000001
  0
LWPOLYLINE
  5
22D
100
AcDbEntity
  8
RPi4_PARTS_TOP
  6
ByLayer
 62
  256
370
   -1
100
AcDbPolyline
 90
    5
 70
    0
 43
0
 10
20.69999999999999
 20
48.95000000000001
 10
20.69999999999999
 20
51.65000000000001
 10
19.30000000000001
 20
51.65000000000001
 10
19.30000000000001
 20
48.95000000000001
 10
20.69999999999999
 20
48.95000000000001
  0
LWPOLYLINE
  5
22E
100
AcDbEntity
  8
RPi4_PARTS_TOP
  6
ByLayer
 62
  256
370
   -1
100
AcDbPolyline
 90
    4
 70
    0
 43
0
 10
20.80000000000001
 20
49.15000000000001
 10
21.40000000000001
 20
49.15000000000001
 10
21.40000000000001
 20
49.55000000000001
 10
20.80000000000001
 20
49.55000000000001
  0
LWPOLYLINE
  5
22F
100
AcDbEntity
  8
RPi4_PARTS_TOP
  6
ByLayer
 62
  256
370
   -1
100
AcDbPolyline
 90
    4
 70
    0
 43
0
 10
20.80000000000001
 20
50.10000000000001
 10
21.40000000000001
 20
50.10000000000001
 10
21.40000000000001
 20
50.50000000000001
 10
20.80000000000001
 20
50.50000000000001
  0
LWPOLYLINE
  5
230
100
AcDbEntity
  8
RPi4_PARTS_TOP
  6
ByLayer
 62
  256
370
   -1
100
AcDbPolyline
 90
    4
 70
    0
 43
0
 10
20.80000000000001
 20
51.05000000000001
 10
21.40000000000001
 20
51.05000000000001
 10
21.40000000000001
 20
51.45000000000001
 10
20.80000000000001
 20
51.45000000000001
  0
LWPOLYLINE
  5
231
100
AcDbEntity
  8
RPi4_PARTS_TOP
  6
ByLayer
 62
  256
370
   -1
100
AcDbPolyline
 90
    4
 70
    0
 43
0
 10
19.19999999999999
 20
49.15000000000001
 10
18.59999999999999
 20
49.15000000000001
 10
18.59999999999999
 20
49.55000000000001
 10
19.19999999999999
 20
49.55000000000001
  0
LWPOLYLINE
  5
232
100
AcDbEntity
  8
RPi4_PARTS_TOP
  6
ByLayer
 62
  256
370
   -1
100
AcDbPolyline
 90
    4
 70
    0
 43
0
 10
19.19999999999999
 20
51.05000000000001
 10
18.59999999999999
 20
51.05000000000001
 10
18.59999999999999
 20
51.45000000000001
 10
19.19999999999999
 20
51.45000000000001
  0
LWPOLYLINE
  5
233
100
AcDbEntity
  8
RPi4_PARTS_TOP
  6
ByLayer
 62
  256
370
   -1
100
AcDbPolyline
 90
    4
 70
    0
 43
0
 10
19.19999999999999
 20
50.10000000000001
 10
18.59999999999999
 20
50.10000000000001
 10
18.59999999999999
 20
50.50000000000001
 10
19.19999999999999
 20
50.50000000000001
  0
LWPOLYLINE
  5
234
100
AcDbEntity
  8
RPi4_PARTS_TOP
  6
ByLayer
 62
  256
370
   -1
100
AcDbPolyline
 90
    2
 70
    1
 43
0
 10
20.2586
 20
49.30000000000001
 42
0.9999999999999999
 10
20.54140000000001
 20
49.30000000000001
 42
0.9999999999999999
  0
LWPOLYLINE
  5
235
100
AcDbEntity
  8
RPi4_PARTS_TOP
  6
ByLayer
 62
  256
370
   -1
100
AcDbPolyline
 90
    5
 70
    0
 43
0
 10
31.40000000000001
 20
39.10000000000001
 10
33.40000000000001
 20
39.10000000000001
 10
33.40000000000001
 20
40.30000000000001
 10
31.40000000000001
 20
40.30000000000001
 10
31.40000000000001
 20
39.10000000000001
  0
LWPOLYLINE
  5
236
100
AcDbEntity
  8
RPi4_PARTS_TOP
  6
ByLayer
 62
  256
370
   -1
100
AcDbPolyline
 90
    5
 70
    0
 43
0
 10
31.5
 20
39.2
 10
33.30000000000001
 20
39.2
 10
33.30000000000001
 20
40.2
 10
31.5
 20
40.2
 10
31.5
 20
39.2
  0
LWPOLYLINE
  5
237
100
AcDbEntity
  8
RPi4_PARTS_TOP
  6
ByLayer
 62
  256
370
   -1
100
AcDbPolyline
 90
    4
 70
    0
 43
0
 10
31.625
 20
39.10000000000001
 10
31.625
 20
38.62500000000001
 10
31.875
 20
38.62500000000001
 10
31.875
 20
39.10000000000001
  0
LWPOLYLINE
  5
238
100
AcDbEntity
  8
RPi4_PARTS_TOP
  6
ByLayer
 62
  256
370
   -1
100
AcDbPolyline
 90
    4
 70
    0
 43
0
 10
32.27500000000001
 20
39.10000000000001
 10
32.27500000000001
 20
38.62500000000001
 10
32.52500000000001
 20
38.62500000000001
 10
32.52500000000001
 20
39.10000000000001
  0
LWPOLYLINE
  5
239
100
AcDbEntity
  8
RPi4_PARTS_TOP
  6
ByLayer
 62
  256
370
   -1
100
AcDbPolyline
 90
    4
 70
    0
 43
0
 10
32.92500000000001
 20
39.10000000000001
 10
32.92500000000001
 20
38.62500000000001
 10
33.17500000000001
 20
38.62500000000001
 10
33.17500000000001
 20
39.10000000000001
  0
LWPOLYLINE
  5
23A
100
AcDbEntity
  8
RPi4_PARTS_TOP
  6
ByLayer
 62
  256
370
   -1
100
AcDbPolyline
 90
    2
 70
    0
 43
0
 10
31.875
 20
40.77500000000001
 10
31.875
 20
40.30000000000001
  0
LWPOLYLINE
  5
23B
100
AcDbEntity
  8
RPi4_PARTS_TOP
  6
ByLayer
 62
  256
370
   -1
100
AcDbPolyline
 90
    3
 70
    0
 43
0
 10
31.625
 20
40.30000000000001
 10
31.625
 20
40.77500000000001
 10
31.875
 20
40.77500000000001
  0
LWPOLYLINE
  5
23C
100
AcDbEntity
  8
RPi4_PARTS_TOP
  6
ByLayer
 62
  256
370
   -1
100
AcDbPolyline
 90
    3
 70
    0
 43
0
 10
32.27500000000001
 20
40.30000000000001
 10
32.27500000000001
 20
40.77500000000001
 10
32.52500000000001
 20
40.77500000000001
  0
LWPOLYLINE
  5
23D
100
AcDbEntity
  8
RPi4_PARTS_TOP
  6
ByLayer
 62
  256
370
   -1
100
AcDbPolyline
 90
    3
 70
    0
 43
0
 10
32.92500000000001
 20
40.30000000000001
 10
32.92500000000001
 20
40.77500000000001
 10
33.17500000000001
 20
40.77500000000001
  0
LWPOLYLINE
  5
23E
100
AcDbEntity
  8
RPi4_PARTS_TOP
  6
ByLayer
 62
  256
370
   -1
100
AcDbPolyline
 90
    2
 70
    0
 43
0
 10
33.17500000000001
 20
40.77500000000001
 10
33.17500000000001
 20
40.30000000000001
  0
LWPOLYLINE
  5
23F
100
AcDbEntity
  8
RPi4_PARTS_TOP
  6
ByLayer
 62
  256
370
   -1
100
AcDbPolyline
 90
    2
 70
    0
 43
0
 10
32.52500000000001
 20
40.77500000000001
 10
32.52500000000001
 20
40.30000000000001
  0
LWPOLYLINE
  5
240
100
AcDbEntity
  8
RPi4_PARTS_TOP
  6
ByLayer
 62
  256
370
   -1
100
AcDbPolyline
 90
    6
 70
    0
 43
0
 10
73.565
 20
11.865
 10
78.035
 20
11.865
 10
78.035
 20
17.135
 10
73.69959999999998
 20
17.135
 10
73.565
 20
17.0004
 10
73.565
 20
11.865
  0
LWPOLYLINE
  5
241
100
AcDbEntity
  8
RPi4_PARTS_TOP
  6
ByLayer
 62
  256
370
   -1
100
AcDbPolyline
 90
    5
 70
    0
 43
0
 10
24.5
 20
28.00000000000001
 10
32.5
 20
28.00000000000001
 10
32.5
 20
36.00000000000001
 10
24.5
 20
36.00000000000001
 10
24.5
 20
28.00000000000001
  0
LWPOLYLINE
  5
242
100
AcDbEntity
  8
RPi4_PARTS_TOP
  6
ByLayer
 62
  256
370
   -1
100
AcDbPolyline
 90
    2
 70
    1
 43
0
 10
24.859
 20
28.50000000000001
 42
0.9999999999999999
 10
25.141
 20
28.50000000000001
 42
0.9999999999999999
  0
LWPOLYLINE
  5
243
100
AcDbEntity
  8
RPi4_PARTS_TOP
  6
ByLayer
 62
  256
370
   -1
100
AcDbPolyline
 90
    5
 70
    0
 43
0
 10
32.5
 20
21.00000000000001
 10
32.5
 20
15.00000000000001
 10
26.5
 20
15.00000000000001
 10
26.5
 20
21.00000000000001
 10
32.5
 20
21.00000000000001
  0
LWPOLYLINE
  5
244
100
AcDbEntity
  8
RPi4_PARTS_TOP
  6
ByLayer
 62
  256
370
   -1
100
AcDbPolyline
 90
    2
 70
    1
 43
0
 10
31.3586
 20
20.50000000000001
 42
0.9999999999999999
 10
31.6414
 20
20.50000000000001
 42
0.9999999999999999
  0
LWPOLYLINE
  5
245
100
AcDbEntity
  8
RPi4_PARTS_TOP
  6
ByLayer
 62
  256
370
   -1
100
AcDbPolyline
 90
    5
 70
    0
 43
0
 10
75.80000000000001
 20
37.9
 10
77
 20
37.9
 10
77
 20
39.9
 10
75.80000000000001
 20
39.9
 10
75.80000000000001
 20
37.9
  0
LWPOLYLINE
  5
246
100
AcDbEntity
  8
RPi4_PARTS_TOP
  6
ByLayer
 62
  256
370
   -1
100
AcDbPolyline
 90
    2
 70
    0
 43
0
 10
75.80000000000001
 20
38.3
 10
77
 20
38.3
  0
LWPOLYLINE
  5
247
100
AcDbEntity
  8
RPi4_PARTS_TOP
  6
ByLayer
 62
  256
370
   -1
100
AcDbPolyline
 90
    2
 70
    0
 43
0
 10
75.80000000000001
 20
39.5
 10
77
 20
39.5
  0
LWPOLYLINE
  5
248
100
AcDbEntity
  8
RPi4_PARTS_TOP
  6
ByLayer
 62
  256
370
   -1
100
AcDbPolyline
 90
    5
 70
    0
 43
0
 10
35.69999999999999
 20
24.60000000000001
 10
36.89999999999998
 20
24.60000000000001
 10
36.89999999999998
 20
26.60000000000001
 10
35.69999999999999
 20
26.60000000000001
 10
35.69999999999999
 20
24.60000000000001
  0
LWPOLYLINE
  5
249
100
AcDbEntity
  8
RPi4_PARTS_TOP
  6
ByLayer
 62
  256
370
   -1
100
AcDbPolyline
 90
    2
 70
    0
 43
0
 10
35.69999999999999
 20
25.00000000000001
 10
36.89999999999998
 20
25.00000000000001
  0
LWPOLYLINE
  5
24A
100
AcDbEntity
  8
RPi4_PARTS_TOP
  6
ByLayer
 62
  256
370
   -1
100
AcDbPolyline
 90
    2
 70
    0
 43
0
 10
35.69999999999999
 20
26.20000000000001
 10
36.89999999999998
 20
26.20000000000001
  0
LWPOLYLINE
  5
24B
100
AcDbEntity
  8
RPi4_PARTS_TOP
  6
ByLayer
 62
  256
370
   -1
100
AcDbPolyline
 90
    5
 70
    0
 43
0
 10
40.5
 20
14.20000000000001
 10
40.5
 20
15.40000000000001
 10
38.5
 20
15.40000000000001
 10
38.5
 20
14.20000000000001
 10
40.5
 20
14.20000000000001
  0
LWPOLYLINE
  5
24C
100
AcDbEntity
  8
RPi4_PARTS_TOP
  6
ByLayer
 62
  256
370
   -1
100
AcDbPolyline
 90
    2
 70
    0
 43
0
 10
40.09999999999999
 20
14.20000000000001
 10
40.09999999999999
 20
15.40000000000001
  0
LWPOLYLINE
  5
24D
100
AcDbEntity
  8
RPi4_PARTS_TOP
  6
ByLayer
 62
  256
370
   -1
100
AcDbPolyline
 90
    2
 70
    0
 43
0
 10
38.89999999999998
 20
14.20000000000001
 10
38.89999999999998
 20
15.40000000000001
  0
LWPOLYLINE
  5
24E
100
AcDbEntity
  8
RPi4_PARTS_TOP
  6
ByLayer
 62
  256
370
   -1
100
AcDbPolyline
 90
    5
 70
    0
 43
0
 10
19.19999999999999
 20
41.70000000000001
 10
20.40000000000001
 20
41.70000000000001
 10
20.40000000000001
 20
43.70000000000001
 10
19.19999999999999
 20
43.70000000000001
 10
19.19999999999999
 20
41.70000000000001
  0
LWPOLYLINE
  5
24F
100
AcDbEntity
  8
RPi4_PARTS_TOP
  6
ByLayer
 62
  256
370
   -1
100
AcDbPolyline
 90
    2
 70
    0
 43
0
 10
19.19999999999999
 20
42.10000000000001
 10
20.40000000000001
 20
42.10000000000001
  0
LWPOLYLINE
  5
250
100
AcDbEntity
  8
RPi4_PARTS_TOP
  6
ByLayer
 62
  256
370
   -1
100
AcDbPolyline
 90
    2
 70
    0
 43
0
 10
19.19999999999999
 20
43.30000000000001
 10
20.40000000000001
 20
43.30000000000001
  0
LWPOLYLINE
  5
251
100
AcDbEntity
  8
RPi4_PARTS_TOP
  6
ByLayer
 62
  256
370
   -1
100
AcDbPolyline
 90
    5
 70
    0
 43
0
 10
27.30000000000001
 20
46.50000000000001
 10
27.30000000000001
 20
45.30000000000001
 10
29.30000000000001
 20
45.30000000000001
 10
29.30000000000001
 20
46.50000000000001
 10
27.30000000000001
 20
46.50000000000001
  0
LWPOLYLINE
  5
252
100
AcDbEntity
  8
RPi4_PARTS_TOP
  6
ByLayer
 62
  256
370
   -1
100
AcDbPolyline
 90
    2
 70
    0
 43
0
 10
27.69999999999999
 20
46.50000000000001
 10
27.69999999999999
 20
45.30000000000001
  0
LWPOLYLINE
  5
253
100
AcDbEntity
  8
RPi4_PARTS_TOP
  6
ByLayer
 62
  256
370
   -1
100
AcDbPolyline
 90
    2
 70
    0
 43
0
 10
28.90000000000001
 20
46.50000000000001
 10
28.90000000000001
 20
45.30000000000001
  0
LWPOLYLINE
  5
254
100
AcDbEntity
  8
RPi4_PARTS_TOP
  6
ByLayer
 62
  256
370
   -1
100
AcDbPolyline
 90
    5
 70
    0
 43
0
 10
27.30000000000001
 20
48.60000000000001
 10
27.30000000000001
 20
47.40000000000001
 10
29.30000000000001
 20
47.40000000000001
 10
29.30000000000001
 20
48.60000000000001
 10
27.30000000000001
 20
48.60000000000001
  0
LWPOLYLINE
  5
255
100
AcDbEntity
  8
RPi4_PARTS_TOP
  6
ByLayer
 62
  256
370
   -1
100
AcDbPolyline
 90
    2
 70
    0
 43
0
 10
27.69999999999999
 20
48.60000000000001
 10
27.69999999999999
 20
47.40000000000001
  0
LWPOLYLINE
  5
256
100
AcDbEntity
  8
RPi4_PARTS_TOP
  6
ByLayer
 62
  256
370
   -1
100
AcDbPolyline
 90
    2
 70
    0
 43
0
 10
28.90000000000001
 20
48.60000000000001
 10
28.90000000000001
 20
47.40000000000001
  0
LWPOLYLINE
  5
257
100
AcDbEntity
  8
RPi4_PARTS_TOP
  6
ByLayer
 62
  256
370
   -1
100
AcDbPolyline
 90
    5
 70
    0
 43
0
 10
24.79989999999998
 20
22.15000000000001
 10
26.0001
 20
22.15000000000001
 10
26.0001
 20
24.15000000000001
 10
24.79989999999998
 20
24.15000000000001
 10
24.79989999999998
 20
22.15000000000001
  0
LWPOLYLINE
  5
258
100
AcDbEntity
  8
RPi4_PARTS_TOP
  6
ByLayer
 62
  256
370
   -1
100
AcDbPolyline
 90
    2
 70
    0
 43
0
 10
24.79999999999998
 20
22.55
 10
26
 20
22.55
  0
LWPOLYLINE
  5
259
100
AcDbEntity
  8
RPi4_PARTS_TOP
  6
ByLayer
 62
  256
370
   -1
100
AcDbPolyline
 90
    2
 70
    0
 43
0
 10
24.79999999999998
 20
23.75000000000001
 10
26
 20
23.75000000000001
  0
LWPOLYLINE
  5
25A
100
AcDbEntity
  8
RPi4_PARTS_TOP
  6
ByLayer
 62
  256
370
   -1
100
AcDbPolyline
 90
    5
 70
    0
 43
0
 10
69.19999999999999
 20
39.10000000000001
 10
70.39999999999998
 20
39.10000000000001
 10
70.39999999999998
 20
41.1
 10
69.19999999999999
 20
41.1
 10
69.19999999999999
 20
39.10000000000001
  0
LWPOLYLINE
  5
25B
100
AcDbEntity
  8
RPi4_PARTS_TOP
  6
ByLayer
 62
  256
370
   -1
100
AcDbPolyline
 90
    2
 70
    0
 43
0
 10
69.19999999999999
 20
39.5
 10
70.39999999999998
 20
39.5
  0
LWPOLYLINE
  5
25C
100
AcDbEntity
  8
RPi4_PARTS_TOP
  6
ByLayer
 62
  256
370
   -1
100
AcDbPolyline
 90
    2
 70
    0
 43
0
 10
69.19999999999999
 20
40.7
 10
70.39999999999998
 20
40.7
  0
LWPOLYLINE
  5
25D
100
AcDbEntity
  8
RPi4_PARTS_TOP
  6
ByLayer
 62
  256
370
   -1
100
AcDbPolyline
 90
    5
 70
    0
 43
0
 10
67.30000000000001
 20
39.10000000000001
 10
68.5
 20
39.10000000000001
 10
68.5
 20
41.1
 10
67.30000000000001
 20
41.1
 10
67.30000000000001
 20
39.10000000000001
  0
LWPOLYLINE
  5
25E
100
AcDbEntity
  8
RPi4_PARTS_TOP
  6
ByLayer
 62
  256
370
   -1
100
AcDbPolyline
 90
    2
 70
    0
 43
0
 10
67.30000000000001
 20
39.5
 10
68.5
 20
39.5
  0
LWPOLYLINE
  5
25F
100
AcDbEntity
  8
RPi4_PARTS_TOP
  6
ByLayer
 62
  256
370
   -1
100
AcDbPolyline
 90
    2
 70
    0
 43
0
 10
67.30000000000001
 20
40.7
 10
68.5
 20
40.7
  0
LWPOLYLINE
  5
260
100
AcDbEntity
  8
RPi4_PARTS_TOP
  6
ByLayer
 62
  256
370
   -1
100
AcDbPolyline
 90
    5
 70
    0
 43
0
 10
85.40000000000001
 20
47.85
 10
84.19999999999999
 20
47.85
 10
84.19999999999999
 20
45.85
 10
85.40000000000001
 20
45.85
 10
85.40000000000001
 20
47.85
  0
LWPOLYLINE
  5
261
100
AcDbEntity
  8
RPi4_PARTS_TOP
  6
ByLayer
 62
  256
370
   -1
100
AcDbPolyline
 90
    2
 70
    0
 43
0
 10
85.40000000000001
 20
47.45
 10
84.19999999999999
 20
47.45
  0
LWPOLYLINE
  5
262
100
AcDbEntity
  8
RPi4_PARTS_TOP
  6
ByLayer
 62
  256
370
   -1
100
AcDbPolyline
 90
    2
 70
    0
 43
0
 10
85.40000000000001
 20
46.25
 10
84.19999999999999
 20
46.25
  0
LWPOLYLINE
  5
263
100
AcDbEntity
  8
RPi4_PARTS_TOP
  6
ByLayer
 62
  256
370
   -1
100
AcDbPolyline
 90
    5
 70
    0
 43
0
 10
21.09999999999999
 20
43.95000000000001
 10
21.09999999999999
 20
41.45000000000001
 10
23.09999999999999
 20
41.45
 10
23.09999999999999
 20
43.95
 10
21.09999999999999
 20
43.95000000000001
  0
LWPOLYLINE
  5
264
100
AcDbEntity
  8
RPi4_PARTS_TOP
  6
ByLayer
 62
  256
370
   -1
100
AcDbPolyline
 90
    2
 70
    0
 43
0
 10
23.09999999999999
 20
43.25000000000001
 10
21.09999999999999
 20
43.25000000000001
  0
LWPOLYLINE
  5
265
100
AcDbEntity
  8
RPi4_PARTS_TOP
  6
ByLayer
 62
  256
370
   -1
100
AcDbPolyline
 90
    2
 70
    0
 43
0
 10
23.09999999999999
 20
42.15000000000001
 10
21.09999999999999
 20
42.15000000000001
  0
LWPOLYLINE
  5
266
100
AcDbEntity
  8
RPi4_PARTS_TOP
  6
ByLayer
 62
  256
370
   -1
100
AcDbPolyline
 90
    5
 70
    0
 43
0
 10
83.5
 20
45.55
 10
83.5
 20
48.05
 10
81.5
 20
48.05
 10
81.5
 20
45.55
 10
83.5
 20
45.55
  0
LWPOLYLINE
  5
267
100
AcDbEntity
  8
RPi4_PARTS_TOP
  6
ByLayer
 62
  256
370
   -1
100
AcDbPolyline
 90
    2
 70
    0
 43
0
 10
81.5
 20
46.25
 10
83.5
 20
46.25
  0
LWPOLYLINE
  5
268
100
AcDbEntity
  8
RPi4_PARTS_TOP
  6
ByLayer
 62
  256
370
   -1
100
AcDbPolyline
 90
    2
 70
    0
 43
0
 10
81.5
 20
47.35
 10
83.5
 20
47.35
  0
LWPOLYLINE
  5
269
100
AcDbEntity
  8
RPi4_PARTS_TOP
  6
ByLayer
 62
  256
370
   -1
100
AcDbPolyline
 90
    5
 70
    0
 43
0
 10
74.90000000000001
 20
45.55
 10
74.90000000000001
 20
48.05
 10
72.90000000000001
 20
48.05
 10
72.90000000000001
 20
45.55
 10
74.90000000000001
 20
45.55
  0
LWPOLYLINE
  5
26A
100
AcDbEntity
  8
RPi4_PARTS_TOP
  6
ByLayer
 62
  256
370
   -1
100
AcDbPolyline
 90
    2
 70
    0
 43
0
 10
72.90000000000001
 20
46.25
 10
74.90000000000001
 20
46.25
  0
LWPOLYLINE
  5
26B
100
AcDbEntity
  8
RPi4_PARTS_TOP
  6
ByLayer
 62
  256
370
   -1
100
AcDbPolyline
 90
    2
 70
    0
 43
0
 10
72.90000000000001
 20
47.35
 10
74.90000000000001
 20
47.35
  0
LWPOLYLINE
  5
26C
100
AcDbEntity
  8
RPi4_PARTS_TOP
  6
ByLayer
 62
  256
370
   -1
100
AcDbPolyline
 90
    5
 70
    0
 43
0
 10
81.5
 20
41.95
 10
81.5
 20
39.45
 10
83.5
 20
39.45
 10
83.5
 20
41.95
 10
81.5
 20
41.95
  0
LWPOLYLINE
  5
26D
100
AcDbEntity
  8
RPi4_PARTS_TOP
  6
ByLayer
 62
  256
370
   -1
100
AcDbPolyline
 90
    2
 70
    0
 43
0
 10
83.5
 20
41.25
 10
81.5
 20
41.25
  0
LWPOLYLINE
  5
26E
100
AcDbEntity
  8
RPi4_PARTS_TOP
  6
ByLayer
 62
  256
370
   -1
100
AcDbPolyline
 90
    2
 70
    0
 43
0
 10
83.5
 20
40.15
 10
81.5
 20
40.15
  0
LWPOLYLINE
  5
26F
100
AcDbEntity
  8
RPi4_PARTS_TOP
  6
ByLayer
 62
  256
370
   -1
100
AcDbPolyline
 90
    5
 70
    0
 43
0
 10
19.05000000000001
 20
45.70000000000001
 10
21.94999999999999
 20
45.70000000000001
 10
21.94999999999999
 20
47.30000000000001
 10
19.05000000000001
 20
47.30000000000001
 10
19.05000000000001
 20
45.70000000000001
  0
LWPOLYLINE
  5
270
100
AcDbEntity
  8
RPi4_PARTS_TOP
  6
ByLayer
 62
  256
370
   -1
100
AcDbPolyline
 90
    5
 70
    0
 43
0
 10
19.15000000000001
 20
45.80000000000001
 10
21.84999999999999
 20
45.80000000000001
 10
21.84999999999999
 20
47.20000000000001
 10
19.15000000000001
 20
47.20000000000001
 10
19.15000000000001
 20
45.80000000000001
  0
LWPOLYLINE
  5
271
100
AcDbEntity
  8
RPi4_PARTS_TOP
  6
ByLayer
 62
  256
370
   -1
100
AcDbPolyline
 90
    4
 70
    0
 43
0
 10
19.34999999999999
 20
45.70000000000001
 10
19.34999999999999
 20
45.10000000000001
 10
19.75
 20
45.10000000000001
 10
19.75
 20
45.70000000000001
  0
LWPOLYLINE
  5
272
100
AcDbEntity
  8
RPi4_PARTS_TOP
  6
ByLayer
 62
  256
370
   -1
100
AcDbPolyline
 90
    4
 70
    0
 43
0
 10
20.30000000000001
 20
45.70000000000001
 10
20.30000000000001
 20
45.10000000000001
 10
20.69999999999999
 20
45.10000000000001
 10
20.69999999999999
 20
45.70000000000001
  0
LWPOLYLINE
  5
273
100
AcDbEntity
  8
RPi4_PARTS_TOP
  6
ByLayer
 62
  256
370
   -1
100
AcDbPolyline
 90
    4
 70
    0
 43
0
 10
21.25
 20
45.70000000000001
 10
21.25
 20
45.10000000000001
 10
21.65000000000001
 20
45.10000000000001
 10
21.65000000000001
 20
45.70000000000001
  0
LWPOLYLINE
  5
274
100
AcDbEntity
  8
RPi4_PARTS_TOP
  6
ByLayer
 62
  256
370
   -1
100
AcDbPolyline
 90
    4
 70
    0
 43
0
 10
19.34999999999999
 20
47.30000000000001
 10
19.34999999999999
 20
47.90000000000001
 10
19.75
 20
47.90000000000001
 10
19.75
 20
47.30000000000001
  0
LWPOLYLINE
  5
275
100
AcDbEntity
  8
RPi4_PARTS_TOP
  6
ByLayer
 62
  256
370
   -1
100
AcDbPolyline
 90
    4
 70
    0
 43
0
 10
21.25
 20
47.30000000000001
 10
21.25
 20
47.90000000000001
 10
21.65000000000001
 20
47.90000000000001
 10
21.65000000000001
 20
47.30000000000001
  0
LWPOLYLINE
  5
276
100
AcDbEntity
  8
RPi4_PARTS_TOP
  6
ByLayer
 62
  256
370
   -1
100
AcDbPolyline
 90
    5
 70
    0
 43
0
 10
80.59999999999999
 20
46.3
 10
80.59999999999999
 20
41.3
 10
75.59999999999999
 20
41.3
 10
75.59999999999999
 20
46.3
 10
80.59999999999999
 20
46.3
  0
LWPOLYLINE
  5
277
100
AcDbEntity
  8
RPi4_PARTS_TOP
  6
ByLayer
 62
  256
370
   -1
100
AcDbPolyline
 90
    2
 70
    1
 43
0
 10
80.15000000000001
 20
45.95
 42
0.9999999999999999
 10
80.34999999999999
 20
45.95
 42
0.9999999999999999
  0
LWPOLYLINE
  5
278
100
AcDbEntity
  8
RPi4_PARTS_TOP
  6
ByLayer
 62
  256
370
   -1
100
AcDbPolyline
 90
    6
 70
    0
 43
0
 10
51.25
 20
31
 10
51.25
 20
16.00000000000001
 10
66.25
 20
16
 10
66.25
 20
30.494
 10
65.744
 20
31
 10
51.25
 20
31
  0
LWPOLYLINE
  5
279
100
AcDbEntity
  8
RPi4_PARTS_TOP
  6
ByLayer
 62
  256
370
   -1
100
AcDbPolyline
 90
    5
 70
    0
 43
0
 10
29
 20
12.14000000000001
 10
24
 20
12.14000000000001
 10
24
 20
7.140000000000008
 10
29
 20
7.140000000000008
 10
29
 20
12.14000000000001
  0
LWPOLYLINE
  5
27A
100
AcDbEntity
  8
RPi4_PARTS_TOP
  6
ByLayer
 62
  256
370
   -1
100
AcDbPolyline
 90
    5
 70
    0
 43
0
 10
80.89999999999998
 20
6
 10
30.09999999999999
 20
6.000000000000007
 10
30.09999999999999
 20
1.000000000000007
 10
80.89999999999998
 20
1
 10
80.89999999999998
 20
6
  0
LWPOLYLINE
  5
27B
100
AcDbEntity
  8
RPi4_BOARD_OUTLINE
  6
ByLayer
 62
  256
370
   -1
100
AcDbPolyline
 90
    8
 70
    1
 43
0
 10
85
 20
56
 10
5.99999999999999
 20
56.00000000000001
 42
0.4142139999999995
 10
2.999999999999996
 20
53.00000000000001
 10
2.999999999999994
 20
3.000000000000008
 42
0.4142139999999995
 10
5.999999999999997
 20
4.440892098500626e-15
 10
85.00000000000001
 20
-2.664535259100376e-15
 42
0.4142139999999986
 10
87.99999999999999
 20
3
 10
88
 20
53
 42
0.4142139999999991
  0
ENDBLK
  5
72
330
70
100
AcDbEntity
  8
0
100
AcDbBlockEnd
  0
BLOCK
  5
74
330
73
100
AcDbEntity
  8
0
100
AcDbBlockBegin
  2
enc_block
 70
    0
 10
0
 20
0
  3
enc_block
  1

  0
LINE
  5
27C
100
AcDbEntity
  8
physical
  6
ByLayer
 62
  256
370
   -1
100
AcDbLine
 10
10
 20
20.00000000000001
 11
10.00000000000006
 21
420
  0
LINE
  5
27D
100
AcDbEntity
  8
physical
  6
ByLayer
 62
  256
370
   -1
100
AcDbLine
 10
120
 20
420
 11
120
 21
20
  0
ELLIPSE
  5
27E
100
AcDbEntity
  8
physical
  6
ByLayer
 62
  256
370
   -1
100
AcDbEllipse
 10
65
 20
20
 30
0
 11
54.99999999999999
 21
-6.735557395310442e-15
 31
0
 40
0.3636363636363637
 41
3.141592653589793
 42
4.440892098500626e-16
  0
ELLIPSE
  5
27F
100
AcDbEntity
  8
physical
  6
ByLayer
 62
  256
370
   -1
100
AcDbEllipse
 10
65
 20
420
 30
0
 11
54.99999999999999
 21
-6.735557395310442e-15
 31
0
 40
0.3636363636363637
 41
3.141592653589793
 42
0
  0
ELLIPSE
  5
280
100
AcDbEntity
  8
physical
  6
ByLayer
 62
  256
370
   -1
100
AcDbEllipse
 10
65
 20
420
 30
0
 11
54.99999999999999
 21
-6.735557395310442e-15
 31
0
 40
0.3636363636363637
 41
0
 42
3.141592653589793
  0
ELLIPSE
  5
281
100
AcDbEntity
  8
physical
  6
ByLayer
 62
  256
370
   -1
100
AcDbEllipse
 10
65
 20
530
 30
0
 11
57
 21
0
 31
0
 40
0.3508771929824561
 41
3.141592653589793
 42
0
  0
ELLIPSE
  5
282
100
AcDbEntity
  8
physical
  6
ByLayer
 62
  256
370
   -1
100
AcDbEllipse
 10
65
 20
530
 30
0
 11
57
 21
0
 31
0
 40
0.3508771929824561
 41
0
 42
3.141592653589793
  0
ELLIPSE
  5
283
100
AcDbEntity
  8
physical
  6
ByLayer
 62
  256
370
   -1
100
AcDbEllipse
 10
65
 20
500
 30
0
 11
57
 21
0
 31
0
 40
0.3508771929824561
 41
3.141592653589793
 42
0
  0
LINE
  5
284
100
AcDbEntity
  8
physical
  6
ByLayer
 62
  256
370
   -1
100
AcDbLine
 10
122
 20
530
 11
122
 21
500
  0
LINE
  5
285
100
AcDbEntity
  8
physical
  6
ByLayer
 62
  256
370
   -1
100
AcDbLine
 10
8
 20
530
 11
8
 21
500
  0
ENDBLK
  5
75
330
73
100
AcDbEntity
  8
0
100
AcDbBlockEnd
  0
ENDSEC
  0
SECTION
  2
ENTITIES
  0
MTEXT
  5
286
100
AcDbEntity
  8
dimensions
  6
ByLayer
 62
  256
370
   -1
100
AcDbMText
 10
50
 20
-13.50000000000002
 30
0
 40
5
 41
8.888888888888889
 71
    5
 72
    1
  1
100
  7
standard
210
0
220
0
230
1
 50
180
 73
    2
 44
1
  0
LINE
  5
287
100
AcDbEntity
  8
physical
  6
ByLayer
 62
  256
370
   50
100
AcDbLine
 10
100
 20
390
 11
2.842170943040401e-14
 21
390
  0
LINE
  5
288
100
AcDbEntity
  8
physical
  6
ByLayer
 62
  256
370
   50
100
AcDbLine
 10
2.842170943040401e-14
 20
390
 11
0
 21
30.00000000000001
  0
LINE
  5
289
100
AcDbEntity
  8
physical
  6
ByLayer
 62
  256
370
   50
100
AcDbLine
 10
0
 20
30.00000000000001
 11
100
 21
30
  0
LINE
  5
28A
100
AcDbEntity
  8
physical
  6
ByLayer
 62
  256
370
   50
100
AcDbLine
 10
100
 20
30
 11
100
 21
390
  0
CIRCLE
  5
28B
100
AcDbEntity
  8
physical
  6
ByLayer
 62
  256
370
   50
100
AcDbCircle
 10
19.99999999999999
 20
50
 40
2.5
  0
CIRCLE
  5
28C
100
AcDbEntity
  8
physical
  6
ByLayer
 62
  256
370
   50
100
AcDbCircle
 10
19.99999999999999
 20
70
 40
2.5
  0
CIRCLE
  5
28D
100
AcDbEntity
  8
physical
  6
ByLayer
 62
  256
370
   50
100
AcDbCircle
 10
19.99999999999999
 20
90
 40
2.5
  0
CIRCLE
  5
28E
100
AcDbEntity
  8
physical
  6
ByLayer
 62
  256
370
   50
100
AcDbCircle
 10
19.99999999999999
 20
110
 40
2.5
  0
CIRCLE
  5
28F
100
AcDbEntity
  8
physical
  6
ByLayer
 62
  256
370
   50
100
AcDbCircle
 10
19.99999999999999
 20
130
 40
2.5
  0
CIRCLE
  5
290
100
AcDbEntity
  8
physical
  6
ByLayer
 62
  256
370
   50
100
AcDbCircle
 10
19.99999999999999
 20
50
 40
2.5
  0
CIRCLE
  5
291
100
AcDbEntity
  8
physical
  6
ByLayer
 62
  256
370
   50
100
AcDbCircle
 10
20
 20
150
 40
2.5
  0
CIRCLE
  5
292
100
AcDbEntity
  8
physical
  6
ByLayer
 62
  256
370
   50
100
AcDbCircle
 10
19.99999999999999
 20
90
 40
2.5
  0
CIRCLE
  5
293
100
AcDbEntity
  8
physical
  6
ByLayer
 62
  256
370
   50
100
AcDbCircle
 10
19.99999999999999
 20
90
 40
2.5
  0
CIRCLE
  5
294
100
AcDbEntity
  8
physical
  6
ByLayer
 62
  256
370
   50
100
AcDbCircle
 10
20
 20
170
 40
2.5
  0
CIRCLE
  5
295
100
AcDbEntity
  8
physical
  6
ByLayer
 62
  256
370
   50
100
AcDbCircle
 10
20
 20
190
 40
2.5
  0
CIRCLE
  5
296
100
AcDbEntity
  8
physical
  6
ByLayer
 62
  256
370
   50
100
AcDbCircle
 10
20
 20
210
 40
2.5
  0
CIRCLE
  5
297
100
AcDbEntity
  8
physical
  6
ByLayer
 62
  256
370
   50
100
AcDbCircle
 10
20
 20
230
 40
2.5
  0
CIRCLE
  5
298
100
AcDbEntity
  8
physical
  6
ByLayer
 62
  256
370
   50
100
AcDbCircle
 10
20
 20
250
 40
2.5
  0
CIRCLE
  5
299
100
AcDbEntity
  8
physical
  6
ByLayer
 62
  256
370
   50
100
AcDbCircle
 10
20
 20
270
 40
2.5
  0
CIRCLE
  5
29A
100
AcDbEntity
  8
physical
  6
ByLayer
 62
  256
370
   50
100
AcDbCircle
 10
20
 20
290
 40
2.5
  0
CIRCLE
  5
29B
100
AcDbEntity
  8
physical
  6
ByLayer
 62
  256
370
   50
100
AcDbCircle
 10
20
 20
310
 40
2.5
  0
CIRCLE
  5
29C
100
AcDbEntity
  8
physical
  6
ByLayer
 62
  256
370
   50
100
AcDbCircle
 10
20
 20
330
 40
2.5
  0
CIRCLE
  5
29D
100
AcDbEntity
  8
physical
  6
ByLayer
 62
  256
370
   50
100
AcDbCircle
 10
20
 20
350
 40
2.5
  0
CIRCLE
  5
29E
100
AcDbEntity
  8
physical
  6
ByLayer
 62
  256
370
   50
100
AcDbCircle
 10
20
 20
370
 40
2.5
  0
CIRCLE
  5
29F
100
AcDbEntity
  8
physical
  6
ByLayer
 62
  256
370
   50
100
AcDbCircle
 10
50
 20
110
 40
2.5
  0
CIRCLE
  5
2A0
100
AcDbEntity
  8
physical
  6
ByLayer
 62
  256
370
   50
100
AcDbCircle
 10
50
 20
130
 40
2.5
  0
CIRCLE
  5
2A1
100
AcDbEntity
  8
physical
  6
ByLayer
 62
  256
370
   50
100
AcDbCircle
 10
49.99999999999999
 20
50
 40
2.5
  0
CIRCLE
  5
2A2
100
AcDbEntity
  8
physical
  6
ByLayer
 62
  256
370
   50
100
AcDbCircle
 10
50.00000000000001
 20
270
 40
2.5
  0
CIRCLE
  5
2A3
100
AcDbEntity
  8
physical
  6
ByLayer
 62
  256
370
   50
100
AcDbCircle
 10
50.00000000000001
 20
290
 40
2.5
  0
CIRCLE
  5
2A4
100
AcDbEntity
  8
physical
  6
ByLayer
 62
  256
370
   50
100
AcDbCircle
 10
50.00000000000001
 20
310
 40
2.5
  0
CIRCLE
  5
2A5
100
AcDbEntity
  8
physical
  6
ByLayer
 62
  256
370
   50
100
AcDbCircle
 10
50.00000000000001
 20
330
 40
2.5
  0
CIRCLE
  5
2A6
100
AcDbEntity
  8
physical
  6
ByLayer
 62
  256
370
   50
100
AcDbCircle
 10
50.00000000000001
 20
350
 40
2.5
  0
CIRCLE
  5
2A7
100
AcDbEntity
  8
physical
  6
ByLayer
 62
  256
370
   50
100
AcDbCircle
 10
50.00000000000001
 20
370
 40
2.5
  0
CIRCLE
  5
2A8
100
AcDbEntity
  8
physical
  6
ByLayer
 62
  256
370
   50
100
AcDbCircle
 10
80
 20
70
 40
2.5
  0
CIRCLE
  5
2A9
100
AcDbEntity
  8
physical
  6
ByLayer
 62
  256
370
   50
100
AcDbCircle
 10
80
 20
130
 40
2.5
  0
CIRCLE
  5
2AA
100
AcDbEntity
  8
physical
  6
ByLayer
 62
  256
370
   50
100
AcDbCircle
 10
80
 20
270
 40
2.5
  0
CIRCLE
  5
2AB
100
AcDbEntity
  8
physical
  6
ByLayer
 62
  256
370
   50
100
AcDbCircle
 10
80
 20
290
 40
2.5
  0
CIRCLE
  5
2AC
100
AcDbEntity
  8
physical
  6
ByLayer
 62
  256
370
   50
100
AcDbCircle
 10
80
 20
310
 40
2.5
  0
CIRCLE
  5
2AD
100
AcDbEntity
  8
physical
  6
ByLayer
 62
  256
370
   50
100
AcDbCircle
 10
80
 20
330
 40
2.5
  0
CIRCLE
  5
2AE
100
AcDbEntity
  8
physical
  6
ByLayer
 62
  256
370
   50
100
AcDbCircle
 10
80.00000000000001
 20
350
 40
2.5
  0
CIRCLE
  5
2AF
100
AcDbEntity
  8
physical
  6
ByLayer
 62
  256
370
   50
100
AcDbCircle
 10
80.00000000000001
 20
370
 40
2.5
  0
LINE
  5
2B0
100
AcDbEntity
  8
physical
  6
DOT
 62
  256
370
   50
100
AcDbLine
 10
20.00000000000001
 20
370
 11
20.00000000000001
 21
370
  0
CIRCLE
  5
2B1
100
AcDbEntity
  8
physical
  6
ByLayer
 62
  256
370
   50
100
AcDbCircle
 10
80
 20
50
 40
2.5
  0
CIRCLE
  5
2B2
100
AcDbEntity
  8
physical
  6
ByLayer
 62
  256
370
   50
100
AcDbCircle
 10
49.99999999999999
 20
70
 40
2.5
  0
CIRCLE
  5
2B3
100
AcDbEntity
  8
physical
  6
ByLayer
 62
  256
370
   50
100
AcDbCircle
 10
50
 20
90
 40
2.5
  0
CIRCLE
  5
2B4
100
AcDbEntity
  8
physical
  6
ByLayer
 62
  256
370
   50
100
AcDbCircle
 10
80
 20
110
 40
2.5
  0
CIRCLE
  5
2B5
100
AcDbEntity
  8
physical
  6
ByLayer
 62
  256
370
   50
100
AcDbCircle
 10
80
 20
90
 40
2.5
  0
CIRCLE
  5
2B6
100
AcDbEntity
  8
physical
  6
ByLayer
 62
  256
370
   50
100
AcDbCircle
 10
50
 20
150
 40
2.5
  0
CIRCLE
  5
2B7
100
AcDbEntity
  8
physical
  6
ByLayer
 62
  256
370
   50
100
AcDbCircle
 10
50
 20
170
 40
2.5
  0
CIRCLE
  5
2B8
100
AcDbEntity
  8
physical
  6
ByLayer
 62
  256
370
   50
100
AcDbCircle
 10
50
 20
190
 40
2.5
  0
CIRCLE
  5
2B9
100
AcDbEntity
  8
physical
  6
ByLayer
 62
  256
370
   50
100
AcDbCircle
 10
50.00000000000001
 20
210
 40
2.5
  0
CIRCLE
  5
2BA
100
AcDbEntity
  8
physical
  6
ByLayer
 62
  256
370
   50
100
AcDbCircle
 10
50.00000000000001
 20
230
 40
2.5
  0
CIRCLE
  5
2BB
100
AcDbEntity
  8
physical
  6
ByLayer
 62
  256
370
   50
100
AcDbCircle
 10
50.00000000000001
 20
250
 40
2.5
  0
CIRCLE
  5
2BC
100
AcDbEntity
  8
physical
  6
ByLayer
 62
  256
370
   50
100
AcDbCircle
 10
80
 20
150
 40
2.5
  0
CIRCLE
  5
2BD
100
AcDbEntity
  8
physical
  6
ByLayer
 62
  256
370
   50
100
AcDbCircle
 10
80
 20
170
 40
2.5
  0
CIRCLE
  5
2BE
100
AcDbEntity
  8
physical
  6
ByLayer
 62
  256
370
   50
100
AcDbCircle
 10
80
 20
190
 40
2.5
  0
CIRCLE
  5
2BF
100
AcDbEntity
  8
physical
  6
ByLayer
 62
  256
370
   50
100
AcDbCircle
 10
80
 20
210
 40
2.5
  0
CIRCLE
  5
2C0
100
AcDbEntity
  8
physical
  6
ByLayer
 62
  256
370
   50
100
AcDbCircle
 10
80
 20
230
 40
2.5
  0
CIRCLE
  5
2C1
100
AcDbEntity
  8
physical
  6
ByLayer
 62
  256
370
   50
100
AcDbCircle
 10
80
 20
250
 40
2.5
  0
MTEXT
  5
2C2
100
AcDbEntity
  8
dimensions
  6
ByLayer
 62
  256
370
   -1
100
AcDbMText
 10
-13.49999999999999
 20
210
 30
0
 40
5
 41
10.00000000000062
 71
    5
 72
    1
  1
360
  7
standard
210
0
220
0
230
1
 50
90
 73
    2
 44
1
  0
LINE
  5
2C3
100
AcDbEntity
  8
dimensions
  6
ByLayer
 62
  256
370
   -1
100
AcDbLine
 10
0
 20
28.99999999999999
 11
0
 21
18.74999999999999
  0
LINE
  5
2C4
100
AcDbEntity
  8
dimensions
  6
ByLayer
 62
  256
370
   -1
100
AcDbLine
 10
100
 20
28.99999999999998
 11
100
 21
18.74999999999998
  0
LINE
  5
2C5
100
AcDbEntity
  8
dimensions
  6
ByLayer
 62
  256
370
   -1
100
AcDbLine
 10
0
 20
19.99999999999999
 11
100
 21
19.99999999999998
  0
LINE
  5
2C6
100
AcDbEntity
  8
dimensions
  6
ByLayer
 62
  256
370
   -1
100
AcDbLine
 10
-10
 20
30.00000000000001
 11
-9.999999999999972
 21
390
  0
LINE
  5
2C7
100
AcDbEntity
  8
dimensions
  6
ByLayer
 62
  256
370
   -1
100
AcDbLine
 10
-1
 20
30.00000000000001
 11
-11.25
 21
30.00000000000001
  0
LINE
  5
2C8
100
AcDbEntity
  8
dimensions
  6
ByLayer
 62
  256
370
   -1
100
AcDbLine
 10
-0.9999999999999716
 20
390
 11
-11.24999999999997
 21
390
  0
LINE
  5
2C9
100
AcDbEntity
  8
dimensions
  6
ByLayer
 62
  256
370
   -1
100
AcDbLine
 10
110
 20
50
 11
110
 21
30
  0
MTEXT
  5
2CA
100
AcDbEntity
  8
dimensions
  6
ByLayer
 62
  256
370
   -1
100
AcDbMText
 10
106.5
 20
40
 30
0
 40
5
 41
6.111111111111112
 71
    5
 72
    1
  1
20
  7
standard
210
0
220
0
230
1
 50
90
 73
    2
 44
1
  0
LINE
  5
2CB
100
AcDbEntity
  8
dimensions
  6
ByLayer
 62
  256
370
   -1
100
AcDbLine
 10
81
 20
50
 11
111.25
 21
50
  0
LINE
  5
2CC
100
AcDbEntity
  8
dimensions
  6
ByLayer
 62
  256
370
   -1
100
AcDbLine
 10
81
 20
30
 11
111.25
 21
30
  0
LINE
  5
2CD
100
AcDbEntity
  8
dimensions
  6
ByLayer
 62
  256
370
   -1
100
AcDbLine
 10
2.842170943040401e-14
 20
400
 11
20.00000000000003
 21
400
  0
MTEXT
  5
2CE
100
AcDbEntity
  8
dimensions
  6
ByLayer
 62
  256
370
   -1
100
AcDbMText
 10
10.00000000000003
 20
396.5
 30
0
 40
5
 41
6.111111111111112
 71
    5
 72
    1
  1
20
  7
standard
210
0
220
0
230
1
 50
180
 73
    2
 44
1
  0
LINE
  5
2CF
100
AcDbEntity
  8
dimensions
  6
ByLayer
 62
  256
370
   -1
100
AcDbLine
 10
1.4210854715202e-14
 20
371
 11
2.842170943040401e-14
 21
401.25
  0
LINE
  5
2D0
100
AcDbEntity
  8
dimensions
  6
ByLayer
 62
  256
370
   -1
100
AcDbLine
 10
20.00000000000001
 20
371
 11
20.00000000000003
 21
401.25
  0
LINE
  5
2D1
100
AcDbEntity
  8
dimensions
  6
ByLayer
 62
  256
370
   -1
100
AcDbLine
 10
20.00000000000003
 20
400
 11
50.00000000000002
 21
400
  0
MTEXT
  5
2D2
100
AcDbEntity
  8
dimensions
  6
ByLayer
 62
  256
370
   -1
100
AcDbMText
 10
35.00000000000003
 20
396.5
 30
0
 40
5
 41
6.111111111111422
 71
    5
 72
    1
  1
30
  7
standard
210
0
220
0
230
1
 50
180
 73
    2
 44
1
  0
LINE
  5
2D3
100
AcDbEntity
  8
dimensions
  6
ByLayer
 62
  256
370
   -1
100
AcDbLine
 10
20.00000000000001
 20
371
 11
20.00000000000003
 21
401.25
  0
LINE
  5
2D4
100
AcDbEntity
  8
dimensions
  6
ByLayer
 62
  256
370
   -1
100
AcDbLine
 10
50.00000000000002
 20
371
 11
50.00000000000002
 21
401.25
  0
LINE
  5
2D5
100
AcDbEntity
  8
dimensions
  6
ByLayer
 62
  256
370
   -1
100
AcDbLine
 10
50.00000000000002
 20
400
 11
80.00000000000003
 21
400
  0
MTEXT
  5
2D6
100
AcDbEntity
  8
dimensions
  6
ByLayer
 62
  256
370
   -1
100
AcDbMText
 10
65.00000000000003
 20
396.5
 30
0
 40
5
 41
6.111111111111422
 71
    5
 72
    1
  1
30
  7
standard
210
0
220
0
230
1
 50
180
 73
    2
 44
1
  0
LINE
  5
2D7
100
AcDbEntity
  8
dimensions
  6
ByLayer
 62
  256
370
   -1
100
AcDbLine
 10
50.00000000000002
 20
371
 11
50.00000000000002
 21
401.25
  0
LINE
  5
2D8
100
AcDbEntity
  8
dimensions
  6
ByLayer
 62
  256
370
   -1
100
AcDbLine
 10
80.00000000000003
 20
371
 11
80.00000000000003
 21
401.25
  0
LINE
  5
2D9
100
AcDbEntity
  8
dimensions
  6
ByLayer
 62
  256
370
   -1
100
AcDbLine
 10
80.00000000000003
 20
400
 11
100
 21
400
  0
SOLID
  5
2DA
100
AcDbEntity
  8
dimensions
  6
ByLayer
 62
  256
370
   -1
100
AcDbTrace
 10
100
 20
400
 30
0
 11
97.50000000000003
 21
399.5837153422272
 31
0
 12
97.50000000000003
 22
400.4162846577728
 32
0
 13
100
 23
30
 33
0
  0
MTEXT
  5
2DB
100
AcDbEntity
  8
dimensions
  6
ByLayer
 62
  256
370
   -1
100
AcDbMText
 10
90.00000000000003
 20
396.5
 30
0
 40
5
 41
6.111111111111112
 71
    5
 72
    1
  1
20
  7
standard
210
0
220
0
230
1
 50
180
 73
    2
 44
1
  0
LINE
  5
2DC
100
AcDbEntity
  8
dimensions
  6
ByLayer
 62
  256
370
   -1
100
AcDbLine
 10
80.00000000000003
 20
371
 11
80.00000000000003
 21
401.25
  0
LINE
  5
2DD
100
AcDbEntity
  8
dimensions
  6
ByLayer
 62
  256
370
   -1
100
AcDbLine
 10
100
 20
371
 11
100
 21
401.25
  0
LINE
  5
2DE
100
AcDbEntity
  8
dimensions
  6
ByLayer
 62
  256
370
   -1
100
AcDbLine
 10
14.69669914110088
 20
55.30330085889911
 11
25.30330085889909
 21
44.69669914110089
  0
MTEXT
  5
2DF
100
AcDbEntity
  8
dimensions
  6
ByLayer
 62
  256
370
   -1
100
AcDbMText
 10
17.52512626584706
 20
47.52512626584708
 30
0
 40
5
 41
2.222222222222532
 71
    5
 72
    1
  1
5
  7
standard
210
0
220
0
230
1
 50
135
 73
    2
 44
1
  0
DIMENSION
  5
2E0
100
AcDbEntity
  8
dimensions
  6
ByLayer
 62
  256
370
   -1
100
AcDbDimension
  2
*D1
 10
110
 20
70
 30
0
 11
106.5
 21
60
 31
0
 70
   32
 71
    5
 72
    0
  3
Standard
 53
0
210
0
220
0
230
1
100
AcDbAlignedDimension
 13
80
 23
50
 33
0
 14
80
 24
70
 34
0
 50
90
100
AcDbRotatedDimension
  0
DIMENSION
  5
2E1
100
AcDbEntity
  8
dimensions
  6
ByLayer
 62
  256
370
   -1
100
AcDbDimension
  2
*D2
 10
110
 20
390
 30
0
 11
106.5
 21
380
 31
0
 70
   32
 71
    5
 72
    0
  3
Standard
 53
0
210
0
220
0
230
1
100
AcDbAlignedDimension
 13
80.00000000000003
 23
370
 33
0
 14
80.00000000000003
 24
390
 34
0
 50
90
100
AcDbRotatedDimension
  0
CIRCLE
  5
2E2
100
AcDbEntity
  8
cable-ties
  6
ByLayer
 62
  256
370
   -1
100
AcDbCircle
 10
80.00000000000003
 20
350
 40
3
  0
CIRCLE
  5
2E3
100
AcDbEntity
  8
cable-ties
  6
ByLayer
 62
  256
370
   -1
100
AcDbCircle
 10
20.00000000000001
 20
330
 40
3
  0
CIRCLE
  5
2E4
100
AcDbEntity
  8
cable-ties
  6
ByLayer
 62
  256
370
   -1
100
AcDbCircle
 10
80.00000000000001
 20
290
 40
3
  0
CIRCLE
  5
2E5
100
AcDbEntity
  8
cable-ties
  6
ByLayer
 62
  256
370
   -1
100
AcDbCircle
 10
20.00000000000001
 20
290
 40
3
  0
CIRCLE
  5
2E6
100
AcDbEntity
  8
cable-ties
  6
ByLayer
 62
  256
370
   -1
100
AcDbCircle
 10
80
 20
50
 40
3
  0
CIRCLE
  5
2E7
100
AcDbEntity
  8
cable-ties
  6
ByLayer
 62
  256
370
   -1
100
AcDbCircle
 10
50
 20
50
 40
3
  0
CIRCLE
  5
2E8
100
AcDbEntity
  8
cable-ties
  6
ByLayer
 62
  256
370
   -1
100
AcDbCircle
 10
50.00000000000001
 20
170
 40
3
  0
CIRCLE
  5
2E9
100
AcDbEntity
  8
cable-ties
  6
ByLayer
 62
  256
370
   -1
100
AcDbCircle
 10
20.00000000000001
 20
170
 40
3
  0
CIRCLE
  5
2EA
100
AcDbEntity
  8
cable-ties
  6
ByLayer
 62
  256
370
   -1
100
AcDbCircle
 10
50
 20
70
 40
3
  0
CIRCLE
  5
2EB
100
AcDbEntity
  8
cable-ties
  6
ByLayer
 62
  256
370
   -1
100
AcDbCircle
 10
20
 20
70
 40
3
  0
LINE
  5
2EC
100
AcDbEntity
  8
cable-ties
  6
ByLayer
 62
  256
370
   -1
100
AcDbLine
 10
20
 20
70
 11
50
 21
70
  0
LINE
  5
2ED
100
AcDbEntity
  8
cable-ties
  6
ByLayer
 62
  256
370
   -1
100
AcDbLine
 10
50
 20
50
 11
80
 21
50
  0
LINE
  5
2EE
100
AcDbEntity
  8
cable-ties
  6
ByLayer
 62
  256
370
   -1
100
AcDbLine
 10
50.00000000000001
 20
170
 11
20.00000000000001
 21
170
  0
LINE
  5
2EF
100
AcDbEntity
  8
cable-ties
  6
ByLayer
 62
  256
370
   -1
100
AcDbLine
 10
20.00000000000001
 20
290
 11
80.00000000000001
 21
290
  0
LINE
  5
2F0
100
AcDbEntity
  8
cable-ties
  6
ByLayer
 62
  256
370
   -1
100
AcDbLine
 10
20.00000000000001
 20
330
 11
80.00000000000003
 21
350
  0
INSERT
  5
2F1
100
AcDbEntity
  8
physical
  6
ByLayer
 62
  256
370
   -1
100
AcDbBlockReference
  2
rPi4
 10
78.00000000000001
 20
262
 30
0
 41
1
 42
1
 43
0
 50
90
 70
    1
 71
    1
 44
0
 45
0
  0
CIRCLE
  5
2F2
100
AcDbEntity
  8
cable-ties
  6
ByLayer
 62
  256
370
   -1
100
AcDbCircle
 10
80
 20
150
 40
3
  0
CIRCLE
  5
2F3
100
AcDbEntity
  8
cable-ties
  6
ByLayer
 62
  256
370
   -1
100
AcDbCircle
 10
50.00000000000001
 20
150
 40
3
  0
LINE
  5
2F4
100
AcDbEntity
  8
cable-ties
  6
ByLayer
 62
  256
370
   -1
100
AcDbLine
 10
50.00000000000001
 20
150
 11
80
 21
150
  0
CIRCLE
  5
2F5
100
AcDbEntity
  8
cable-ties
  6
ByLayer
 62
  256
370
   -1
100
AcDbCircle
 10
80
 20
150
 40
3
  0
CIRCLE
  5
2F6
100
AcDbEntity
  8
cable-ties
  6
ByLayer
 62
  256
370
   -1
100
AcDbCircle
 10
50.00000000000001
 20
150
 40
3
  0
LINE
  5
2F7
100
AcDbEntity
  8
cable-ties
  6
ByLayer
 62
  256
370
   -1
100
AcDbLine
 10
50.00000000000001
 20
150
 11
80
 21
150
  0
CIRCLE
  5
2F8
100
AcDbEntity
  8
cable-ties
  6
ByLayer
 62
  256
370
   -1
100
AcDbCircle
 10
80
 20
110
 40
3
  0
CIRCLE
  5
2F9
100
AcDbEntity
  8
cable-ties
  6
ByLayer
 62
  256
370
   -1
100
AcDbCircle
 10
50.00000000000001
 20
110
 40
3
  0
LINE
  5
2FA
100
AcDbEntity
  8
cable-ties
  6
ByLayer
 62
  256
370
   -1
100
AcDbLine
 10
50.00000000000001
 20
110
 11
80
 21
110
  0
INSERT
  5
2FB
100
AcDbEntity
  8
RPi4_BOARD_OUTLINE
  6
ByLayer
 62
  256
370
   -1
100
AcDbBlockReference
  2
enc_block
 10
-15.00000000000003
 20
-10.99999836679137
 30
0
 41
1
 42
1
 43
0
 50
0
 70
    1
 71
    1
 44
0
 45
0
  0
ENDSEC
  0
SECTION
  2
OBJECTS
  0
DICTIONARY
  5
C
330
0
100
AcDbDictionary
281
    1
  3
ACAD_GROUP
350
D
  0
DICTIONARY
  5
D
330
C
100
AcDbDictionary
281
    1
  0
ENDSEC
  0
EOF
